<?xml version="1.0" encoding="utf-8"?>
<!-- Generator: Adobe Illustrator 14.0.0, SVG Export Plug-In . SVG Version: 6.00 Build 43363)  -->
<!DOCTYPE svg PUBLIC "-//W3C//DTD SVG 1.1//EN" "http://www.w3.org/Graphics/SVG/1.1/DTD/svg11.dtd">
<svg version="1.1" id="Layer_1" xmlns="http://www.w3.org/2000/svg" xmlns:xlink="http://www.w3.org/1999/xlink" x="0px" y="0px"
	 width="66px" height="35px" viewBox="0 0 66 35" enable-background="new 0 0 66 35" xml:space="preserve">
<g>
	<rect x="25" y="10" fill="#FFFFFF" width="17" height="2"/>
	<path fill="#FFFFFF" d="M27,24.503C27,26.427,29,28,31,28l4.995-0.005c2.022,0,4.005-1.901,4.005-3.825V13H27V24.503z M36,16.388
		c0-0.336,0.549-0.611,1.223-0.611s1.223,0.274,1.223,0.611v8.556c0,0.337-0.549,0.611-1.223,0.611S36,25.281,36,24.944V16.388z
		 M32.334,16.388c0-0.336,0.549-0.611,1.223-0.611c0.673,0,1.222,0.274,1.222,0.611v8.556c0,0.337-0.549,0.611-1.222,0.611
		c-0.674,0-1.223-0.274-1.223-0.611V16.388z M28.67,16.388c0-0.336,0.549-0.611,1.223-0.611s1.223,0.274,1.223,0.611v8.556
		c0,0.337-0.549,0.611-1.223,0.611s-1.223-0.274-1.223-0.611V16.388z"/>
	<path fill="#FFFFFF" d="M33.557,6.005C32.205,6.005,31,7.649,31,9h5C36,7.649,34.907,6.005,33.557,6.005z"/>
</g>
</svg>
