<?xml version="1.0" encoding="utf-8"?>
<!-- Generator: Adobe Illustrator 14.0.0, SVG Export Plug-In . SVG Version: 6.00 Build 43363)  -->
<!DOCTYPE svg PUBLIC "-//W3C//DTD SVG 1.1//EN" "http://www.w3.org/Graphics/SVG/1.1/DTD/svg11.dtd">
<svg version="1.1" id="Layer_1" xmlns="http://www.w3.org/2000/svg" xmlns:xlink="http://www.w3.org/1999/xlink" x="0px" y="0px"
	 width="66px" height="35px" viewBox="0 0 66 35" enable-background="new 0 0 66 35" xml:space="preserve">
<g>
	<polygon fill="#5B5B5B" points="42,27 19,27 19,7 42,7 42,14 44,15 44,5 17,5 17,29 44,29 44,25 42,24 	"/>
	<polygon fill="#5B5B5B" points="35,9 21,9 21,10 34,10 	"/>
	<rect x="21" y="15" fill="#5B5B5B" width="7" height="1"/>
	<rect x="21" y="18" fill="#5B5B5B" width="4" height="1"/>
	<rect x="21" y="21" fill="#5B5B5B" width="8" height="1"/>
	<polygon fill="#5B5B5B" points="32,12 21,12 21,13 31,13 	"/>
	<path fill="#5B5B5B" d="M38,15v-4l-7.889,7L38,25.666v-4c0,0,7.066-1.332,11.777,5.334C48.6,15,38,15,38,15z"/>
</g>
</svg>
