<?xml version="1.0" encoding="utf-8"?>
<!-- Generator: Adobe Illustrator 14.0.0, SVG Export Plug-In . SVG Version: 6.00 Build 43363)  -->
<!DOCTYPE svg PUBLIC "-//W3C//DTD SVG 1.1//EN" "http://www.w3.org/Graphics/SVG/1.1/DTD/svg11.dtd">
<svg version="1.1" id="Layer_1" xmlns="http://www.w3.org/2000/svg" xmlns:xlink="http://www.w3.org/1999/xlink" x="0px" y="0px"
	 width="65px" height="65px" viewBox="0 0 65 65" enable-background="new 0 0 65 65" xml:space="preserve">
<linearGradient id="SVGID_1_" gradientUnits="userSpaceOnUse" x1="32.5005" y1="52.877" x2="32.5005" y2="12.124">
	<stop  offset="0.003" style="stop-color:#9F0B00"/>
	<stop  offset="1" style="stop-color:#FF8056"/>
</linearGradient>
<path fill="url(#SVGID_1_)" d="M52.268,45.55L39.219,32.499l13.049-13.047c0.81-0.81,0.81-2.135,0-2.942l-3.777-3.778
	c-0.809-0.809-2.135-0.809-2.94,0L32.501,25.78L19.451,12.731c-0.81-0.811-2.134-0.811-2.943,0l-3.776,3.778
	c-0.809,0.808-0.809,2.131,0,2.942l13.049,13.049L12.731,45.55c-0.809,0.809-0.809,2.133,0,2.941l3.778,3.779
	c0.808,0.809,2.132,0.809,2.941,0L32.5,39.22l13.047,13.049c0.809,0.811,2.134,0.811,2.943,0l3.777-3.777
	C53.077,47.683,53.077,46.358,52.268,45.55z"/>
</svg>
