<?xml version="1.0" encoding="utf-8"?>
<!-- Generator: Adobe Illustrator 14.0.0, SVG Export Plug-In . SVG Version: 6.00 Build 43363)  -->
<!DOCTYPE svg PUBLIC "-//W3C//DTD SVG 1.1//EN" "http://www.w3.org/Graphics/SVG/1.1/DTD/svg11.dtd">
<svg version="1.1" id="Layer_1" xmlns="http://www.w3.org/2000/svg" xmlns:xlink="http://www.w3.org/1999/xlink" x="0px" y="0px"
	 width="25px" height="25px" viewBox="0 0 25 25" enable-background="new 0 0 25 25" xml:space="preserve">
<path id="nota_9_" fill-rule="evenodd" clip-rule="evenodd" fill="#5A5A5A" d="M13.044,2c0.142,1.017,0.161,2.297,1.209,3.578
	c0.806,0.976,1.712,1.85,2.337,2.643c0.826,1.037,1.41,2.338,1.41,3.66c0,2.113-1.006,4.207-1.693,5.366h-0.322
	c0.484-1.099,1.451-2.908,1.37-4.839c-0.04-1.076-0.442-2.236-1.128-3.09c-0.766-0.996-2.055-1.789-3.183-1.87v11.526
	c0,0.915-0.544,1.748-1.33,2.358c-0.765,0.609-1.772,0.976-2.659,0.976c-0.564,0-1.088-0.184-1.45-0.486
	C7.222,21.516,7,21.068,7,20.541c0-0.834,0.563-1.667,1.33-2.277c0.766-0.63,1.731-1.037,2.538-1.037
	c0.704,0,1.31,0.102,1.671,0.447V2H13.044z"/>
</svg>
