<?xml version="1.0" encoding="utf-8"?>
<!-- Generator: Adobe Illustrator 15.0.2, SVG Export Plug-In  -->
<!DOCTYPE svg PUBLIC "-//W3C//DTD SVG 1.1//EN" "http://www.w3.org/Graphics/SVG/1.1/DTD/svg11.dtd" [
	<!ENTITY ns_flows "http://ns.adobe.com/Flows/1.0/">
]>
<svg version="1.1"
	 xmlns="http://www.w3.org/2000/svg" xmlns:xlink="http://www.w3.org/1999/xlink" xmlns:a="http://ns.adobe.com/AdobeSVGViewerExtensions/3.0/"
	 x="0px" y="0px" width="20px" height="24px" viewBox="-4 -1 20 24" overflow="visible" enable-background="new -4 -1 20 24"
	 xml:space="preserve">
<defs>
</defs>
<path fill="#FFFFFF" d="M6.15,22c-0.148-0.031-0.236-0.029-0.382-0.104c-0.021-0.006-0.04-0.014-0.06-0.019
	C5.843,21.945,5.976,22,6.088,22H6.15z"/>
<path fill="#FFFFFF" d="M6.693,22h0.369c0.166,0,0.348-0.107,0.522-0.221c-0.142,0.043-0.28,0.082-0.427,0.117
	C7.014,21.971,6.844,21.969,6.693,22z"/>
<path fill="#FFFFFF" d="M13,14.338c0-0.623-0.158-1.265-0.33-1.859c-0.25-0.705-0.556-1.354-0.875-1.996
	c-0.215-0.334-0.408-0.677-0.594-1.028C9.504,6.839,7.949,4.058,6.962,0.913L6.637,0c-0.94,2.596-2.128,5.019-3.474,7.309
	C2.801,7.928,2.43,8.542,2.044,9.142l-0.808,1.435c-0.256,0.508-0.545,1.047-0.76,1.59C0.264,12.839,0,13.57,0,14.275v1.061
	c0,3.316,2.061,5.293,4.531,6.072C3.625,20.871,3,19.961,3,18.539v-0.59c0-0.393,0.027-0.801,0.146-1.176
	c0.119-0.301,0.161-0.603,0.303-0.885l0.449-0.8c0.216-0.334,0.422-0.676,0.624-1.021c0.749-1.274,1.411-2.625,1.935-4.069
	l0.18,0.508c0.551,1.75,1.416,3.3,2.361,4.757c0.104,0.195,0.211,0.387,0.331,0.572c0.178,0.357,0.349,0.719,0.487,1.109
	C9.912,17.279,10,17.637,10,17.984v0.572c0,0.088,0,0.393,0,0.43C10,18.992,10,19,10,19H9.971c0,0,0.002-0.011,0.004-0.014
	c-0.002-0.006-0.002-0.012-0.004-0.004c-0.113,1.291-0.736,2.022-1.574,2.467c2.334-0.664,4.276-2.143,4.552-5.287
	C12.955,16.139,12.951,16,12.959,16h-0.012C12.982,16,13,15.533,13,15.367V14.338z"/>
<path fill="#FFFFFF" d="M7.586,21.779c0.285-0.086,0.557-0.197,0.811-0.33c-0.166,0.047-0.328,0.101-0.498,0.14
	C7.799,21.641,7.693,21.711,7.586,21.779z"/>
<path fill="#FFFFFF" d="M5.186,21.589c-0.221-0.05-0.438-0.112-0.654-0.181c0.357,0.212,0.752,0.369,1.178,0.471
	C5.525,21.787,5.336,21.666,5.186,21.589z"/>
</svg>
