<?xml version="1.0" encoding="utf-8"?>
<!-- Generator: Adobe Illustrator 15.0.2, SVG Export Plug-In  -->
<!DOCTYPE svg PUBLIC "-//W3C//DTD SVG 1.1//EN" "http://www.w3.org/Graphics/SVG/1.1/DTD/svg11.dtd" [
	<!ENTITY ns_flows "http://ns.adobe.com/Flows/1.0/">
]>
<svg version="1.1"
	 xmlns="http://www.w3.org/2000/svg" xmlns:xlink="http://www.w3.org/1999/xlink" xmlns:a="http://ns.adobe.com/AdobeSVGViewerExtensions/3.0/"
	 x="0px" y="0px" width="20px" height="21px" viewBox="-5 -1.5 20 21" overflow="visible" enable-background="new -5 -1.5 20 21"
	 xml:space="preserve">
<defs>
</defs>
<path id="path412_1_" fill="#FFFFFF" d="M10,11.311v0.812c-0.042,0.148-0.007,0.359-0.057,0.516
	c-0.229,2.656-1.938,3.75-3.918,4.215c-0.2,0.106-0.44,0.104-0.647,0.147H4.62c-0.206-0.045-0.446-0.041-0.646-0.147
	C1.836,16.363,0.099,14.941,0,12.098v-0.837c0.07-0.555,0.153-1.133,0.321-1.663C0.486,9.17,0.658,8.744,0.856,8.344l0.627-1.132
	C2.89,4.988,4.121,2.603,5.046,0l0.256,0.719c0.763,2.48,1.97,4.675,3.289,6.739c0.146,0.277,0.295,0.547,0.464,0.811
	C9.3,8.776,9.543,9.289,9.736,9.843C9.87,10.312,9.953,10.818,10,11.311z"/>
</svg>
