<?xml version="1.0" encoding="utf-8"?>
<!-- Generator: Adobe Illustrator 14.0.0, SVG Export Plug-In . SVG Version: 6.00 Build 43363)  -->
<!DOCTYPE svg PUBLIC "-//W3C//DTD SVG 1.1//EN" "http://www.w3.org/Graphics/SVG/1.1/DTD/svg11.dtd">
<svg version="1.1" id="Layer_1" xmlns="http://www.w3.org/2000/svg" xmlns:xlink="http://www.w3.org/1999/xlink" x="0px" y="0px"
	 width="20px" height="21px" viewBox="0 0 20 21" enable-background="new 0 0 20 21" xml:space="preserve">
<path id="path412" fill="#5A5A5A" d="M15,12.811v0.812c-0.042,0.149-0.007,0.359-0.057,0.516c-0.229,2.656-1.937,3.75-3.918,4.214
	c-0.2,0.107-0.44,0.104-0.647,0.148H9.62c-0.206-0.045-0.446-0.041-0.646-0.148C6.836,17.863,5.099,16.442,5,13.598v-0.837
	c0.07-0.555,0.153-1.133,0.321-1.664c0.165-0.427,0.337-0.853,0.535-1.253l0.627-1.132C7.89,6.488,9.121,4.103,10.046,1.5
	l0.256,0.719c0.763,2.48,1.97,4.675,3.289,6.739c0.145,0.277,0.295,0.547,0.463,0.811c0.246,0.507,0.489,1.02,0.682,1.574
	C14.87,11.812,14.953,12.318,15,12.811z"/>
</svg>
