<?xml version="1.0" encoding="utf-8"?>
<!-- Generator: Adobe Illustrator 15.0.2, SVG Export Plug-In  -->
<!DOCTYPE svg PUBLIC "-//W3C//DTD SVG 1.1//EN" "http://www.w3.org/Graphics/SVG/1.1/DTD/svg11.dtd" [
	<!ENTITY ns_flows "http://ns.adobe.com/Flows/1.0/">
]>
<svg version="1.1"
	 xmlns="http://www.w3.org/2000/svg" xmlns:xlink="http://www.w3.org/1999/xlink" xmlns:a="http://ns.adobe.com/AdobeSVGViewerExtensions/3.0/"
	 x="0px" y="0px" width="20px" height="28px" viewBox="-3 -1 20 28" overflow="visible" enable-background="new -3 -1 20 28"
	 xml:space="preserve">
<defs>
</defs>
<path fill="#FFFFFF" d="M14.843,13c-0.182-0.613-0.227-1.219-0.821-1.954c-0.824-1.141-1.33-1.922-1.719-5.297
	c-3.076,2.75,0.022,5.438-2.365,7.625C6.58,9,10.216,5.916,9.68,3.25C9.281,1.278,7.209,0,7.209,0C6.645,5.25,5.312,6.456,3.4,9.332
	l-0.853,1.465c-0.269,0.518-0.68,1.068-0.906,1.624c-0.224,0.686-0.608,1.435-0.608,2.152v0.766c1.032-0.896,1.059-1.78,1.394-2.678
	l1.062-2.614l1.196,3.124c0.472,1.449,1.209,2.843,2.356,4.55c0.14,0.25,0.246,0.413,0.353,0.575l0.065,0.097
	c0.18,0.352,0.387,0.764,0.557,1.221c0.127,0.426,0.209,0.836,0.25,1.277l0.006,0.805l-0.018,0.062c0,0.045-0.013,0.104-0.018,0.154
	c0.607-0.002,1.203-0.035,1.334-0.103c2.693-0.602,5.013-2.018,5.326-5.453c0.065-0.205,0.02-0.475,0.074-0.668
	C14.973,15.688,15.091,14.012,14.843,13z"/>
<path fill="#FFFFFF" d="M7.229,21.984c0-0.349-0.09-0.705-0.189-1.037c-0.144-0.393-0.32-0.754-0.505-1.111
	c-0.122-0.186-0.233-0.377-0.341-0.572c-0.977-1.457-1.87-3.006-2.438-4.756L3.57,14c-0.54,1.445-1.225,2.795-1.999,4.068
	c-0.208,0.346-0.421,0.688-0.644,1.021l-0.464,0.8c-0.146,0.282-0.189,0.584-0.312,0.885C0.028,21.148,0,21.557,0,21.949v0.59
	c0,2.008,1.274,3.012,2.858,3.357C3.01,25.971,3.101,25.969,3.254,26h0.562c0.154-0.031,0.33-0.029,0.479-0.104
	c1.47-0.328,2.736-1.039,2.905-2.914C7.203,22.969,7.201,23,7.205,23H7.199c0.021,0,0.03-0.352,0.03-0.443V21.984z"/>
</svg>
