<?xml version="1.0" encoding="utf-8"?>
<!-- Generator: Adobe Illustrator 14.0.0, SVG Export Plug-In . SVG Version: 6.00 Build 43363)  -->
<!DOCTYPE svg PUBLIC "-//W3C//DTD SVG 1.1//EN" "http://www.w3.org/Graphics/SVG/1.1/DTD/svg11.dtd">
<svg version="1.1" id="Layer_1" xmlns="http://www.w3.org/2000/svg" xmlns:xlink="http://www.w3.org/1999/xlink" x="0px" y="0px"
	 width="20px" height="23px" viewBox="0 0 20 23" enable-background="new 0 0 20 23" xml:space="preserve">
<path id="path412_1_" fill="#5A5A5A" d="M16.973,16.25c-0.053,0.193-0.006,0.467-0.071,0.67c-0.297,3.45-2.514,4.871-5.083,5.476
	c-0.264,0.139-2.399,0.139-2.664,0C6.383,21.76,4.125,19.915,4,16.218v-1.086c0.088-0.724,0.201-1.474,0.414-2.162
	c0.215-0.558,0.439-1.11,0.695-1.63l0.814-1.471C7.748,6.981,9.021,5.771,9.56,0.5c0,0,1.979,1.284,2.358,3.263
	c0.514,2.677-2.958,5.773,0.247,10.165c2.28-2.195-0.679-4.894,2.26-7.655c0.371,3.389,0.852,4.173,1.639,5.318
	c0.569,0.737,0.613,1.346,0.785,1.962C17.087,14.569,16.973,16.25,16.973,16.25z"/>
</svg>
