<?xml version="1.0" encoding="utf-8"?>
<!-- Generator: Adobe Illustrator 14.0.0, SVG Export Plug-In . SVG Version: 6.00 Build 43363)  -->
<!DOCTYPE svg PUBLIC "-//W3C//DTD SVG 1.1//EN" "http://www.w3.org/Graphics/SVG/1.1/DTD/svg11.dtd">
<svg version="1.1" id="Layer_1" xmlns="http://www.w3.org/2000/svg" xmlns:xlink="http://www.w3.org/1999/xlink" x="0px" y="0px"
	 width="20px" height="24px" viewBox="0 0 20 24" enable-background="new 0 0 20 24" xml:space="preserve">
<g>
	<path fill="#5A5A5A" d="M10.15,23c-0.148-0.031-0.236-0.029-0.382-0.104c-0.021-0.005-0.04-0.013-0.06-0.018
		C9.843,22.945,9.976,23,10.088,23H10.15z"/>
	<path fill="#5A5A5A" d="M10.694,23h0.368c0.167,0,0.348-0.107,0.523-0.221c-0.141,0.043-0.281,0.083-0.427,0.117
		C11.014,22.971,10.844,22.969,10.694,23z"/>
	<path fill="#5A5A5A" d="M17,15.338c0-0.623-0.158-1.265-0.33-1.859c-0.25-0.705-0.556-1.354-0.875-1.996
		c-0.215-0.334-0.408-0.677-0.594-1.028c-1.697-2.616-3.252-5.397-4.239-8.542L10.637,1C9.697,3.596,8.509,6.019,7.163,8.309
		C6.801,8.928,6.43,9.542,6.044,10.142l-0.808,1.435c-0.256,0.508-0.545,1.047-0.76,1.59C4.264,13.839,4,14.57,4,15.276v1.06
		c0,3.316,2.061,5.293,4.531,6.072C7.625,21.871,7,20.961,7,19.539v-0.59c0-0.393,0.027-0.801,0.146-1.175
		c0.119-0.302,0.161-0.603,0.303-0.886l0.449-0.799c0.216-0.334,0.422-0.676,0.624-1.021c0.749-1.274,1.411-2.624,1.935-4.069
		l0.18,0.508c0.551,1.75,1.416,3.3,2.361,4.756c0.104,0.196,0.211,0.387,0.331,0.573c0.178,0.357,0.349,0.719,0.487,1.11
		C13.912,18.279,14,18.637,14,18.984v0.572c0,0.088,0,0.393,0,0.43C14,19.992,14,20,14,20h-0.029c0,0,0.002-0.011,0.003-0.014
		c-0.001-0.006-0.001-0.011-0.003-0.004c-0.113,1.292-0.736,2.023-1.574,2.467c2.333-0.664,4.276-2.143,4.551-5.287
		C16.955,17.139,16.951,17,16.959,17h-0.012C16.982,17,17,16.533,17,16.367V15.338z"/>
	<path fill="#5A5A5A" d="M11.586,22.779c0.285-0.086,0.557-0.197,0.811-0.33c-0.166,0.047-0.328,0.101-0.498,0.14
		C11.799,22.64,11.693,22.711,11.586,22.779z"/>
	<path fill="#5A5A5A" d="M9.186,22.589c-0.221-0.05-0.438-0.112-0.654-0.181c0.357,0.212,0.752,0.369,1.178,0.471
		C9.525,22.787,9.336,22.666,9.186,22.589z"/>
</g>
</svg>
