<?xml version="1.0" encoding="utf-8"?>
<!-- Generator: Adobe Illustrator 14.0.0, SVG Export Plug-In . SVG Version: 6.00 Build 43363)  -->
<!DOCTYPE svg PUBLIC "-//W3C//DTD SVG 1.1//EN" "http://www.w3.org/Graphics/SVG/1.1/DTD/svg11.dtd">
<svg version="1.1" id="Layer_1" xmlns="http://www.w3.org/2000/svg" xmlns:xlink="http://www.w3.org/1999/xlink" x="0px" y="0px"
	 width="20px" height="28px" viewBox="0 0 20 28" enable-background="new 0 0 20 28" xml:space="preserve">
<g>
	<path fill="#5A5A5A" d="M17.843,14c-0.182-0.613-0.227-1.219-0.822-1.954c-0.824-1.141-1.33-1.922-1.718-5.297
		c-3.076,2.75,0.022,5.438-2.365,7.625C9.58,10,13.216,6.916,12.679,4.25C12.281,2.278,10.209,1,10.209,1
		C9.645,6.25,8.312,7.456,6.4,10.332l-0.853,1.465c-0.269,0.518-0.68,1.068-0.906,1.624c-0.224,0.686-0.608,1.434-0.608,2.152v0.766
		c1.032-0.895,1.059-1.781,1.394-2.678l1.062-2.614l1.196,3.124c0.472,1.449,1.209,2.842,2.356,4.549
		c0.14,0.25,0.246,0.414,0.353,0.576l0.065,0.096c0.18,0.352,0.387,0.764,0.557,1.221c0.127,0.426,0.208,0.836,0.25,1.277
		l0.006,0.805l-0.018,0.062c0,0.045-0.013,0.104-0.017,0.154c0.607-0.002,1.202-0.035,1.334-0.102
		c2.692-0.602,5.012-2.018,5.325-5.453c0.066-0.205,0.02-0.475,0.074-0.668C17.972,16.688,18.091,15.012,17.843,14z"/>
	<path fill="#5A5A5A" d="M10.229,22.984c0-0.348-0.09-0.705-0.189-1.037c-0.144-0.393-0.32-0.754-0.505-1.111
		c-0.122-0.186-0.233-0.377-0.341-0.572c-0.977-1.457-1.87-3.006-2.438-4.756L6.57,15c-0.54,1.445-1.225,2.795-1.999,4.068
		c-0.208,0.346-0.421,0.688-0.644,1.021l-0.464,0.799c-0.146,0.283-0.189,0.584-0.312,0.885C3.028,22.148,3,22.557,3,22.949v0.59
		c0,2.008,1.274,3.012,2.858,3.357C6.01,26.971,6.101,26.969,6.254,27h0.562c0.154-0.031,0.33-0.029,0.479-0.104
		c1.47-0.328,2.736-1.039,2.905-2.914C10.203,23.969,10.201,24,10.205,24h-0.006c0.021,0,0.03-0.352,0.03-0.443V22.984z"/>
</g>
</svg>
