<?xml version="1.0" encoding="utf-8"?>
<!-- Generator: Adobe Illustrator 15.0.2, SVG Export Plug-In  -->
<!DOCTYPE svg PUBLIC "-//W3C//DTD SVG 1.1//EN" "http://www.w3.org/Graphics/SVG/1.1/DTD/svg11.dtd" [
	<!ENTITY ns_flows "http://ns.adobe.com/Flows/1.0/">
]>
<svg version="1.1"
	 xmlns="http://www.w3.org/2000/svg" xmlns:xlink="http://www.w3.org/1999/xlink" xmlns:a="http://ns.adobe.com/AdobeSVGViewerExtensions/3.0/"
	 x="0px" y="0px" width="20px" height="23px" viewBox="-4 -0.5 20 23" overflow="visible" enable-background="new -4 -0.5 20 23"
	 xml:space="preserve">
<defs>
</defs>
<path id="path412_2_" fill="#FFFFFF" d="M12.973,15.75c-0.053,0.193-0.006,0.467-0.07,0.67c-0.297,3.45-2.514,4.871-5.084,5.477
	c-0.264,0.139-2.398,0.139-2.664,0C2.383,21.26,0.125,19.415,0,15.718v-1.086c0.088-0.724,0.201-1.474,0.414-2.161
	c0.215-0.559,0.439-1.111,0.695-1.631l0.814-1.471C3.748,6.481,5.021,5.271,5.56,0c0,0,1.979,1.284,2.358,3.263
	C8.432,5.94,4.96,9.036,8.165,13.428c2.28-2.195-0.679-4.894,2.26-7.655c0.371,3.389,0.853,4.173,1.64,5.318
	c0.568,0.737,0.612,1.347,0.785,1.962C13.087,14.068,12.973,15.75,12.973,15.75z"/>
</svg>
