<?xml version="1.0" encoding="utf-8"?>
<!-- Generator: Adobe Illustrator 15.0.0, SVG Export Plug-In  -->
<!DOCTYPE svg PUBLIC "-//W3C//DTD SVG 1.1//EN" "http://www.w3.org/Graphics/SVG/1.1/DTD/svg11.dtd" [
	<!ENTITY ns_flows "http://ns.adobe.com/Flows/1.0/">
]>
<svg version="1.1"
	 xmlns="http://www.w3.org/2000/svg" xmlns:xlink="http://www.w3.org/1999/xlink" xmlns:a="http://ns.adobe.com/AdobeSVGViewerExtensions/3.0/"
	 x="0px" y="0px" width="15px" height="16px" viewBox="0 0 15 16" overflow="visible" enable-background="new 0 0 15 16"
	 xml:space="preserve">
<defs>
	<symbol  id="Deleted_Symbol" viewBox="-15.573 -10.298 30.435 21.097">
		<g id="home_18_">
			<path fill="#333333" d="M7.899-10.298H-7.235c-1.051,0-1.906,0.803-1.906,1.79v8.177h1.65v-8.177c0-0.157,0.117-0.29,0.256-0.29
				H7.899c0.139,0,0.256,0.133,0.256,0.29v8.177h1.65v-8.177C9.806-9.496,8.95-10.298,7.899-10.298z"/>
			<path fill="#333333" d="M-11.546-0.337l9.176,7.521c1.422,1.172,4.021,1.172,5.449-0.001l9.174-7.521h2.42l0.1,0.079L4.417,8.232
				c-1.068,0.877-2.513,1.36-4.064,1.36c-1.553,0-2.996-0.482-4.061-1.359l-10.358-8.491l0.101-0.079H-11.546z"/>
		</g>
		<g id="home_17_">
			<path fill="#FFFFFF" stroke="#FFFFFF" stroke-miterlimit="10" d="M7.192-9.591H-7.942c-1.051,0-1.906,0.803-1.906,1.79v8.177
				h1.65v-8.177c0-0.157,0.117-0.29,0.256-0.29H7.192c0.139,0,0.256,0.133,0.256,0.29v8.177h1.65v-8.177
				C9.099-8.789,8.243-9.591,7.192-9.591z"/>
			<path fill="#FFFFFF" stroke="#FFFFFF" stroke-miterlimit="10" d="M-12.253,0.37l9.176,7.521c1.422,1.172,4.021,1.172,5.449-0.001
				l9.174-7.521h2.42l0.1,0.079L3.71,8.938c-1.067,0.877-2.512,1.36-4.063,1.36c-1.554,0-2.996-0.482-4.062-1.359l-10.357-8.49
				l0.102-0.079H-12.253z"/>
		</g>
	</symbol>
	<symbol  id="button_x5F_back" viewBox="-37.5 -25 75 50">
		<use xlink:href="#button_x5F_bg"  width="75" height="50" x="-37.5" y="-25" overflow="visible"/>
		<polygon points="5.065,7.227 1.549,7.227 -3.435,0.284 1.549,-6.662 5.065,-6.662 0.047,0.284 		"/>
	</symbol>
	<symbol  id="button_x5F_bg" viewBox="-37.5 -25 75 50">
		
			<linearGradient id="bottone_89_" gradientUnits="userSpaceOnUse" x1="93.4702" y1="1013.7812" x2="53.0694" y2="1083.7576" gradientTransform="matrix(1 0 0 1 -73.27 -1048.7695)">
			<stop  offset="0.0061" style="stop-color:#FFFFFF"/>
			<stop  offset="0.1498" style="stop-color:#EEEEEE"/>
			<stop  offset="0.3529" style="stop-color:#DCDCDC"/>
			<stop  offset="0.5" style="stop-color:#D6D6D6"/>
			<stop  offset="0.6762" style="stop-color:#E6E6E6"/>
			<stop  offset="1" style="stop-color:#FFFFFF"/>
		</linearGradient>
		<polygon id="bottone_26_" fill="url(#bottone_89_)" points="-37.5,25 37.5,25 37.5,-25 -37.5,-25 		"/>
	</symbol>
	<symbol  id="button_x5F_folders" viewBox="-37.5 -25 75 50">
		<use xlink:href="#button_x5F_bg"  width="75" height="50" x="-37.5" y="-25" overflow="visible"/>
		<g id="stanze_21_">
			<polygon opacity="0.1" fill="#5E5E5E" enable-background="new    " points="-0.504,-0.68 7.762,-0.68 7.762,12.895 -8.77,12.895 
				-8.77,-11.299 -0.504,-11.299 			"/>
			<g>
				<g opacity="0.3">
					<polygon points="-2.117,-2.411 5.545,-2.411 5.545,-12.895 -2.117,-12.895 					"/>
				</g>
				<g>
					
						<linearGradient id="SVGID_1_" gradientUnits="userSpaceOnUse" x1="169.2095" y1="-16118.6016" x2="169.2095" y2="-16129.084" gradientTransform="matrix(1 0 0 -1 -164.27 -16128.2695)">
						<stop  offset="0" style="stop-color:#000000"/>
						<stop  offset="1" style="stop-color:#4C4D4D"/>
					</linearGradient>
					<polygon fill="url(#SVGID_1_)" points="1.109,0.814 8.77,0.814 8.77,-9.668 1.109,-9.668 					"/>
				</g>
			</g>
		</g>
	</symbol>
	<symbol  id="button_x5F_options" viewBox="-37.5 -25 75 50">
		<use xlink:href="#button_x5F_bg"  width="75" height="50" x="-37.5" y="-25" overflow="visible"/>
		<g id="opzioni_21_">
			<path opacity="0.1" fill="#221F1F" enable-background="new    " d="M6.915-2.06L5.586-0.419l0.689,1.997L4.463,2.662L4.427,4.774
				L2.354,5.178L1.599,7.148L-0.487,6.82l-1.386,1.595L-3.72,7.389l-1.848,1.026L-6.952,6.82l-2.086,0.33l-0.755-1.972l-2.073-0.404
				l-0.037-2.11l-1.812-1.086l0.69-1.997l-1.329-1.641l1.329-1.643l-0.69-1.998l1.812-1.086l0.037-2.111L-9.792-9.3l0.755-1.972
				l2.086,0.328l1.386-1.593l1.847,1.026l1.847-1.026l1.386,1.593l2.086-0.328l0.755,1.971l2.074,0.403l0.037,2.111L6.277-5.7
				l-0.69,1.998L6.915-2.06z M-3.719-5.777c-2.053,0-3.718,1.663-3.718,3.716s1.665,3.716,3.718,3.716
				c2.051,0,3.716-1.664,3.716-3.716S-1.668-5.777-3.719-5.777z"/>
			<path opacity="0.1" fill="#221F1F" enable-background="new    " d="M14.354,10.524l-1.405,1.31l0.368,1.881l-1.905,0.233
				l-0.808,1.743l-1.679-0.936l-1.679,0.936l-0.808-1.743l-1.906-0.231l0.366-1.883l-1.403-1.309l1.403-1.309L4.532,7.334
				l1.906-0.231L7.247,5.36l1.679,0.935l1.679-0.935l0.808,1.742l1.905,0.231l-0.368,1.884L14.354,10.524z"/>
			<g>
				<g opacity="0.3">
					<path d="M7.295-9.425L6.5-8.443l0.415,1.195L5.831-6.599L5.805-5.335l-1.239,0.24l-0.452,1.18L2.868-4.111l-0.83,0.954
						L0.933-3.771l-1.107,0.614L-1-4.111l-1.25,0.196l-0.451-1.18l-1.241-0.24l-0.024-1.264L-5.05-7.248l0.412-1.194l-0.794-0.982
						l0.794-0.983l-0.412-1.196l1.083-0.647l0.022-1.264l1.242-0.24l0.45-1.18l1.248,0.195l0.828-0.952l1.107,0.613l1.105-0.613
						l0.829,0.952l1.248-0.196l0.449,1.181l1.242,0.24l0.023,1.264l1.085,0.647l-0.415,1.196L7.295-9.425z M0.933-11.458
						c-1.122,0-2.034,0.91-2.034,2.031c0,1.123,0.911,2.032,2.034,2.032c1.12,0,2.031-0.908,2.031-2.032
						C2.963-10.547,2.053-11.458,0.933-11.458z"/>
				</g>
				<g>
					
						<linearGradient id="SVGID_2_" gradientUnits="userSpaceOnUse" x1="168.4272" y1="-16115.8027" x2="168.4272" y2="-16128.3369" gradientTransform="matrix(1 0 0 -1 -164.27 -16128.2695)">
						<stop  offset="0" style="stop-color:#000000"/>
						<stop  offset="1" style="stop-color:#4C4D4D"/>
					</linearGradient>
					<path fill="url(#SVGID_2_)" d="M10.521-6.199L9.727-5.217l0.414,1.194L9.055-3.373L9.033-2.108l-1.241,0.24L7.34-0.69
						L6.092-0.887l-0.83,0.954L4.159-0.545L3.052,0.067L2.224-0.887L0.977-0.688L0.525-1.868l-1.243-0.24L-0.74-3.373l-1.084-0.649
						l0.413-1.193l-0.796-0.983l0.796-0.983l-0.413-1.193l1.083-0.65l0.021-1.264l1.244-0.241l0.45-1.179l1.248,0.196l0.829-0.953
						l1.105,0.614l1.105-0.614l0.828,0.954l1.248-0.198l0.45,1.18l1.242,0.241l0.022,1.264l1.086,0.65L9.726-7.183L10.521-6.199z
						 M4.158-8.231c-1.119,0-2.032,0.909-2.032,2.03c0,1.123,0.912,2.033,2.032,2.033c1.122,0,2.033-0.91,2.033-2.033
						C6.19-7.321,5.28-8.231,4.158-8.231z"/>
				</g>
			</g>
		</g>
	</symbol>
	<symbol  id="icon_alert" viewBox="-11.263 -10.353 22.525 20.707">
		<g id="alert_22_">
			<g id="alert_24_">
				<polygon fill="#333333" points="-0.589,3.779 1.294,3.779 1.294,-4.021 -0.589,-4.021 				"/>
				<polygon fill="#333333" points="-0.589,-5.139 1.294,-5.139 1.294,-7.365 -0.589,-7.365 				"/>
				<path fill="#333333" d="M7.71-10.354H-6.824c-1.546,0-2.772,0.619-3.364,1.699c-0.564,1.027-0.476,2.299,0.25,3.574
					l7.416,12.666c0.75,1.324,1.807,2.061,2.965,2.061c1.156,0,2.211-0.734,2.974-2.068L10.603-5.08
					c0.76-1.336,0.867-2.643,0.305-3.67C10.343-9.783,9.207-10.352,7.71-10.354z M0.442,8.051c-0.592,0-1.18-0.457-1.649-1.285
					L-8.622-5.902c-0.429-0.752-0.514-1.453-0.234-1.963c0.312-0.568,1.053-0.893,2.032-0.893H7.709
					c0.909,0,1.588,0.291,1.862,0.797C9.849-7.459,9.742-6.703,9.28-5.895L2.095,6.766C1.622,7.594,1.037,8.051,0.442,8.051z"/>
			</g>
			<g id="alert_23_">
				<polygon fill="#FFFFFF" points="-1.296,4.486 0.588,4.486 0.588,-3.314 -1.296,-3.314 				"/>
				<polygon fill="#FFFFFF" points="-1.296,-4.432 0.588,-4.432 0.588,-6.658 -1.296,-6.658 				"/>
				<path fill="#FFFFFF" d="M7.003-9.646H-7.53c-1.547,0-2.773,0.619-3.365,1.699c-0.564,1.027-0.476,2.299,0.25,3.574l7.416,12.666
					c0.75,1.324,1.807,2.061,2.965,2.061c1.156,0,2.211-0.734,2.974-2.068L9.896-4.373c0.76-1.336,0.867-2.643,0.305-3.67
					C9.636-9.076,8.5-9.645,7.003-9.646z M-0.265,8.758c-0.592,0-1.18-0.457-1.649-1.285L-9.329-5.195
					c-0.429-0.752-0.514-1.453-0.234-1.963c0.312-0.568,1.053-0.893,2.033-0.893H7.002c0.909,0,1.588,0.291,1.863,0.795
					c0.276,0.504,0.17,1.26-0.291,2.068L1.388,7.473C0.915,8.301,0.33,8.758-0.265,8.758z"/>
			</g>
		</g>
	</symbol>
	<symbol  id="icon_clock" viewBox="-11.356 -10.184 22.711 20.367">
		<g id="clock_24_">
			<path fill="#333333" d="M-8.534,4.091c-0.938,0.91-0.858,2.253-0.305,3.054c0.723,1.047,2.056,1.179,3.569,0.354
				c0.343-0.185,0.766-0.051,0.945,0.304c0.18,0.353,0.048,0.791-0.293,0.977c-2.581,1.405-4.502,0.449-5.361-0.796
				c-1.054-1.528-0.846-3.654,0.485-4.947c0.136-0.131,0.307-0.195,0.479-0.195c0.188,0,0.373,0.077,0.511,0.228
				C-8.24,3.36-8.253,3.817-8.534,4.091z"/>
			<path fill="#333333" d="M10.684,7.983c-0.856,1.245-2.776,2.201-5.36,0.795C4.98,8.593,4.85,8.154,5.03,7.802
				s0.601-0.489,0.944-0.303c1.515,0.823,2.849,0.691,3.57-0.354c0.551-0.8,0.633-2.143-0.305-3.053
				C8.959,3.817,8.944,3.36,9.209,3.069c0.137-0.15,0.322-0.228,0.51-0.228c0.172,0,0.346,0.062,0.48,0.195
				C11.53,4.328,11.739,6.455,10.684,7.983z"/>
			<polygon fill="#333333" points="1.293,3.794 -0.678,3.794 -0.678,-1.723 2.484,-5.378 3.879,-3.934 1.293,-0.879 			"/>
			<path fill="#333333" d="M-9.809-10.184h2.157l2.472,2.41c1.541-1.064,3.453-1.703,5.531-1.703c2.079,0,3.991,0.639,5.531,1.703
				l2.468-2.41h2.155L7.054-6.81c1.527,1.491,2.471,3.484,2.471,5.678c0,4.604-4.114,8.35-9.173,8.35
				c-5.058,0-9.173-3.745-9.173-8.35c0-2.192,0.942-4.187,2.471-5.678L-9.809-10.184z M-7.253-1.132
				c0,3.808,3.412,6.903,7.605,6.903c4.194,0,7.605-3.096,7.605-6.903c0-3.805-3.411-6.897-7.605-6.897
				C-3.841-8.029-7.253-4.937-7.253-1.132z"/>
		</g>
		<g id="clock_23_">
			<path fill="#FFFFFF" d="M-9.241,4.798c-0.938,0.91-0.858,2.253-0.305,3.054C-8.823,8.898-7.49,9.03-5.977,8.206
				c0.343-0.185,0.766-0.051,0.945,0.304c0.18,0.353,0.048,0.791-0.293,0.977c-2.582,1.406-4.503,0.45-5.361-0.795
				c-1.054-1.529-0.846-3.655,0.485-4.948c0.136-0.131,0.307-0.195,0.479-0.195c0.188,0,0.373,0.076,0.511,0.228
				C-8.947,4.067-8.96,4.524-9.241,4.798z"/>
			<path fill="#FFFFFF" d="M9.977,8.69C9.12,9.936,7.2,10.892,4.616,9.485C4.273,9.3,4.143,8.861,4.323,8.509
				C4.505,8.155,4.925,8.02,5.268,8.205c1.515,0.823,2.849,0.691,3.57-0.354c0.551-0.8,0.633-2.144-0.305-3.053
				C8.252,4.523,8.237,4.066,8.502,3.775c0.137-0.151,0.322-0.228,0.51-0.228c0.172,0,0.346,0.062,0.48,0.195
				C10.823,5.035,11.032,7.162,9.977,8.69z"/>
			<polygon fill="#FFFFFF" points="0.586,4.501 -1.385,4.501 -1.385,-1.016 1.777,-4.671 3.172,-3.227 0.586,-0.172 			"/>
			<path fill="#FFFFFF" d="M-10.516-9.477h2.157l2.473,2.41c1.541-1.064,3.452-1.703,5.53-1.703c2.079,0,3.991,0.639,5.531,1.703
				l2.468-2.41h2.155L6.347-6.103c1.527,1.491,2.471,3.484,2.471,5.678c0,4.604-4.114,8.35-9.173,8.35
				c-5.058,0-9.173-3.745-9.173-8.35c0-2.192,0.942-4.187,2.471-5.678L-10.516-9.477z M-7.96-0.425c0,3.808,3.412,6.903,7.605,6.903
				c4.194,0,7.605-3.096,7.605-6.903c0-3.805-3.411-6.897-7.605-6.897C-4.548-7.322-7.96-4.229-7.96-0.425z"/>
		</g>
	</symbol>
	<symbol  id="icon_lock" viewBox="-10.328 -10.369 20.656 20.737">
		<g id="antifurto_16_">
			<path fill="#333333" d="M10.328-10.369H-9.621V3.398h4.007v1.87c0,4.395,4.472,4.395,5.938,4.395c1.469,0,5.939,0,5.939-4.395
				v-1.87h4.064V-10.369L10.328-10.369z M-8.121-8.869h16.95V1.898h-16.95V-8.869z M-4.114,3.398h8.879v1.87
				c0,2.055-1.286,2.895-4.438,2.895c-3.153,0-4.439-0.839-4.439-2.895L-4.114,3.398L-4.114,3.398z"/>
			<path fill="#333333" d="M-0.811-3.554V-6.86h2.224v3.306c0.661,0.352,1.11,0.993,1.11,1.739c0,1.114-0.994,2.017-2.223,2.017
				S-1.922-0.7-1.922-1.815C-1.922-2.561-1.473-3.204-0.811-3.554z"/>
		</g>
		<g id="antifurto_15_">
			<path fill="#FFFFFF" d="M9.622-9.662h-19.95V4.105h4.007v1.87c0,4.394,4.472,4.394,5.938,4.394c1.469,0,5.939,0,5.939-4.394
				v-1.87h4.064L9.622-9.662L9.622-9.662z M-8.828-8.162h16.95V2.605h-16.95V-8.162z M-4.821,4.105h8.879v1.87
				c0,2.055-1.286,2.894-4.438,2.894c-3.153,0-4.439-0.838-4.439-2.894L-4.821,4.105L-4.821,4.105z"/>
			<path fill="#FFFFFF" d="M-1.518-2.847v-3.306h2.224v3.306c0.661,0.352,1.11,0.993,1.11,1.739c0,1.114-0.994,2.017-2.223,2.017
				s-2.223-0.901-2.223-2.017C-2.629-1.854-2.18-2.497-1.518-2.847z"/>
		</g>
	</symbol>
	<symbol  id="item_x5F_bg" viewBox="0 -50.438 220.938 50.438">
		<g id="bg_4_">
			
				<linearGradient id="gradient_base_200_" gradientUnits="userSpaceOnUse" x1="219.9717" y1="-451.873" x2="205.0286" y2="-367.1266" gradientTransform="matrix(1 0 0 1 -106.5 384.5)">
				<stop  offset="0" style="stop-color:#CCCCCC"/>
				<stop  offset="0.1496" style="stop-color:#DADADA"/>
				<stop  offset="0.4388" style="stop-color:#EEEEEE"/>
				<stop  offset="0.7244" style="stop-color:#FBFBFB"/>
				<stop  offset="1" style="stop-color:#FFFFFF"/>
			</linearGradient>
			<polygon id="gradient_base_4_" fill="url(#gradient_base_200_)" points="0,0 212,0 212,-50 0,-50 			"/>
		</g>
		
			<linearGradient id="SVGID_3_" gradientUnits="userSpaceOnUse" x1="16008.291" y1="2539.3594" x2="16008.291" y2="2530.4795" gradientTransform="matrix(0 1 -1 0 2751.4172 -16033.7285)">
			<stop  offset="0" style="stop-color:#4B4A4B"/>
			<stop  offset="1" style="stop-color:#4B4A4B;stop-opacity:0"/>
		</linearGradient>
		<polygon fill="url(#SVGID_3_)" points="220.938,-0.438 220.938,-50.438 212.058,-50.438 212.058,-0.438 		"/>
	</symbol>
	<symbol  id="item_x5F_label" viewBox="-83.858 -8.698 167.717 17.395">
		<g>
			<polygon fill="none" points="83.858,-8.698 -83.858,-8.698 -83.858,6.98 83.858,6.98 			"/>
			<text transform="matrix(1 0 0 -1 -83.8579 -2.6211)"><tspan x="0" y="0" fill="#5B5B5B" font-family="'MyriadPro-Semibold'" font-size="13.5224">lampada salot</tspan><tspan x="82.471" y="0" fill="#5B5B5B" font-family="'MyriadPro-Semibold'" font-size="13.5224">t</tspan><tspan x="87.136" y="0" fill="#5B5B5B" font-family="'MyriadPro-Semibold'" font-size="13.5224">o</tspan></text>
		</g>
	</symbol>
	<symbol  id="logo" viewBox="-38.712 -8.123 77.424 16.246">
		<path fill="#F26F21" d="M-25.438,1.735c0,1.208-0.964,2.171-2.173,2.171l-5.715,0.001v3.96h-5.387V-8.123h11.126
			c1.208,0,2.156,0.873,2.156,2.082L-25.438,1.735 M-30.6-4.455h-2.61l0.017,5.104h2.594V-4.455L-30.6-4.455z"/>
		<polyline fill="#FFFFFF" points="-15.826,4.234 -10.51,4.234 -10.51,-7.914 -15.826,-7.914 -15.826,4.234 		"/>
		<polyline fill="#FFFFFF" points="4.861,4.234 10.178,4.234 10.178,-7.914 4.861,-7.914 4.861,4.234 		"/>
		<path fill="#FFFFFF" d="M24.479,2.171c0,1.355-0.896,2.062-2.25,2.062H11.414V-7.914h5.168V0.63h2.646v-8.543l5.248,0.01V2.171"/>
		<path fill="#FFFFFF" d="M-21.991-7.906c-1.208,0-2.188,0.965-2.188,2.174l0.004,13.855h5.154V4.234h2.254V0.63h-2.24v-5.094h2.264
			v-3.449L-21.991-7.906"/>
		<path fill="#FFFFFF" d="M1.469-7.914L-7.43-7.906c-1.209,0-2.002,0.966-2.002,2.175l-0.012,7.964
			c0.188,1.343,1.448,2.132,2.779,2.005h7.877c1.355,0,2.455-0.688,2.455-2.044v-3.292H-1.52v1.753h-2.711v-5.111h2.711v1.799h5.188
			L3.664-5.731C3.664-6.941,2.676-7.914,1.469-7.914"/>
		<path fill="#FFFFFF" d="M38.7,2.006c0,1.208-0.961,2.17-2.17,2.17h-8.853c-1.209,0-2.207-0.997-2.207-2.206l0.016-7.776
			c0-1.209,0.961-2.172,2.17-2.172h8.851c1.209,0,2.205,0.997,2.205,2.205L38.7,2.006z M33.437-4.402h-2.688v5h2.688V-4.402z"/>
	</symbol>
</defs>
<rect x="4.438" y="2.326" fill="none" width="5.4" height="10"/>
<text transform="matrix(1 0 0 1 5.332 11.1143)" fill="#5A5A5A" font-family="'Times-Bold'" font-size="13">i</text>
<path fill="#5A5A5A" d="M7.438,14.875C3.337,14.875,0,11.538,0,7.438S3.337,0,7.438,0s7.438,3.337,7.438,7.438
	S11.538,14.875,7.438,14.875z M7.438,0.875c-3.618,0-6.562,2.944-6.562,6.562S3.819,14,7.438,14S14,11.056,14,7.438
	S11.056,0.875,7.438,0.875z"/>
</svg>
