<?xml version="1.0" encoding="utf-8"?>
<!-- Generator: Adobe Illustrator 15.0.2, SVG Export Plug-In  -->
<!DOCTYPE svg PUBLIC "-//W3C//DTD SVG 1.1//EN" "http://www.w3.org/Graphics/SVG/1.1/DTD/svg11.dtd" [
	<!ENTITY ns_flows "http://ns.adobe.com/Flows/1.0/">
]>
<svg version="1.1"
	 xmlns="http://www.w3.org/2000/svg" xmlns:xlink="http://www.w3.org/1999/xlink" xmlns:a="http://ns.adobe.com/AdobeSVGViewerExtensions/3.0/"
	 x="0px" y="0px" width="26px" height="26px" viewBox="0 0 26 26" overflow="visible" enable-background="new 0 0 26 26"
	 xml:space="preserve">
<defs>
</defs>
<path fill="#FFFFFF" d="M10.799,18.409c0.337-0.058,0.568-0.142,0.693-0.254c0.188-0.169,0.281-0.472,0.281-0.909v-5.644
	c0-0.391-0.065-0.657-0.197-0.799c-0.132-0.142-0.391-0.247-0.778-0.316v-0.46h3.685v7.293c0,0.42,0.062,0.688,0.188,0.808
	c0.125,0.118,0.359,0.212,0.703,0.281v0.459h-4.574V18.409z M12.078,6.038c0.291-0.29,0.643-0.436,1.055-0.436
	c0.406,0,0.756,0.146,1.045,0.436c0.291,0.291,0.438,0.643,0.438,1.055c0,0.413-0.146,0.765-0.438,1.055
	c-0.289,0.291-0.639,0.437-1.045,0.437c-0.412,0-0.764-0.146-1.055-0.437c-0.291-0.29-0.436-0.642-0.436-1.055
	C11.643,6.681,11.788,6.329,12.078,6.038z"/>
<path d="M10.314,17.695c0.337-0.057,0.568-0.141,0.693-0.254c0.188-0.168,0.281-0.472,0.281-0.908v-5.645
	c0-0.391-0.065-0.657-0.197-0.799c-0.132-0.142-0.391-0.247-0.778-0.316v-0.46h3.684v7.294c0,0.42,0.062,0.688,0.188,0.807
	c0.125,0.119,0.358,0.213,0.703,0.281v0.459h-4.575V17.695z M11.594,5.324c0.291-0.29,0.643-0.436,1.055-0.436
	c0.406,0,0.755,0.146,1.044,0.436c0.291,0.291,0.438,0.643,0.438,1.055c0,0.413-0.146,0.765-0.438,1.055
	c-0.29,0.291-0.638,0.437-1.044,0.437c-0.412,0-0.764-0.146-1.055-0.437c-0.291-0.29-0.436-0.642-0.436-1.055
	C11.158,5.967,11.303,5.615,11.594,5.324z"/>
<path fill="#FFFFFF" d="M13.777,25.777c-6.617,0-12-5.383-12-12s5.383-12,12-12s12,5.383,12,12S20.395,25.777,13.777,25.777z
	 M13.777,3.555c-5.636,0-10.222,4.586-10.222,10.222C3.555,19.414,8.141,24,13.777,24C19.414,24,24,19.414,24,13.777
	C24,8.141,19.414,3.555,13.777,3.555z"/>
<path d="M12,24C5.383,24,0,18.617,0,12S5.383,0,12,0c6.618,0,12,5.383,12,12S18.617,24,12,24z M12,1.777
	C6.363,1.777,1.777,6.363,1.777,12c0,5.637,4.586,10.223,10.222,10.223c5.638,0,10.224-4.586,10.224-10.223
	C22.223,6.363,17.637,1.777,12,1.777z"/>
</svg>
