<?xml version="1.0" encoding="utf-8"?>
<!-- Generator: Adobe Illustrator 15.0.2, SVG Export Plug-In . SVG Version: 6.00 Build 0)  -->
<!DOCTYPE svg PUBLIC "-//W3C//DTD SVG 1.1//EN" "http://www.w3.org/Graphics/SVG/1.1/DTD/svg11.dtd" [
	<!ENTITY ns_extend "http://ns.adobe.com/Extensibility/1.0/">
	<!ENTITY ns_ai "http://ns.adobe.com/AdobeIllustrator/10.0/">
	<!ENTITY ns_graphs "http://ns.adobe.com/Graphs/1.0/">
	<!ENTITY ns_vars "http://ns.adobe.com/Variables/1.0/">
	<!ENTITY ns_imrep "http://ns.adobe.com/ImageReplacement/1.0/">
	<!ENTITY ns_sfw "http://ns.adobe.com/SaveForWeb/1.0/">
	<!ENTITY ns_custom "http://ns.adobe.com/GenericCustomNamespace/1.0/">
	<!ENTITY ns_adobe_xpath "http://ns.adobe.com/XPath/1.0/">
]>
<svg version="1.1" id="Layer_1" xmlns:x="&ns_extend;" xmlns:i="&ns_ai;" xmlns:graph="&ns_graphs;"
	 xmlns="http://www.w3.org/2000/svg" xmlns:xlink="http://www.w3.org/1999/xlink" x="0px" y="0px" width="25.777px"
	 height="25.777px" viewBox="10.111 6.111 25.777 25.777" enable-background="new 10.111 6.111 25.777 25.777" xml:space="preserve"
	>
<metadata>
	<sfw  xmlns="&ns_sfw;">
		<slices></slices>
		<sliceSourceBounds  height="25.777" width="25.777" y="373.111" x="499.111" bottomLeftOrigin="true"></sliceSourceBounds>
	</sfw>
</metadata>
<g>
	<g enable-background="new    ">
		<path fill="#010101" d="M20.91,24.521c0.337-0.057,0.568-0.141,0.693-0.254c0.188-0.168,0.281-0.472,0.281-0.909v-5.644
			c0-0.391-0.065-0.657-0.197-0.799s-0.391-0.247-0.778-0.316v-0.46h3.684v7.294c0,0.419,0.062,0.688,0.188,0.807
			c0.125,0.118,0.359,0.212,0.703,0.281v0.459H20.91V24.521z M22.189,12.149c0.291-0.29,0.643-0.436,1.055-0.436
			c0.406,0,0.755,0.146,1.045,0.436c0.291,0.291,0.437,0.643,0.437,1.055c0,0.413-0.146,0.765-0.437,1.055
			c-0.29,0.291-0.639,0.437-1.045,0.437c-0.412,0-0.764-0.146-1.055-0.437c-0.291-0.29-0.436-0.642-0.436-1.055
			C21.754,12.792,21.899,12.44,22.189,12.149z"/>
	</g>
	<g enable-background="new    ">
		<path fill="#FFFFFF" d="M20.426,23.807c0.337-0.057,0.568-0.141,0.693-0.254c0.188-0.168,0.281-0.471,0.281-0.908V17
			c0-0.391-0.065-0.657-0.197-0.799s-0.391-0.247-0.778-0.316v-0.46h3.684v7.294c0,0.42,0.062,0.688,0.188,0.807
			s0.359,0.213,0.703,0.281v0.459h-4.574V23.807z M21.705,11.436C21.996,11.146,22.348,11,22.76,11c0.406,0,0.755,0.146,1.045,0.436
			c0.291,0.291,0.437,0.643,0.437,1.055c0,0.413-0.146,0.765-0.437,1.055c-0.29,0.291-0.639,0.437-1.045,0.437
			c-0.412,0-0.764-0.146-1.055-0.437c-0.291-0.29-0.436-0.642-0.436-1.055C21.27,12.078,21.415,11.727,21.705,11.436z"/>
	</g>
	<path fill="#010101" d="M23.889,31.889c-6.617,0-12-5.383-12-12c0-6.617,5.383-12,12-12c6.617,0,12,5.383,12,12
		C35.889,26.506,30.506,31.889,23.889,31.889z M23.889,9.667c-5.636,0-10.222,4.586-10.222,10.223
		c0,5.636,4.586,10.222,10.222,10.222c5.637,0,10.223-4.586,10.223-10.222C34.111,14.252,29.525,9.667,23.889,9.667z"/>
	<path fill="#FFFFFF" d="M22.111,30.111c-6.617,0-12-5.383-12-12c0-6.617,5.383-12,12-12c6.618,0,12,5.383,12,12
		C34.111,24.729,28.729,30.111,22.111,30.111z M22.111,7.889c-5.636,0-10.222,4.586-10.222,10.222
		c0,5.637,4.586,10.223,10.222,10.223c5.637,0,10.223-4.586,10.223-10.223C32.334,12.475,27.748,7.889,22.111,7.889z"/>
</g>
</svg>
