<?xml version="1.0" encoding="utf-8"?>
<!-- Generator: Adobe Illustrator 14.0.0, SVG Export Plug-In . SVG Version: 6.00 Build 43363)  -->
<!DOCTYPE svg PUBLIC "-//W3C//DTD SVG 1.1//EN" "http://www.w3.org/Graphics/SVG/1.1/DTD/svg11.dtd">
<svg version="1.1" id="Layer_1" xmlns="http://www.w3.org/2000/svg" xmlns:xlink="http://www.w3.org/1999/xlink" x="0px" y="0px"
	 width="51px" height="49px" viewBox="0 0 51 49" enable-background="new 0 0 51 49" xml:space="preserve">
<g id="antifurto_6_">
	<path fill="#434343" d="M31,21.01v-2.514C31,14.584,28.027,14,25.975,14C23.92,14,21,14.584,21,18.496v2.514L17,21v13h18V21
		L31,21.01z M22,18.496c0-3.1,1.879-3.497,3.975-3.497c2.094,0,4.025,0.397,4.025,3.497v2.514h-8V18.496z M34,33H18V22h16V33z"/>
	<path fill="#434343" d="M25,27.723V31h2v-3.277c0.596-0.347,1-0.984,1-1.723c0-1.104-0.896-2-2-2s-2,0.896-2,2
		C24,26.738,24.404,27.376,25,27.723z"/>
</g>
</svg>
