<?xml version="1.0" encoding="utf-8"?>
<!-- Generator: Adobe Illustrator 15.0.0, SVG Export Plug-In . SVG Version: 6.00 Build 0)  -->
<!DOCTYPE svg PUBLIC "-//W3C//DTD SVG 1.1//EN" "http://www.w3.org/Graphics/SVG/1.1/DTD/svg11.dtd">
<svg version="1.1" id="Layer_1" xmlns="http://www.w3.org/2000/svg" xmlns:xlink="http://www.w3.org/1999/xlink" x="0px" y="0px"
	 width="25px" height="25px" viewBox="0 0 25 25" enable-background="new 0 0 25 25" xml:space="preserve">
<g id="antifurto_1_">
	<path fill="#323232" d="M23.182,23.385H3.232V9.618h4.007v-1.87c0-4.394,4.471-4.394,5.939-4.394c1.469,0,5.939,0,5.939,4.394v1.87
		h4.064V23.385z M4.732,21.885h16.95V11.118H4.732V21.885z M8.739,9.618h8.878v-1.87c0-2.055-1.285-2.894-4.439-2.894
		c-3.153,0-4.439,0.838-4.439,2.894V9.618z"/>
	<path fill="#323232" d="M12.042,16.57v3.306h2.223V16.57c0.662-0.351,1.109-0.993,1.109-1.739c0-1.114-0.994-2.017-2.221-2.017
		c-1.228,0-2.223,0.902-2.223,2.017C10.931,15.577,11.38,16.22,12.042,16.57z"/>
</g>
<g id="antifurto_2_">
	<path fill="#FFFFFF" d="M22.475,22.678H2.525V8.911h4.007v-1.87c0-4.394,4.471-4.394,5.939-4.394c1.468,0,5.939,0,5.939,4.394v1.87
		h4.064V22.678z M4.025,21.178h16.95V10.411H4.025V21.178z M8.032,8.911h8.878v-1.87c0-2.055-1.285-2.894-4.439-2.894
		c-3.153,0-4.439,0.838-4.439,2.894V8.911z"/>
	<path fill="#FFFFFF" d="M11.335,15.863v3.306h2.223v-3.306c0.662-0.351,1.109-0.993,1.109-1.739c0-1.114-0.994-2.017-2.221-2.017
		c-1.228,0-2.223,0.902-2.223,2.017C10.224,14.87,10.673,15.513,11.335,15.863z"/>
</g>
</svg>
