<?xml version="1.0" encoding="utf-8"?>
<!-- Generator: Adobe Illustrator 15.0.2, SVG Export Plug-In  -->
<!DOCTYPE svg PUBLIC "-//W3C//DTD SVG 1.1//EN" "http://www.w3.org/Graphics/SVG/1.1/DTD/svg11.dtd" [
	<!ENTITY ns_flows "http://ns.adobe.com/Flows/1.0/">
]>
<svg version="1.1"
	 xmlns="http://www.w3.org/2000/svg" xmlns:xlink="http://www.w3.org/1999/xlink" xmlns:a="http://ns.adobe.com/AdobeSVGViewerExtensions/3.0/"
	 x="0px" y="0px" width="24px" height="17px" viewBox="0 0 24 17" overflow="visible" enable-background="new 0 0 24 17"
	 xml:space="preserve">
<defs>
</defs>
<path fill="#FFFFFF" d="M24.208,7.218C24.208,3.172,18.893,0,12.104,0C5.316,0,0,3.172,0,7.218c0,3.285,2.455,6.876,9.318,7.192
	c1.661,1.52,5.446,3.061,7.604,3.061h0.004l2.231-0.004l-1.884-1.195c-0.725-0.461-1.252-1.328-1.616-2.148
	C20.732,13.21,24.208,10.439,24.208,7.218z M14.666,12.961l-0.792,0.107l0.267,0.755c0.282,0.798,0.611,1.481,0.985,2.052
	c-1.872-0.51-4.13-1.6-5.069-2.561l-0.182-0.187l-0.261-0.01c-5.128-0.175-8.905-2.437-8.905-5.901
	c0-3.206,5.539-5.916,11.396-5.916c5.855,0,10.802,2.71,10.802,5.916C22.906,9.896,19.441,12.312,14.666,12.961z"/>
<rect x="5.709" y="4.881" fill="#FFFFFF" width="13" height="1"/>
<polygon fill="#FFFFFF" points="5.758,6.881 5.709,7.881 15.709,7.881 15.709,6.881 "/>
<rect x="5.709" y="8.881" fill="#FFFFFF" width="12" height="1"/>
</svg>
