<?xml version="1.0" encoding="utf-8"?>
<!-- Generator: Adobe Illustrator 15.0.2, SVG Export Plug-In  -->
<!DOCTYPE svg PUBLIC "-//W3C//DTD SVG 1.1//EN" "http://www.w3.org/Graphics/SVG/1.1/DTD/svg11.dtd" [
	<!ENTITY ns_flows "http://ns.adobe.com/Flows/1.0/">
]>
<svg version="1.1"
	 xmlns="http://www.w3.org/2000/svg" xmlns:xlink="http://www.w3.org/1999/xlink" xmlns:a="http://ns.adobe.com/AdobeSVGViewerExtensions/3.0/"
	 x="0px" y="0px" width="20px" height="23px" viewBox="0 0 20 23" overflow="visible" enable-background="new 0 0 20 23"
	 xml:space="preserve">
<defs>
</defs>
<path fill="#FFFFFF" d="M11.056,22.713c-1.176,0-2.396-0.573-3.494-1.673l1.049-1.049c1.104,1.104,2.25,1.485,3.24,1.078
	c0.988-0.41,1.652-1.561,1.652-2.864c0-1.623,1.035-2.709,2.037-3.759c1.27-1.331,2.583-2.708,2.583-5.48
	c0-5.134-3.748-6.956-6.958-6.956c-3.453,0-6.321,3.535-6.35,3.571l-1.16-0.928c0.136-0.168,3.352-4.128,7.51-4.128
	c4.202,0,8.442,2.609,8.442,8.44c0,3.366-1.66,5.106-2.993,6.505c-0.909,0.953-1.627,1.706-1.627,2.734
	c0,1.896-1.032,3.6-2.568,4.235C11.979,22.623,11.521,22.713,11.056,22.713z"/>
<path fill="#FFFFFF" d="M16.034,10.508l-1.328-0.663c0.006-0.014,0.665-1.355,0.665-2.639c0-1.834-1.927-2.97-3.712-2.97
	c-1.887,0-3.91,1.99-3.93,2.01L6.681,5.195c0.1-0.1,2.474-2.443,4.979-2.443c2.499,0,5.196,1.703,5.196,4.454
	C16.855,8.846,16.067,10.44,16.034,10.508z"/>
<rect x="18.34" y="0.218" transform="matrix(0.7064 0.7078 -0.7078 0.7064 6.4988 -13.1338)" fill="#FFFFFF" width="1.485" height="2.1"/>
<rect x="3.866" y="9.968" transform="matrix(0.7071 0.7071 -0.7071 0.7071 12.4809 1.3528)" fill="#FFFFFF" width="1.483" height="11.548"/>
</svg>
