<?xml version="1.0" encoding="utf-8"?>
<!-- Generator: Adobe Illustrator 15.0.2, SVG Export Plug-In  -->
<!DOCTYPE svg PUBLIC "-//W3C//DTD SVG 1.1//EN" "http://www.w3.org/Graphics/SVG/1.1/DTD/svg11.dtd" [
	<!ENTITY ns_flows "http://ns.adobe.com/Flows/1.0/">
]>
<svg version="1.1"
	 xmlns="http://www.w3.org/2000/svg" xmlns:xlink="http://www.w3.org/1999/xlink" xmlns:a="http://ns.adobe.com/AdobeSVGViewerExtensions/3.0/"
	 x="0px" y="0px" width="20px" height="17px" viewBox="0 0 20 17" overflow="visible" enable-background="new 0 0 20 17"
	 xml:space="preserve">
<defs>
</defs>
<path fill="#FFFFFF" d="M8.366,0.946h-0.18L3.643,4.71H1.156C0.497,4.71,0,5.18,0,5.804v5.529c0,0.423,0.187,0.928,1.073,0.928h2.5
	l4.608,3.933h0.185c0.59,0,1.07-0.549,1.061-1.127c0.899-4.472,0.902-8.83,0.009-12.955C9.408,1.464,8.938,0.946,8.366,0.946z
	 M8.437,14.967c0,0.044-0.007,0.083-0.017,0.115l-4.478-3.821H1.073c-0.028,0-0.053,0-0.073-0.001V5.804
	C1,5.719,1.109,5.71,1.156,5.71h2.847l4.416-3.658C8.43,2.085,8.437,2.125,8.437,2.171l0.012,0.107
	C9.322,6.281,9.322,10.518,8.437,14.967z"/>
<path fill="#FFFFFF" d="M12.646,4.368l-0.707,0.707c1.771,1.771,1.771,5.383,0,7.155l0.707,0.707
	C14.809,10.773,14.809,6.53,12.646,4.368z"/>
<path fill="#FFFFFF" d="M14.121,1.748l-0.707,0.707c3.068,3.07,3.068,9.326,0,12.396l0.707,0.707
	C17.605,12.073,17.605,5.232,14.121,1.748z"/>
<path fill="#FFFFFF" d="M16.742,0l-0.707,0.707c3.934,3.936,3.934,11.957,0,15.893l0.707,0.707C21.107,12.939,21.107,4.367,16.742,0
	z"/>
</svg>
