<?xml version="1.0" encoding="utf-8"?>
<!-- Generator: Adobe Illustrator 15.0.0, SVG Export Plug-In . SVG Version: 6.00 Build 0)  -->
<!DOCTYPE svg PUBLIC "-//W3C//DTD SVG 1.1//EN" "http://www.w3.org/Graphics/SVG/1.1/DTD/svg11.dtd">
<svg version="1.1" id="Layer_1" xmlns="http://www.w3.org/2000/svg" xmlns:xlink="http://www.w3.org/1999/xlink" x="0px" y="0px"
	 width="32px" height="25px" viewBox="0 0 32 25" enable-background="new 0 0 32 25" xml:space="preserve">
<g id="alert_1_">
	<rect x="15.765" y="9.195" fill="#333333" width="1.883" height="7.802"/>
	<rect x="15.765" y="18.113" fill="#333333" width="1.883" height="2.228"/>
	<path fill="#333333" d="M24.064,23.329H9.53c-1.546,0-2.773-0.619-3.365-1.699c-0.564-1.028-0.475-2.299,0.251-3.574L13.832,5.39
		c0.75-1.325,1.806-2.061,2.965-2.061c1.156,0,2.211,0.734,2.973,2.068l7.186,12.659c0.761,1.336,0.867,2.641,0.305,3.67
		C26.697,22.758,25.561,23.327,24.064,23.329z M16.797,4.924c-0.593,0-1.181,0.457-1.65,1.286L7.732,18.878
		c-0.429,0.752-0.514,1.453-0.234,1.962c0.311,0.568,1.052,0.893,2.032,0.893h14.533c0.909-0.001,1.588-0.292,1.863-0.796
		c0.277-0.503,0.17-1.258-0.291-2.068L18.449,6.209C17.976,5.381,17.391,4.924,16.797,4.924z"/>
</g>
<g id="alert_2_">
	<rect x="15.058" y="8.488" fill="#FFFFFF" width="1.884" height="7.802"/>
	<rect x="15.058" y="17.406" fill="#FFFFFF" width="1.884" height="2.228"/>
	<path fill="#FFFFFF" d="M23.357,22.622H8.823c-1.546,0-2.773-0.619-3.365-1.699c-0.564-1.028-0.475-2.299,0.251-3.574l7.416-12.666
		c0.75-1.325,1.806-2.061,2.965-2.061c1.156,0,2.211,0.734,2.973,2.068l7.186,12.659c0.761,1.336,0.867,2.641,0.305,3.67
		C25.99,22.051,24.854,22.62,23.357,22.622z M16.09,4.217c-0.593,0-1.181,0.457-1.65,1.286L7.025,18.171
		c-0.429,0.752-0.514,1.453-0.234,1.962c0.311,0.568,1.052,0.893,2.032,0.893h14.533c0.909-0.001,1.588-0.292,1.863-0.796
		c0.277-0.503,0.17-1.258-0.291-2.068L17.742,5.502C17.269,4.674,16.684,4.217,16.09,4.217z"/>
</g>
</svg>
