<?xml version="1.0" encoding="utf-8"?>
<!-- Generator: Adobe Illustrator 15.0.0, SVG Export Plug-In . SVG Version: 6.00 Build 0)  -->
<!DOCTYPE svg PUBLIC "-//W3C//DTD SVG 1.1//EN" "http://www.w3.org/Graphics/SVG/1.1/DTD/svg11.dtd">
<svg version="1.1" id="Layer_1" xmlns="http://www.w3.org/2000/svg" xmlns:xlink="http://www.w3.org/1999/xlink" x="0px" y="0px"
	 width="25px" height="25px" viewBox="0 0 25 25" enable-background="new 0 0 25 25" xml:space="preserve">
<g id="alert_2_">
	<rect x="12.356" y="9.195" fill="#323232" width="1.884" height="7.802"/>
	<rect x="12.356" y="18.113" fill="#323232" width="1.884" height="2.228"/>
	<path fill="#323232" d="M19.986,23.329H6.594c-1.425,0-2.555-0.619-3.1-1.699c-0.52-1.028-0.438-2.299,0.231-3.574L10.558,5.39
		c0.692-1.325,1.665-2.061,2.731-2.061c1.066,0,2.038,0.734,2.738,2.068l6.621,12.659c0.701,1.336,0.801,2.641,0.281,3.67
		C22.412,22.758,21.365,23.327,19.986,23.329z M13.289,4.924c-0.546,0-1.087,0.457-1.52,1.286L4.937,18.878
		c-0.395,0.752-0.473,1.453-0.216,1.962c0.287,0.568,0.969,0.893,1.873,0.893h13.391c0.838-0.001,1.463-0.292,1.717-0.796
		c0.254-0.503,0.156-1.258-0.268-2.068L14.812,6.209C14.375,5.381,13.836,4.924,13.289,4.924z"/>
</g>
<g id="alert_1_">
	<rect x="11.649" y="8.488" fill="#FFFFFF" width="1.884" height="7.802"/>
	<rect x="11.649" y="17.406" fill="#FFFFFF" width="1.884" height="2.228"/>
	<path fill="#FFFFFF" d="M19.279,22.622H5.887c-1.425,0-2.555-0.619-3.1-1.699c-0.52-1.028-0.438-2.299,0.231-3.574L9.851,4.683
		c0.692-1.325,1.665-2.061,2.732-2.061c1.066,0,2.038,0.734,2.738,2.068l6.621,12.659c0.701,1.336,0.801,2.641,0.281,3.67
		C21.705,22.051,20.658,22.62,19.279,22.622z M12.583,4.217c-0.547,0-1.088,0.457-1.52,1.286L4.23,18.171
		c-0.395,0.752-0.473,1.453-0.216,1.962c0.287,0.568,0.969,0.893,1.873,0.893h13.391c0.838-0.001,1.463-0.292,1.717-0.796
		c0.254-0.503,0.156-1.258-0.268-2.068L14.104,5.502C13.668,4.674,13.129,4.217,12.583,4.217z"/>
</g>
</svg>
