<?xml version="1.0" encoding="utf-8"?>
<!-- Generator: Adobe Illustrator 15.0.2, SVG Export Plug-In  -->
<!DOCTYPE svg PUBLIC "-//W3C//DTD SVG 1.1//EN" "http://www.w3.org/Graphics/SVG/1.1/DTD/svg11.dtd" [
	<!ENTITY ns_flows "http://ns.adobe.com/Flows/1.0/">
]>
<svg version="1.1"
	 xmlns="http://www.w3.org/2000/svg" xmlns:xlink="http://www.w3.org/1999/xlink" xmlns:a="http://ns.adobe.com/AdobeSVGViewerExtensions/3.0/"
	 x="0px" y="0px" width="39px" height="28px" viewBox="0 0 39 28" overflow="visible" enable-background="new 0 0 39 28"
	 xml:space="preserve">
<defs>
</defs>
<path d="M27.727,28.053H27.72c-3.317,0-9.134-2.366-11.687-4.701C5.481,22.863,1.709,17.345,1.709,12.297
	c0-6.222,8.172-11.095,18.604-11.095s18.604,4.873,18.604,11.095c0,4.95-5.342,9.208-13.142,10.609
	c0.559,1.263,1.372,2.595,2.485,3.303l2.896,1.841L27.727,28.053z M20.313,3.202c-9.001,0-16.604,4.165-16.604,9.095
	c0,5.326,4.896,8.802,12.778,9.071l0.4,0.014l0.28,0.286c1.443,1.475,4.913,3.149,7.79,3.934c-0.574-0.875-1.08-1.929-1.514-3.155
	l-0.41-1.158l1.218-0.166c7.339-0.997,12.666-4.708,12.666-8.825C36.918,7.367,29.314,3.202,20.313,3.202z"/>
<path fill="#FFFFFF" d="M26.017,26.851H26.01c-3.317,0-9.134-2.367-11.687-4.702C3.772,21.661,0,16.143,0,11.094
	C0,4.873,8.172,0,18.604,0c10.432,0,18.604,4.873,18.604,11.094c0,4.95-5.342,9.209-13.142,10.611
	c0.56,1.262,1.372,2.594,2.485,3.302l2.895,1.841L26.017,26.851z M18.604,2C9.604,2,2,6.164,2,11.094
	c0,5.327,4.896,8.803,12.777,9.071l0.4,0.014l0.28,0.286c1.443,1.476,4.913,3.15,7.79,3.935c-0.574-0.875-1.08-1.928-1.514-3.153
	l-0.41-1.159l1.218-0.166c7.339-0.998,12.666-4.71,12.666-8.827C35.208,6.164,27.604,2,18.604,2z"/>
<rect x="10" y="9.818" width="20" height="1"/>
<rect x="10" y="12.818" width="16" height="1"/>
<rect x="10" y="15.818" width="19" height="1"/>
<rect x="9" y="8.818" fill="#FFFFFF" width="20" height="1"/>
<rect x="9" y="11.818" fill="#FFFFFF" width="16" height="1"/>
<rect x="9" y="14.818" fill="#FFFFFF" width="19" height="1"/>
</svg>
