<?xml version="1.0" encoding="utf-8"?>
<!-- Generator: Adobe Illustrator 15.0.2, SVG Export Plug-In  -->
<!DOCTYPE svg PUBLIC "-//W3C//DTD SVG 1.1//EN" "http://www.w3.org/Graphics/SVG/1.1/DTD/svg11.dtd" [
	<!ENTITY ns_flows "http://ns.adobe.com/Flows/1.0/">
]>
<svg version="1.1"
	 xmlns="http://www.w3.org/2000/svg" xmlns:xlink="http://www.w3.org/1999/xlink" xmlns:a="http://ns.adobe.com/AdobeSVGViewerExtensions/3.0/"
	 x="0px" y="0px" width="32px" height="29px" viewBox="0 0 32 29" overflow="visible" enable-background="new 0 0 32 29"
	 xml:space="preserve">
<defs>
</defs>
<path d="M14.107,26.863h-0.299l-7.133-4.678l-3.837-0.873C1.868,21.234,1.1,20.32,1.1,19.209v-8.438c0-1.11,0.767-2.022,1.735-2.104
	l3.934-0.922l7.04-4.627h0.299c0.995,0,1.811,0.88,1.867,1.986c1.361,6.296,1.361,12.943,0,19.763
	C15.923,25.978,15.105,26.863,14.107,26.863z M3.117,19.325l4.354,0.989l6.52,4.276l0.007-0.033
	c1.329-6.609,1.331-13.042,0.004-19.119L13.99,5.392L7.571,9.612l-4.454,1.043C3.107,10.683,3.1,10.722,3.1,10.771v8.438
	C3.1,19.258,3.107,19.297,3.117,19.325z"/>
<path fill="#FFFFFF" d="M13.007,25.118h-0.368l-7.034-6H1.875C0.243,19.118,0,18.082,0,17.464V9.025c0-1.087,0.859-1.907,2-1.907
	h3.71l6.937-5.745h0.36c0.995,0,1.811,0.88,1.867,1.986c1.361,6.296,1.361,12.943,0,19.763
	C14.822,24.232,14.005,25.118,13.007,25.118z M2,17.118h4.341l6.573,5.606c1.308-6.558,1.308-12.941-0.002-18.975L6.431,9.118H2
	V17.118z"/>
<path d="M20.707,22.08l-1.414-1.414c2.622-2.622,2.622-7.964,0-10.586l1.414-1.414C24.092,12.051,24.092,18.695,20.707,22.08z"/>
<path d="M22.957,26.08l-1.414-1.414c4.603-4.604,4.603-13.982,0-18.586l1.414-1.414C28.36,10.069,28.36,20.677,22.957,26.08z"/>
<path d="M26.957,28.747l-1.414-1.414c5.924-5.924,5.924-17.995,0-23.919L26.957,2C33.706,8.749,33.706,21.998,26.957,28.747z"/>
<path fill="#FFFFFF" d="M19.707,20.08l-1.414-1.414c2.622-2.622,2.622-7.964,0-10.586l1.414-1.414
	C23.092,10.051,23.092,16.695,19.707,20.08z"/>
<path fill="#FFFFFF" d="M21.957,24.08l-1.414-1.414c4.603-4.604,4.603-13.982,0-18.586l1.414-1.414
	C27.36,8.069,27.36,18.677,21.957,24.08z"/>
<path fill="#FFFFFF" d="M25.957,26.747l-1.414-1.414c5.924-5.924,5.924-17.995,0-23.919L25.957,0
	C32.706,6.749,32.706,19.998,25.957,26.747z"/>
</svg>
