<?xml version="1.0" encoding="utf-8"?>
<!-- Generator: Adobe Illustrator 15.0.0, SVG Export Plug-In . SVG Version: 6.00 Build 0)  -->
<!DOCTYPE svg PUBLIC "-//W3C//DTD SVG 1.1//EN" "http://www.w3.org/Graphics/SVG/1.1/DTD/svg11.dtd">
<svg version="1.1" id="Layer_1" xmlns="http://www.w3.org/2000/svg" xmlns:xlink="http://www.w3.org/1999/xlink" x="0px" y="0px"
	 width="32px" height="25px" viewBox="0 0 32 25" enable-background="new 0 0 32 25" xml:space="preserve">
<g id="antifurto_2_">
	<path fill="#333333" d="M26.656,23.385H6.706V9.618h4.007v-1.87c0-4.394,4.471-4.394,5.939-4.394s5.939,0,5.939,4.394v1.87h4.064
		V23.385z M8.206,21.885h16.95V11.118H8.206V21.885z M12.213,9.618h8.879v-1.87c0-2.055-1.286-2.894-4.439-2.894
		s-4.439,0.838-4.439,2.894V9.618z"/>
	<path fill="#333333" d="M15.517,16.57v3.306h2.223V16.57c0.662-0.351,1.11-0.993,1.11-1.739c0-1.114-0.994-2.017-2.222-2.017
		s-2.223,0.902-2.223,2.017C14.405,15.577,14.854,16.22,15.517,16.57z"/>
</g>
<g id="antifurto_1_">
	<path fill="#FFFFFF" d="M25.949,22.678H5.999V8.911h4.007v-1.87c0-4.394,4.471-4.394,5.939-4.394s5.939,0,5.939,4.394v1.87h4.064
		V22.678z M7.499,21.178h16.95V10.411H7.499V21.178z M11.506,8.911h8.879v-1.87c0-2.055-1.286-2.894-4.439-2.894
		s-4.439,0.838-4.439,2.894V8.911z"/>
	<path fill="#FFFFFF" d="M14.81,15.863v3.306h2.223v-3.306c0.662-0.351,1.11-0.993,1.11-1.739c0-1.114-0.994-2.017-2.222-2.017
		s-2.223,0.902-2.223,2.017C13.698,14.87,14.147,15.513,14.81,15.863z"/>
</g>
</svg>
