<?xml version="1.0" encoding="utf-8"?>
<!-- Generator: Adobe Illustrator 15.0.2, SVG Export Plug-In  -->
<!DOCTYPE svg PUBLIC "-//W3C//DTD SVG 1.1//EN" "http://www.w3.org/Graphics/SVG/1.1/DTD/svg11.dtd" [
	<!ENTITY ns_flows "http://ns.adobe.com/Flows/1.0/">
]>
<svg version="1.1"
	 xmlns="http://www.w3.org/2000/svg" xmlns:xlink="http://www.w3.org/1999/xlink" xmlns:a="http://ns.adobe.com/AdobeSVGViewerExtensions/3.0/"
	 x="0px" y="0px" width="25px" height="22px" viewBox="0 0 25 22" overflow="visible" enable-background="new 0 0 25 22"
	 xml:space="preserve">
<defs>
</defs>
<rect x="8.709" y="5.621" fill="#5A5A5A" width="2" height="6"/>
<rect x="8.709" y="12.621" fill="#5A5A5A" width="2" height="2"/>
<path fill="#5A5A5A" d="M19.501,7.621l-1.612,4.295L11.808,1.569C11.202,0.542,10.401,0,9.6,0C8.801,0,8,0.5,7.393,1.526
	L0.526,13.018c-1.214,2.055-0.254,3.604,2.132,3.604h10.255l-1.729,5.004l4.499-5.004h2.935l6.176-9H19.501z M17.205,13.621h-3.195
	l-0.799,2H2.658c-0.817,0-1.423-0.051-1.662-0.469c-0.239-0.42-0.138-0.969,0.277-1.672L8.139,1.906
	C8.559,1.199,9.092,0.814,9.6,0.814c0.51,0,1.043,0.418,1.461,1.127l6.442,10.883L17.205,13.621z"/>
</svg>
