<?xml version="1.0" encoding="utf-8"?>
<!-- Generator: Adobe Illustrator 15.0.2, SVG Export Plug-In  -->
<!DOCTYPE svg PUBLIC "-//W3C//DTD SVG 1.1//EN" "http://www.w3.org/Graphics/SVG/1.1/DTD/svg11.dtd" [
	<!ENTITY ns_flows "http://ns.adobe.com/Flows/1.0/">
]>
<svg version="1.1"
	 xmlns="http://www.w3.org/2000/svg" xmlns:xlink="http://www.w3.org/1999/xlink" xmlns:a="http://ns.adobe.com/AdobeSVGViewerExtensions/3.0/"
	 x="0px" y="0px" width="27px" height="24px" viewBox="0 0 27 24" overflow="visible" enable-background="new 0 0 27 24"
	 xml:space="preserve">
<defs>
</defs>
<rect x="12.691" y="7.92" width="2.296" height="8.418"/>
<rect x="12.691" y="17.541" width="2.296" height="2.404"/>
<path d="M26.098,18.613L17.015,3.241c-0.802-1.358-1.862-2.038-2.92-2.038c-1.059,0-2.118,0.68-2.92,2.038L2.092,18.613
	c-1.605,2.718-0.337,4.941,2.819,4.941h18.367C26.435,23.553,27.703,21.33,26.098,18.613z M25.477,21.533
	c-0.316,0.555-1.119,0.873-2.198,0.873H4.912c-1.081,0-1.882-0.318-2.198-0.873c-0.317-0.555-0.183-1.406,0.367-2.338l9.082-15.371
	c0.554-0.937,1.259-1.475,1.933-1.475c0.673,0,1.378,0.537,1.932,1.475l9.082,15.371C25.66,20.127,25.792,20.979,25.477,21.533z"/>
<rect x="11.294" y="6.717" fill="#FFFFFF" width="2.296" height="8.418"/>
<rect x="11.294" y="16.338" fill="#FFFFFF" width="2.296" height="2.404"/>
<path fill="#FFFFFF" d="M24.702,17.41L15.619,2.039C14.817,0.68,13.756,0,12.699,0c-1.059,0-2.118,0.68-2.92,2.039L0.696,17.41
	c-1.605,2.719-0.337,4.941,2.819,4.941h18.367C25.039,22.351,26.306,20.127,24.702,17.41z M24.081,20.331
	c-0.316,0.554-1.119,0.872-2.198,0.872H3.515c-1.081,0-1.882-0.318-2.198-0.872C1,19.775,1.134,18.924,1.684,17.993l9.082-15.372
	c0.554-0.936,1.259-1.475,1.933-1.475c0.673,0,1.378,0.537,1.932,1.475l9.082,15.372C24.263,18.924,24.396,19.775,24.081,20.331z"/>
</svg>
