<?xml version="1.0" encoding="utf-8"?>
<!-- Generator: Adobe Illustrator 15.0.0, SVG Export Plug-In . SVG Version: 6.00 Build 0)  -->
<!DOCTYPE svg PUBLIC "-//W3C//DTD SVG 1.1//EN" "http://www.w3.org/Graphics/SVG/1.1/DTD/svg11.dtd">
<svg version="1.1" id="Layer_1" xmlns="http://www.w3.org/2000/svg" xmlns:xlink="http://www.w3.org/1999/xlink" x="0px" y="0px"
	 width="32px" height="25px" viewBox="0 0 32 25" enable-background="new 0 0 32 25" xml:space="preserve">
<g id="home_1_">
	<path fill="#333333" d="M24.249,23.29H9.114c-1.051,0-1.906-0.803-1.906-1.79v-8.177h1.65V21.5c0,0.157,0.117,0.29,0.256,0.29
		h15.135c0.139,0,0.256-0.133,0.256-0.29v-8.177h1.65V21.5C26.155,22.487,25.3,23.29,24.249,23.29z"/>
	<path fill="#333333" d="M4.803,13.329l9.176-7.521c1.422-1.172,4.022-1.172,5.449,0.001l9.174,7.521h2.42l0.1-0.079L20.766,4.76
		c-1.068-0.877-2.512-1.361-4.064-1.361c-1.553,0-2.996,0.483-4.061,1.36L2.283,13.25l0.101,0.079H4.803z"/>
</g>
<g id="home_2_">
	<path fill="#FFFFFF" d="M23.542,22.583H8.407c-1.051,0-1.906-0.803-1.906-1.79v-8.177h1.65v8.177c0,0.157,0.117,0.29,0.256,0.29
		h15.135c0.139,0,0.256-0.133,0.256-0.29v-8.177h1.65v8.177C25.448,21.78,24.593,22.583,23.542,22.583z"/>
	<path fill="#FFFFFF" d="M4.096,12.622l9.176-7.521c1.422-1.172,4.022-1.172,5.449,0.001l9.174,7.521h2.42l0.1-0.079l-10.355-8.49
		c-1.068-0.877-2.512-1.361-4.064-1.361c-1.553,0-2.996,0.483-4.061,1.36l-10.358,8.49l0.101,0.079H4.096z"/>
</g>
</svg>
