<?xml version="1.0" encoding="utf-8"?>
<!-- Generator: Adobe Illustrator 15.0.2, SVG Export Plug-In  -->
<!DOCTYPE svg PUBLIC "-//W3C//DTD SVG 1.1//EN" "http://www.w3.org/Graphics/SVG/1.1/DTD/svg11.dtd" [
	<!ENTITY ns_flows "http://ns.adobe.com/Flows/1.0/">
]>
<svg version="1.1"
	 xmlns="http://www.w3.org/2000/svg" xmlns:xlink="http://www.w3.org/1999/xlink" xmlns:a="http://ns.adobe.com/AdobeSVGViewerExtensions/3.0/"
	 x="0px" y="0px" width="18px" height="16px" viewBox="0 0 18 16" overflow="visible" enable-background="new 0 0 18 16"
	 xml:space="preserve">
<defs>
</defs>
<rect x="8.182" y="4.865" fill="#FFFFFF" width="1.662" height="6.098"/>
<rect x="8.182" y="11.835" fill="#FFFFFF" width="1.662" height="1.741"/>
<path fill="#FFFFFF" d="M17.893,12.611l-6.58-11.134C10.732,0.492,9.965,0,9.198,0C8.431,0,7.664,0.492,7.083,1.477L0.504,12.611
	c-1.163,1.97-0.244,3.58,2.042,3.58h13.306C18.137,16.191,19.055,14.58,17.893,12.611z M17.443,14.729
	c-0.229,0.4-0.812,0.631-1.594,0.631H2.546c-0.783,0-1.363-0.229-1.593-0.631c-0.229-0.402-0.132-1.021,0.267-1.693L7.799,1.898
	C8.199,1.221,8.71,0.83,9.198,0.83c0.487,0,0.997,0.39,1.399,1.068l6.577,11.136C17.575,13.708,17.672,14.325,17.443,14.729z"/>
</svg>
