<?xml version="1.0" encoding="utf-8"?>
<!-- Generator: Adobe Illustrator 15.0.0, SVG Export Plug-In . SVG Version: 6.00 Build 0)  -->
<!DOCTYPE svg PUBLIC "-//W3C//DTD SVG 1.1//EN" "http://www.w3.org/Graphics/SVG/1.1/DTD/svg11.dtd">
<svg version="1.1" id="Layer_1" xmlns="http://www.w3.org/2000/svg" xmlns:xlink="http://www.w3.org/1999/xlink" x="0px" y="0px"
	 width="25px" height="25px" viewBox="0 0 25 25" enable-background="new 0 0 25 25" xml:space="preserve">
<g id="home_2_">
	<path fill="#323232" d="M20.084,23.29H6.33c-0.955,0-1.732-0.803-1.732-1.79v-8.177h1.5V21.5c0,0.157,0.106,0.29,0.232,0.29h13.754
		c0.126,0,0.232-0.133,0.232-0.29v-8.177h1.5V21.5C21.816,22.487,21.039,23.29,20.084,23.29z"/>
	<path fill="#323232" d="M2.713,14.299L1.641,13.25L9.95,4.76c0.854-0.877,2.011-1.36,3.257-1.36c1.245,0,2.402,0.483,3.26,1.361
		l8.307,8.49l-1.072,1.049l-8.308-8.49c-1.145-1.173-3.23-1.173-4.371-0.001L2.713,14.299z"/>
</g>
<g id="home_1_">
	<path fill="#FFFFFF" d="M19.377,22.583H5.623c-0.955,0-1.732-0.803-1.732-1.79v-8.177h1.5v8.177c0,0.157,0.106,0.29,0.232,0.29
		h13.754c0.126,0,0.232-0.133,0.232-0.29v-8.177h1.5v8.177C21.109,21.78,20.332,22.583,19.377,22.583z"/>
	<path fill="#FFFFFF" d="M2.006,13.592l-1.072-1.049l8.309-8.49c0.854-0.877,2.011-1.36,3.257-1.36c1.245,0,2.402,0.483,3.26,1.361
		l8.307,8.49l-1.072,1.049l-8.308-8.49c-1.145-1.173-3.23-1.173-4.371-0.001L2.006,13.592z"/>
</g>
</svg>
