<?xml version="1.0" encoding="utf-8"?>
<!-- Generator: Adobe Illustrator 15.0.2, SVG Export Plug-In  -->
<!DOCTYPE svg PUBLIC "-//W3C//DTD SVG 1.1//EN" "http://www.w3.org/Graphics/SVG/1.1/DTD/svg11.dtd" [
	<!ENTITY ns_flows "http://ns.adobe.com/Flows/1.0/">
]>
<svg version="1.1"
	 xmlns="http://www.w3.org/2000/svg" xmlns:xlink="http://www.w3.org/1999/xlink" xmlns:a="http://ns.adobe.com/AdobeSVGViewerExtensions/3.0/"
	 x="0px" y="0px" width="26px" height="26px" viewBox="0 0 26 26" overflow="visible" enable-background="new 0 0 26 26"
	 xml:space="preserve">
<defs>
</defs>
<path fill="#FFFFFF" d="M23.865,14.28c0-5.379-4.872-9.755-10.857-9.755c-5.988,0-10.861,4.376-10.861,9.755
	c0,3.316,1.855,6.248,4.682,8.011L4.5,25h1.264c0.023-0.006,0.182-0.189,0.182-0.189l1.732-2.041
	c1.576,0.801,3.393,1.266,5.33,1.266c1.941,0,3.762-0.467,5.341-1.273l1.739,2.049c0,0,0.158,0.184,0.18,0.189h1.266l-2.335-2.717
	C22.014,20.52,23.865,17.592,23.865,14.28z M13.008,22.875c-5.201,0-9.432-3.855-9.432-8.595s4.23-8.597,9.432-8.597
	c5.197,0,9.428,3.857,9.428,8.597S18.205,22.875,13.008,22.875z"/>
<path d="M22.622,25.5l-2.485-0.018c-0.162-0.044-0.253-0.144-0.428-0.346l-1.49-1.755c-3.216,1.51-7.188,1.511-10.411,0.007
	l-1.481,1.745c-0.188,0.219-0.28,0.312-0.441,0.352L5.764,25.5H3.411l2.668-3.104c-2.786-1.939-4.433-4.935-4.433-8.115
	c0-5.654,5.097-10.255,11.361-10.255c6.263,0,11.357,4.601,11.357,10.255c0,3.174-1.641,6.165-4.418,8.106L22.622,25.5z
	 M7.552,22.145l0.353,0.18c3.124,1.587,7.101,1.585,10.217-0.008l0.353-0.18l0.006,0.007l0.453-0.284
	c2.775-1.738,4.433-4.572,4.433-7.579c0-5.104-4.646-9.255-10.357-9.255c-5.713,0-10.361,4.151-10.361,9.255
	c0,3.014,1.662,5.85,4.446,7.587l0.455,0.283L7.552,22.145z M13.008,23.375c-5.477,0-9.932-4.08-9.932-9.095
	c0-5.016,4.455-9.097,9.932-9.097c5.475,0,9.928,4.081,9.928,9.097C22.936,19.295,18.482,23.375,13.008,23.375z M13.008,6.184
	c-4.925,0-8.932,3.632-8.932,8.097c0,4.464,4.007,8.095,8.932,8.095c4.923,0,8.928-3.631,8.928-8.095
	C21.936,9.815,17.931,6.184,13.008,6.184z"/>
<path fill="#FFFFFF" d="M19.746,1c-1.623,0-3.126,0.746-4.123,2.045c-0.087,0.116-0.113,0.269-0.063,0.404
	c0.052,0.139,0.167,0.239,0.308,0.27c0.123,0.028,0.248,0.057,0.373,0.09c0.157,0.039,0.32-0.015,0.426-0.139
	c0.771-0.926,1.894-1.458,3.08-1.458c2.234,0,4.052,1.835,4.052,4.089c0,0.695-0.181,1.387-0.524,2
	c-0.078,0.137-0.073,0.308,0.014,0.441l0.203,0.324c0.076,0.125,0.211,0.2,0.357,0.2c0.145,0,0.278-0.075,0.356-0.198
	C24.725,8.229,25,7.273,25,6.301C25,3.378,22.644,1,19.746,1z"/>
<path d="M23.848,9.767c-0.323,0-0.616-0.164-0.784-0.44l-0.2-0.318c-0.186-0.285-0.196-0.654-0.024-0.955
	c0.3-0.534,0.459-1.141,0.459-1.752c0-1.979-1.594-3.589-3.552-3.589c-1.036,0-2.02,0.466-2.696,1.278
	c-0.229,0.271-0.597,0.386-0.93,0.304c-0.117-0.031-0.227-0.056-0.334-0.081c-0.333-0.071-0.583-0.29-0.695-0.589
	C14.982,3.328,15.032,3,15.223,2.745C16.319,1.316,17.967,0.5,19.746,0.5c3.173,0,5.754,2.603,5.754,5.801
	c0,1.064-0.301,2.113-0.871,3.031C24.455,9.605,24.164,9.767,23.848,9.767z M19.746,1.712c2.51,0,4.552,2.059,4.552,4.589
	c0,0.782-0.203,1.558-0.588,2.244l0.129,0.162C24.271,7.974,24.5,7.143,24.5,6.301c0-2.647-2.133-4.801-4.754-4.801
	c-1.428,0-2.753,0.639-3.654,1.758c0.101,0.022,0.188,0.044,0.276,0.067C17.149,2.309,18.412,1.712,19.746,1.712z"/>
<path fill="#FFFFFF" d="M2.51,9.066l0.203-0.324c0.088-0.134,0.092-0.305,0.015-0.441c-0.345-0.613-0.524-1.305-0.524-2
	c0-2.254,1.816-4.089,4.052-4.089c1.187,0,2.308,0.532,3.079,1.458C9.438,3.794,9.603,3.848,9.76,3.809
	c0.124-0.033,0.25-0.062,0.374-0.09c0.141-0.03,0.255-0.131,0.308-0.27c0.049-0.136,0.023-0.288-0.064-0.404
	C9.38,1.746,7.877,1,6.255,1C3.356,1,1,3.378,1,6.301c0,0.973,0.275,1.929,0.796,2.768c0.079,0.123,0.212,0.198,0.357,0.198
	C2.289,9.275,2.432,9.191,2.51,9.066z"/>
<path d="M2.173,9.768L2.173,9.768L2.121,9.766c-0.001,0-0.002,0-0.003,0c-0.281,0-0.571-0.16-0.743-0.427
	C0.801,8.414,0.5,7.365,0.5,6.301C0.5,3.103,3.082,0.5,6.255,0.5c1.778,0,3.426,0.816,4.519,2.24
	c0.193,0.256,0.244,0.583,0.139,0.878c-0.116,0.307-0.367,0.523-0.673,0.59c-0.132,0.029-0.242,0.055-0.351,0.084
	C9.514,4.381,9.174,4.258,8.95,3.99C8.273,3.178,7.291,2.712,6.255,2.712c-1.958,0-3.552,1.61-3.552,3.589
	c0,0.612,0.159,1.22,0.46,1.755c0.171,0.302,0.158,0.671-0.032,0.961L2.934,9.332C2.766,9.601,2.475,9.768,2.173,9.768z M6.255,1.5
	C3.633,1.5,1.5,3.653,1.5,6.301c0,0.836,0.226,1.66,0.653,2.393l0.136-0.217C1.906,7.86,1.703,7.084,1.703,6.301
	c0-2.53,2.042-4.589,4.552-4.589c1.333,0,2.596,0.597,3.463,1.638C9.743,3.307,9.82,3.28,9.908,3.258
	C9.007,2.14,7.682,1.5,6.255,1.5z"/>
<polygon fill="#FFFFFF" points="13.6,8.2 11.2,8.2 11.2,14.697 14.531,19 16,17.304 13.6,13.703 "/>
<path d="M14.51,19.789l-3.81-4.921V7.7H14.1v5.852l2.527,3.791L14.51,19.789z M11.7,14.526l2.853,3.685l0.82-0.946l-2.273-3.41V8.7
	H11.7V14.526z"/>
<path fill="#FFFFFF" d="M22.865,13.28c0-5.379-4.872-9.755-10.857-9.755c-5.988,0-10.861,4.376-10.861,9.755
	c0,3.316,1.855,6.248,4.682,8.011L3.5,24h1.264c0.023-0.006,0.182-0.189,0.182-0.189l1.732-2.041
	c1.576,0.801,3.393,1.266,5.33,1.266c1.941,0,3.762-0.467,5.341-1.273l1.739,2.049c0,0,0.158,0.184,0.18,0.189h1.266l-2.335-2.717
	C21.014,19.52,22.865,16.592,22.865,13.28z M12.008,21.875c-5.201,0-9.432-3.855-9.432-8.595s4.23-8.597,9.432-8.597
	c5.197,0,9.428,3.857,9.428,8.597S17.205,21.875,12.008,21.875z"/>
<path fill="#FFFFFF" d="M18.746,0c-1.623,0-3.126,0.746-4.123,2.045c-0.087,0.116-0.113,0.269-0.063,0.404
	c0.052,0.139,0.167,0.239,0.308,0.27c0.123,0.028,0.248,0.057,0.373,0.09c0.157,0.039,0.32-0.015,0.426-0.139
	c0.771-0.926,1.894-1.458,3.08-1.458c2.234,0,4.052,1.835,4.052,4.089c0,0.695-0.181,1.387-0.524,2
	c-0.078,0.137-0.073,0.308,0.014,0.441l0.203,0.324c0.076,0.125,0.211,0.2,0.357,0.2c0.145,0,0.278-0.075,0.356-0.198
	C23.725,7.229,24,6.273,24,5.301C24,2.378,21.644,0,18.746,0z"/>
<path fill="#FFFFFF" d="M1.51,8.066l0.203-0.324c0.088-0.134,0.092-0.305,0.015-0.441c-0.345-0.613-0.524-1.305-0.524-2
	c0-2.254,1.816-4.089,4.052-4.089c1.187,0,2.308,0.532,3.079,1.458C8.438,2.794,8.603,2.848,8.76,2.809
	c0.124-0.033,0.25-0.062,0.374-0.09c0.141-0.03,0.255-0.131,0.308-0.27C9.49,2.313,9.465,2.161,9.377,2.045
	C8.38,0.746,6.877,0,5.255,0C2.356,0,0,2.378,0,5.301c0,0.973,0.275,1.929,0.796,2.768c0.079,0.123,0.212,0.198,0.357,0.198
	C1.289,8.275,1.432,8.191,1.51,8.066z"/>
<polygon fill="#FFFFFF" points="12.6,7.2 10.2,7.2 10.2,13.697 13.531,18 15,16.304 12.6,12.703 "/>
</svg>
