<?xml version="1.0" encoding="utf-8"?>
<!-- Generator: Adobe Illustrator 14.0.0, SVG Export Plug-In . SVG Version: 6.00 Build 43363)  -->
<!DOCTYPE svg PUBLIC "-//W3C//DTD SVG 1.1//EN" "http://www.w3.org/Graphics/SVG/1.1/DTD/svg11.dtd">
<svg version="1.1" id="Layer_1" xmlns="http://www.w3.org/2000/svg" xmlns:xlink="http://www.w3.org/1999/xlink" x="0px" y="0px"
	 width="51px" height="49px" viewBox="0 0 51 49" enable-background="new 0 0 51 49" xml:space="preserve">
<g id="allarme_6_">
	<rect x="25" y="20" fill="#434343" width="2" height="8"/>
	<rect x="25" y="29" fill="#434343" width="2" height="2"/>
	<path fill="#434343" d="M36.396,29.8l-7.867-13.067C27.834,15.577,26.916,15,26.001,15c-0.917,0-1.834,0.577-2.53,1.732
		L15.604,29.8c-1.393,2.311-0.293,4.2,2.442,4.2h15.911C36.689,34,37.788,32.11,36.396,29.8z M35.86,32.282
		c-0.274,0.473-0.969,0.742-1.904,0.742H18.045c-0.936,0-1.63-0.27-1.905-0.742c-0.274-0.471-0.158-1.194,0.318-1.985l7.868-13.067
		c0.48-0.797,1.09-1.254,1.674-1.254c0.583,0,1.192,0.457,1.672,1.254l7.868,13.067C36.019,31.088,36.133,31.812,35.86,32.282z"/>
</g>
</svg>
