<?xml version="1.0" encoding="utf-8"?>
<!-- Generator: Adobe Illustrator 15.0.0, SVG Export Plug-In . SVG Version: 6.00 Build 0)  -->
<!DOCTYPE svg PUBLIC "-//W3C//DTD SVG 1.1//EN" "http://www.w3.org/Graphics/SVG/1.1/DTD/svg11.dtd">
<svg version="1.1" id="Layer_1" xmlns="http://www.w3.org/2000/svg" xmlns:xlink="http://www.w3.org/1999/xlink" x="0px" y="0px"
	 width="25px" height="25px" viewBox="0 0 25 25" enable-background="new 0 0 25 25" xml:space="preserve">
<g id="clock_1_">
	<path fill="#323232" d="M5.338,8.621C4.4,7.711,4.48,6.368,5.033,5.568c0.723-1.047,2.056-1.179,3.57-0.355
		C8.945,5.397,9.368,5.264,9.549,4.91c0.18-0.353,0.048-0.791-0.293-0.977c-2.582-1.406-4.503-0.45-5.361,0.795
		C2.84,6.256,3.048,8.383,4.379,9.675c0.136,0.131,0.307,0.196,0.479,0.196c0.188,0,0.373-0.077,0.51-0.228
		C5.632,9.351,5.619,8.894,5.338,8.621z"/>
	<path fill="#323232" d="M22.52,4.996c-0.858-1.245-2.777-2.201-5.361-0.795c-0.342,0.186-0.473,0.624-0.293,0.977
		c0.181,0.353,0.602,0.489,0.945,0.303c1.513-0.823,2.848-0.691,3.57,0.355c0.551,0.8,0.633,2.143-0.305,3.053
		c-0.282,0.274-0.295,0.731-0.031,1.022c0.137,0.151,0.322,0.228,0.51,0.228c0.172,0,0.345-0.063,0.479-0.196
		C23.364,8.651,23.574,6.524,22.52,4.996z"/>
	<path fill="#323232" d="M21.531,14.111c0-4.604-3.675-8.349-8.19-8.349s-8.19,3.745-8.19,8.349c0,2.193,0.842,4.187,2.206,5.678
		l-2.479,2.564l0.988,1.022l2.537-2.623c1.376,1.064,3.083,1.703,4.938,1.703c1.856,0,3.563-0.639,4.938-1.703l2.529,2.614
		l0.988-1.022l-2.472-2.556C20.689,18.298,21.531,16.305,21.531,14.111z M13.341,21.01c-3.745,0-6.791-3.094-6.791-6.898
		c0-3.807,3.046-6.903,6.791-6.903s6.791,3.096,6.791,6.903C20.132,17.916,17.086,21.01,13.341,21.01z"/>
	<polygon fill="#323232" points="14.258,9.186 12.287,9.186 12.287,14.702 15.449,18.357 16.844,16.913 14.258,13.858 	"/>
</g>
<g id="clock_2_">
	<path fill="#FFFFFF" d="M4.631,7.914c-0.938-0.91-0.857-2.253-0.305-3.053c0.723-1.047,2.056-1.179,3.57-0.355
		C8.238,4.69,8.661,4.557,8.842,4.203C9.021,3.85,8.89,3.412,8.549,3.226C5.967,1.82,4.046,2.776,3.188,4.021
		C2.133,5.549,2.341,7.676,3.672,8.968C3.808,9.099,3.979,9.164,4.15,9.164c0.188,0,0.373-0.077,0.51-0.228
		C4.925,8.644,4.912,8.187,4.631,7.914z"/>
	<path fill="#FFFFFF" d="M21.812,4.289c-0.858-1.245-2.777-2.201-5.361-0.795c-0.342,0.186-0.473,0.624-0.293,0.977
		c0.181,0.353,0.602,0.489,0.945,0.303c1.513-0.823,2.848-0.691,3.57,0.355c0.551,0.8,0.633,2.143-0.305,3.053
		c-0.282,0.274-0.295,0.731-0.031,1.022c0.137,0.151,0.322,0.228,0.51,0.228c0.172,0,0.345-0.063,0.479-0.196
		C22.657,7.944,22.867,5.817,21.812,4.289z"/>
	<path fill="#FFFFFF" d="M20.824,13.404c0-4.604-3.675-8.349-8.19-8.349s-8.19,3.745-8.19,8.349c0,2.193,0.842,4.187,2.206,5.678
		L4.17,21.646l0.988,1.022l2.537-2.623c1.376,1.064,3.083,1.703,4.938,1.703c1.856,0,3.563-0.639,4.938-1.703l2.529,2.614
		l0.988-1.022l-2.472-2.556C19.982,17.591,20.824,15.598,20.824,13.404z M12.634,20.303c-3.745,0-6.791-3.094-6.791-6.898
		c0-3.807,3.046-6.903,6.791-6.903s6.791,3.096,6.791,6.903C19.425,17.209,16.379,20.303,12.634,20.303z"/>
	<polygon fill="#FFFFFF" points="13.551,8.479 11.58,8.479 11.58,13.995 14.742,17.65 16.137,16.206 13.551,13.151 	"/>
</g>
</svg>
