<?xml version="1.0" encoding="utf-8"?>
<!-- Generator: Adobe Illustrator 15.0.2, SVG Export Plug-In  -->
<!DOCTYPE svg PUBLIC "-//W3C//DTD SVG 1.1//EN" "http://www.w3.org/Graphics/SVG/1.1/DTD/svg11.dtd" [
	<!ENTITY ns_flows "http://ns.adobe.com/Flows/1.0/">
]>
<svg version="1.1"
	 xmlns="http://www.w3.org/2000/svg" xmlns:xlink="http://www.w3.org/1999/xlink" xmlns:a="http://ns.adobe.com/AdobeSVGViewerExtensions/3.0/"
	 x="0px" y="0px" width="11px" height="15px" viewBox="0 0 11 15" overflow="visible" enable-background="new 0 0 11 15"
	 xml:space="preserve">
<defs>
</defs>
<path fill="#FFFFFF" d="M1.549,14.867C1.548,14.867,1.548,14.867,1.549,14.867C0.834,14.867,0,14.344,0,12.872V1.996
	C0,0.523,0.834,0,1.548,0C1.992,0,2.48,0.189,2.96,0.546l6.548,4.877c0.704,0.524,1.094,1.238,1.094,2.01s-0.389,1.486-1.094,2.012
	L2.96,14.32C2.481,14.677,1.993,14.867,1.549,14.867z M1.548,1C1.054,1,1,1.696,1,1.996v10.876c0,0.299,0.054,0.995,0.548,0.995
	c0.001,0,0.001,0,0.001,0c0.224,0,0.513-0.124,0.813-0.348L8.91,8.643C9.355,8.311,9.6,7.882,9.6,7.434
	c0-0.448-0.244-0.878-0.689-1.209L2.362,1.348C2.062,1.124,1.771,1,1.548,1z"/>
</svg>
