<?xml version="1.0" encoding="utf-8"?>
<!-- Generator: Adobe Illustrator 15.0.2, SVG Export Plug-In  -->
<!DOCTYPE svg PUBLIC "-//W3C//DTD SVG 1.1//EN" "http://www.w3.org/Graphics/SVG/1.1/DTD/svg11.dtd" [
	<!ENTITY ns_flows "http://ns.adobe.com/Flows/1.0/">
]>
<svg version="1.1"
	 xmlns="http://www.w3.org/2000/svg" xmlns:xlink="http://www.w3.org/1999/xlink" xmlns:a="http://ns.adobe.com/AdobeSVGViewerExtensions/3.0/"
	 x="0px" y="0px" width="30px" height="31px" viewBox="0 0 30 31" overflow="visible" enable-background="new 0 0 30 31"
	 xml:space="preserve">
<defs>
</defs>
<path d="M28.354,20.65h-26v-1c0-0.138,0.189-13.813,13-13.813s13,13.676,13,13.813V20.65z M4.602,18.65h21.801
	c-0.275-2.868-1.856-10.813-10.9-10.813S4.877,15.782,4.602,18.65z"/>
<path d="M14.502,30.947c-2.474,0-4.486-2.013-4.486-4.486s2.013-4.486,4.486-4.486s4.486,2.013,4.486,4.486
	S16.976,30.947,14.502,30.947z M14.502,22.975c-1.923,0-3.486,1.563-3.486,3.486s1.563,3.486,3.486,3.486s3.486-1.563,3.486-3.486
	S16.425,22.975,14.502,22.975z"/>
<rect x="15.401" y="-4.832" transform="matrix(0.7071 0.7071 -0.7071 0.7071 15.1934 -6.8794)" width="1" height="39.465"/>
<path fill="#FFFFFF" d="M27.354,19.65h-26v-1c0-0.138,0.189-13.814,13-13.814s13,13.677,13,13.814V19.65z M3.004,17.65h21.805
	c-0.275-2.868-1.856-10.814-10.9-10.814C4.834,6.836,3.271,14.783,3.004,17.65z"/>
<path fill="#FFFFFF" d="M12.908,30.354c-2.475,0-4.487-2.013-4.487-4.486c0-2.475,2.013-4.487,4.487-4.487
	c2.474,0,4.485,2.013,4.485,4.487C17.394,28.341,15.382,30.354,12.908,30.354z M12.908,22.38c-1.923,0-3.487,1.564-3.487,3.487
	s1.564,3.486,3.487,3.486c1.922,0,3.485-1.563,3.485-3.486S14.83,22.38,12.908,22.38z"/>
<rect x="13.806" y="-5.426" transform="matrix(0.7071 0.7071 -0.7071 0.7071 14.3062 -5.9258)" fill="#FFFFFF" width="1" height="39.464"/>
</svg>
