<?xml version="1.0" encoding="utf-8"?>
<!-- Generator: Adobe Illustrator 15.0.2, SVG Export Plug-In  -->
<!DOCTYPE svg PUBLIC "-//W3C//DTD SVG 1.1//EN" "http://www.w3.org/Graphics/SVG/1.1/DTD/svg11.dtd" [
	<!ENTITY ns_flows "http://ns.adobe.com/Flows/1.0/">
]>
<svg version="1.1"
	 xmlns="http://www.w3.org/2000/svg" xmlns:xlink="http://www.w3.org/1999/xlink" xmlns:a="http://ns.adobe.com/AdobeSVGViewerExtensions/3.0/"
	 x="0px" y="0px" width="38px" height="15px" viewBox="0 0 38 15" overflow="visible" enable-background="new 0 0 38 15"
	 xml:space="preserve">
<defs>
</defs>
<path d="M31.428,14.548c-3.623,0-6.571-2.948-6.571-6.571c0-3.624,2.948-6.572,6.571-6.572C35.052,1.404,38,4.353,38,7.977
	C38,11.6,35.052,14.548,31.428,14.548z M31.428,3.132c-2.671,0-4.844,2.174-4.844,4.845s2.173,4.845,4.844,4.845
	c2.672,0,4.845-2.174,4.845-4.845S34.1,3.132,31.428,3.132z"/>
<rect x="1" y="6.239" width="25" height="2"/>
<rect x="1" y="10.239" width="11" height="2"/>
<path fill="#FFFFFF" d="M30.16,13.416c-3.699,0-6.709-3.009-6.709-6.708S26.461,0,30.16,0s6.708,3.009,6.708,6.708
	S33.859,13.416,30.16,13.416z M30.16,2c-2.597,0-4.709,2.112-4.709,4.708s2.112,4.708,4.709,4.708c2.596,0,4.708-2.112,4.708-4.708
	S32.756,2,30.16,2z"/>
<rect y="5.239" fill="#FFFFFF" width="24" height="2"/>
<rect y="9.239" fill="#FFFFFF" width="11" height="2"/>
</svg>
