<?xml version="1.0" encoding="utf-8"?>
<!-- Generator: Adobe Illustrator 14.0.0, SVG Export Plug-In . SVG Version: 6.00 Build 43363)  -->
<!DOCTYPE svg PUBLIC "-//W3C//DTD SVG 1.1//EN" "http://www.w3.org/Graphics/SVG/1.1/DTD/svg11.dtd">
<svg version="1.1" id="Layer_1" xmlns="http://www.w3.org/2000/svg" xmlns:xlink="http://www.w3.org/1999/xlink" x="0px" y="0px"
	 width="63px" height="49px" viewBox="0 0 63 49" enable-background="new 0 0 63 49" xml:space="preserve">
<g id="home_5_">
	<path fill="#434343" d="M40.944,31.895c0,0.58-0.968,1.053-1.55,1.053H24.605c-0.583,0-1.55-0.473-1.55-1.053v-8.27H22v8.27
		C22,33.053,23.444,34,24.605,34h14.789C40.556,34,42,33.053,42,31.895v-8.27h-1.056V31.895z"/>
	<path fill="#434343" d="M35.815,15.371C34.768,14.457,33.383,14,32,14c-1.385,0-2.768,0.457-3.816,1.371L17.5,24.678h1.559
		l9.748-8.49c0.838-0.732,1.973-1.135,3.193-1.135s2.355,0.402,3.194,1.135l9.747,8.49H46.5L35.815,15.371z"/>
</g>
</svg>
