<?xml version="1.0" encoding="utf-8"?>
<!-- Generator: Adobe Illustrator 15.0.0, SVG Export Plug-In . SVG Version: 6.00 Build 0)  -->
<!DOCTYPE svg PUBLIC "-//W3C//DTD SVG 1.1//EN" "http://www.w3.org/Graphics/SVG/1.1/DTD/svg11.dtd">
<svg version="1.1" id="Layer_1" xmlns="http://www.w3.org/2000/svg" xmlns:xlink="http://www.w3.org/1999/xlink" x="0px" y="0px"
	 width="32px" height="25px" viewBox="0 0 32 25" enable-background="new 0 0 32 25" xml:space="preserve">
<g id="quit">
	<path fill="#333333" d="M20.508,5.646v1.501c2.486,1.344,4.176,3.952,4.176,6.942c0,4.359-3.59,7.906-8.002,7.906
		s-8.002-3.547-8.002-7.906c0-3.069,1.783-5.729,4.375-7.039V5.552c-3.372,1.404-5.745,4.701-5.745,8.538
		c0,5.105,4.204,9.26,9.372,9.26c5.168,0,9.372-4.154,9.372-9.26C26.053,10.331,23.771,7.095,20.508,5.646z"/>
	<rect x="15.771" y="3.329" fill="#333333" width="2.136" height="10"/>
</g>
<g id="quit_1_">
	<path fill="#FFFFFF" d="M19.801,4.939V6.44c2.486,1.344,4.176,3.952,4.176,6.942c0,4.359-3.59,7.906-8.002,7.906
		s-8.002-3.547-8.002-7.906c0-3.069,1.783-5.729,4.375-7.039V4.845c-3.372,1.404-5.745,4.701-5.745,8.538
		c0,5.105,4.204,9.26,9.372,9.26c5.168,0,9.372-4.154,9.372-9.26C25.346,9.624,23.064,6.388,19.801,4.939z"/>
	<rect x="15.063" y="2.622" fill="#FFFFFF" width="2.136" height="10"/>
</g>
</svg>
