<?xml version="1.0" encoding="utf-8"?>
<!-- Generator: Adobe Illustrator 15.0.2, SVG Export Plug-In  -->
<!DOCTYPE svg PUBLIC "-//W3C//DTD SVG 1.1//EN" "http://www.w3.org/Graphics/SVG/1.1/DTD/svg11.dtd" [
	<!ENTITY ns_flows "http://ns.adobe.com/Flows/1.0/">
]>
<svg version="1.1"
	 xmlns="http://www.w3.org/2000/svg" xmlns:xlink="http://www.w3.org/1999/xlink" xmlns:a="http://ns.adobe.com/AdobeSVGViewerExtensions/3.0/"
	 x="0px" y="0px" width="16px" height="16px" viewBox="0 0 16 16" overflow="visible" enable-background="new 0 0 16 16"
	 xml:space="preserve">
<defs>
</defs>
<path fill="#5A5A5A" d="M15.244,8.854c0-3.586-3.249-6.503-7.238-6.503c-3.993,0-7.241,2.917-7.241,6.503
	c0,2.211,1.236,4.165,3.12,5.341L2.333,16h0.843c0.016-0.004,0.121-0.127,0.121-0.127l1.155-1.359
	c1.051,0.533,2.261,0.844,3.554,0.844c1.294,0,2.507-0.311,3.561-0.85l1.159,1.365c0,0,0.105,0.123,0.119,0.127h0.844l-1.556-1.811
	C14.01,13.014,15.244,11.061,15.244,8.854z M8.006,14.583c-3.468,0-6.289-2.569-6.289-5.729c0-3.159,2.821-5.73,6.289-5.73
	c3.464,0,6.285,2.571,6.285,5.73C14.291,12.014,11.47,14.583,8.006,14.583z"/>
<path fill="#5A5A5A" d="M12.497,0c-1.081,0-2.083,0.498-2.749,1.363c-0.057,0.078-0.075,0.18-0.042,0.27
	c0.035,0.093,0.112,0.16,0.206,0.18c0.082,0.019,0.165,0.038,0.248,0.061c0.104,0.025,0.213-0.011,0.284-0.094
	c0.514-0.616,1.262-0.971,2.053-0.971c1.49,0,2.701,1.223,2.701,2.725c0,0.465-0.12,0.925-0.349,1.334
	c-0.053,0.091-0.05,0.205,0.009,0.295l0.136,0.215c0.05,0.084,0.141,0.135,0.237,0.135s0.186-0.051,0.238-0.133
	C15.816,4.82,16,4.182,16,3.533C16,1.585,14.43,0,12.497,0z"/>
<path fill="#5A5A5A" d="M1.007,5.377l0.135-0.215c0.059-0.09,0.062-0.204,0.01-0.295c-0.229-0.409-0.35-0.869-0.35-1.334
	c0-1.502,1.211-2.725,2.702-2.725c0.79,0,1.537,0.354,2.053,0.971C5.625,1.862,5.735,1.898,5.84,1.873
	c0.083-0.022,0.167-0.042,0.249-0.061c0.094-0.02,0.171-0.087,0.205-0.18c0.033-0.09,0.016-0.191-0.043-0.27
	C5.586,0.498,4.585,0,3.504,0C1.57,0,0,1.585,0,3.533C0,4.182,0.184,4.82,0.53,5.379c0.053,0.082,0.142,0.133,0.238,0.133
	C0.859,5.517,0.954,5.461,1.007,5.377z"/>
<polygon fill="#5A5A5A" points="8.4,4.8 6.8,4.8 6.8,9.132 9.021,12 10,10.869 8.4,8.469 "/>
</svg>
