<?xml version="1.0" encoding="utf-8"?>
<!-- Generator: Adobe Illustrator 14.0.0, SVG Export Plug-In . SVG Version: 6.00 Build 43363)  -->
<!DOCTYPE svg PUBLIC "-//W3C//DTD SVG 1.1//EN" "http://www.w3.org/Graphics/SVG/1.1/DTD/svg11.dtd">
<svg version="1.1" id="Layer_1" xmlns="http://www.w3.org/2000/svg" xmlns:xlink="http://www.w3.org/1999/xlink" x="0px" y="0px"
	 width="51px" height="49px" viewBox="0 0 51 49" enable-background="new 0 0 51 49" xml:space="preserve">
<g id="sveglia_6_">
	<path fill="#434343" d="M35.055,25.066c0-4.482-4.061-8.129-9.049-8.129c-4.99,0-9.051,3.646-9.051,8.129
		c0,2.764,1.547,5.207,3.901,6.676L18.916,34h1.054c0.02-0.005,0.151-0.158,0.151-0.158l1.443-1.701
		c1.313,0.668,2.827,1.055,4.441,1.055c1.618,0,3.135-0.389,4.451-1.061l1.449,1.707c0,0,0.132,0.153,0.15,0.158h1.055l-1.946-2.265
		C33.512,30.266,35.055,27.826,35.055,25.066z M26.006,32.229c-4.334,0-7.859-3.213-7.859-7.162s3.525-7.164,7.859-7.164
		c4.332,0,7.857,3.215,7.857,7.164S30.338,32.229,26.006,32.229z"/>
	<path fill="#434343" d="M31.621,14c-1.352,0-2.604,0.621-3.436,1.704c-0.072,0.097-0.094,0.224-0.053,0.337
		c0.043,0.115,0.139,0.199,0.256,0.225c0.104,0.023,0.207,0.047,0.312,0.074c0.131,0.033,0.267-0.012,0.354-0.115
		c0.644-0.771,1.578-1.215,2.566-1.215c1.862,0,3.377,1.529,3.377,3.407c0,0.579-0.15,1.155-0.438,1.667
		c-0.064,0.114-0.061,0.256,0.012,0.367l0.17,0.271c0.063,0.104,0.176,0.167,0.297,0.167s0.232-0.062,0.298-0.165
		C35.771,20.024,36,19.228,36,18.417C36,15.981,34.036,14,31.621,14z"/>
	<path fill="#434343" d="M17.258,20.722l0.17-0.271c0.072-0.111,0.076-0.253,0.012-0.367c-0.287-0.512-0.438-1.088-0.438-1.667
		c0-1.878,1.515-3.407,3.377-3.407c0.988,0,1.923,0.443,2.566,1.215c0.086,0.104,0.224,0.148,0.354,0.115
		c0.104-0.027,0.208-0.051,0.312-0.074c0.117-0.025,0.213-0.109,0.256-0.225c0.041-0.113,0.02-0.24-0.053-0.337
		C22.983,14.621,21.73,14,20.379,14C17.964,14,16,15.981,16,18.417c0,0.811,0.229,1.607,0.663,2.307
		c0.065,0.103,0.177,0.165,0.298,0.165C17.074,20.896,17.193,20.826,17.258,20.722z"/>
	<polygon fill="#434343" points="26.5,20 24.5,20 24.5,25.414 27.276,29 28.5,27.586 26.5,24.586 	"/>
</g>
</svg>
