<?xml version="1.0" encoding="utf-8"?>
<!-- Generator: Adobe Illustrator 15.0.2, SVG Export Plug-In  -->
<!DOCTYPE svg PUBLIC "-//W3C//DTD SVG 1.1//EN" "http://www.w3.org/Graphics/SVG/1.1/DTD/svg11.dtd" [
	<!ENTITY ns_flows "http://ns.adobe.com/Flows/1.0/">
]>
<svg version="1.1"
	 xmlns="http://www.w3.org/2000/svg" xmlns:xlink="http://www.w3.org/1999/xlink" xmlns:a="http://ns.adobe.com/AdobeSVGViewerExtensions/3.0/"
	 x="0px" y="0px" width="20px" height="20px" viewBox="0 0 20 20" overflow="visible" enable-background="new 0 0 20 20"
	 xml:space="preserve">
<defs>
</defs>
<path fill="#FFFFFF" d="M19.68,0.789l-0.486-0.485l-4.336,4.337c-0.116-0.84-0.252-1.998-0.432-2.824
	C14.384,0.986,13.771,0,13.021,0h-0.271L7.54,5H4.752C3.895,5,2.679,5.583,2.679,6.399v6.341c0,0.465,0.753,1.26,1.979,1.26h0.854
	L0,19.504l0.485,0.489L6.483,14H7.46l5.286,4h0.275c0.75,0,1.365-0.419,1.403-1.254c0.784-3.928,0.962-7.655,0.544-11.371
	L19.68,0.789z M7.015,12H4.679V6h3.402l4.871-3.799c0.253,1.166,0.438,2.226,0.562,3.425L7.015,12z M12.953,16.453L8.014,12H7.986
	l5.598-5.477C13.823,9.706,13.62,13.109,12.953,16.453z"/>
</svg>
