<?xml version="1.0" encoding="utf-8"?>
<!-- Generator: Adobe Illustrator 15.0.2, SVG Export Plug-In  -->
<!DOCTYPE svg PUBLIC "-//W3C//DTD SVG 1.1//EN" "http://www.w3.org/Graphics/SVG/1.1/DTD/svg11.dtd" [
	<!ENTITY ns_flows "http://ns.adobe.com/Flows/1.0/">
]>
<svg version="1.1"
	 xmlns="http://www.w3.org/2000/svg" xmlns:xlink="http://www.w3.org/1999/xlink" xmlns:a="http://ns.adobe.com/AdobeSVGViewerExtensions/3.0/"
	 x="0px" y="0px" width="28px" height="27px" viewBox="0 0 28 27" overflow="visible" enable-background="new 0 0 28 27"
	 xml:space="preserve">
<defs>
</defs>
<path d="M18.431,25.95h-0.299l-7.133-4.678l-3.837-0.873c-0.971-0.078-1.739-0.992-1.739-2.104V9.857
	c0-1.11,0.767-2.022,1.735-2.104l3.934-0.922l7.04-4.627h0.299c0.995,0,1.811,0.88,1.867,1.986c1.361,6.296,1.361,12.943,0,19.763
	C20.246,25.064,19.429,25.95,18.431,25.95z M7.44,18.412l4.354,0.989l6.52,4.276l0.007-0.033c1.329-6.609,1.331-13.042,0.004-19.119
	l-0.011-0.047l-6.419,4.221L7.44,9.742C7.431,9.77,7.423,9.809,7.423,9.857v8.438C7.423,18.345,7.431,18.384,7.44,18.412z"/>
<rect x="14.096" y="-4.423" transform="matrix(0.7071 0.7071 -0.7071 0.7071 13.9057 -6.2959)" width="0.914" height="36.12"/>
<rect x="12.637" y="-4.967" transform="matrix(0.7071 0.7071 -0.7071 0.7071 13.0934 -5.4238)" fill="#FFFFFF" width="0.914" height="36.12"/>
<path fill="#FFFFFF" d="M17.33,24.205h-0.368l-7.034-6H6.198c-1.632,0-1.875-1.036-1.875-1.654V8.112c0-1.087,0.859-1.907,2-1.907
	h3.71L16.97,0.46h0.36c0.995,0,1.811,0.88,1.867,1.986c1.361,6.296,1.361,12.943,0,19.763C19.146,23.319,18.328,24.205,17.33,24.205
	z M6.323,16.205h4.341l6.573,5.606c1.308-6.558,1.308-12.941-0.002-18.975l-6.481,5.368H6.323V16.205z"/>
</svg>
