<?xml version="1.0" encoding="utf-8"?>
<!-- Generator: Adobe Illustrator 15.0.0, SVG Export Plug-In . SVG Version: 6.00 Build 0)  -->
<!DOCTYPE svg PUBLIC "-//W3C//DTD SVG 1.1//EN" "http://www.w3.org/Graphics/SVG/1.1/DTD/svg11.dtd">
<svg version="1.1" id="Layer_1" xmlns="http://www.w3.org/2000/svg" xmlns:xlink="http://www.w3.org/1999/xlink" x="0px" y="0px"
	 width="32px" height="25px" viewBox="0 0 32 25" enable-background="new 0 0 32 25" xml:space="preserve">
<g id="clock_2_">
	<path fill="#333333" d="M7.905,8.889C6.967,7.979,7.047,6.636,7.6,5.835c0.723-1.047,2.056-1.179,3.57-0.355
		c0.342,0.185,0.765,0.051,0.945-0.303c0.18-0.353,0.048-0.791-0.293-0.977C9.241,2.795,7.32,3.751,6.461,4.996
		C5.407,6.524,5.615,8.65,6.946,9.943c0.136,0.131,0.307,0.196,0.479,0.196c0.188,0,0.373-0.077,0.51-0.228
		C8.199,9.619,8.186,9.162,7.905,8.889z"/>
	<path fill="#333333" d="M27.123,4.996c-0.857-1.245-2.777-2.201-5.361-0.795c-0.342,0.186-0.473,0.624-0.293,0.977
		C21.65,5.53,22.07,5.667,22.414,5.48c1.514-0.823,2.848-0.691,3.57,0.355c0.551,0.8,0.633,2.143-0.305,3.053
		c-0.281,0.274-0.295,0.731-0.031,1.022c0.137,0.151,0.322,0.228,0.51,0.228c0.172,0,0.346-0.063,0.48-0.196
		C27.969,8.651,28.178,6.524,27.123,4.996z"/>
	<polygon fill="#333333" points="17.732,9.186 15.761,9.186 15.761,14.702 18.924,18.357 20.318,16.913 17.732,13.858 	"/>
	<path fill="#333333" d="M6.631,23.163h2.157l2.472-2.41c1.541,1.064,3.453,1.703,5.531,1.703c2.079,0,3.991-0.639,5.531-1.703
		l2.468,2.41h2.155l-3.452-3.374c1.527-1.491,2.471-3.484,2.471-5.678c0-4.604-4.115-8.349-9.173-8.349s-9.173,3.745-9.173,8.349
		c0,2.193,0.942,4.187,2.471,5.678L6.631,23.163z M9.186,14.111c0-3.807,3.412-6.903,7.606-6.903s7.605,3.096,7.605,6.903
		c0,3.805-3.411,6.898-7.605,6.898S9.186,17.916,9.186,14.111z"/>
</g>
<g id="clock_1_">
	<path fill="#FFFFFF" d="M7.198,8.182C6.26,7.271,6.34,5.929,6.893,5.128c0.723-1.047,2.056-1.179,3.57-0.355
		c0.342,0.185,0.765,0.051,0.945-0.303c0.18-0.353,0.048-0.791-0.293-0.977c-2.582-1.406-4.503-0.45-5.361,0.795
		C4.7,5.817,4.908,7.943,6.239,9.236c0.136,0.131,0.307,0.196,0.479,0.196c0.188,0,0.373-0.077,0.51-0.228
		C7.492,8.912,7.479,8.455,7.198,8.182z"/>
	<path fill="#FFFFFF" d="M26.416,4.289c-0.857-1.245-2.777-2.201-5.361-0.795c-0.342,0.186-0.473,0.624-0.293,0.977
		c0.182,0.353,0.602,0.489,0.945,0.303c1.514-0.823,2.848-0.691,3.57,0.355c0.551,0.8,0.633,2.143-0.305,3.053
		c-0.281,0.274-0.295,0.731-0.031,1.022c0.137,0.151,0.322,0.228,0.51,0.228c0.172,0,0.346-0.063,0.48-0.196
		C27.262,7.944,27.471,5.817,26.416,4.289z"/>
	<polygon fill="#FFFFFF" points="17.025,8.479 15.054,8.479 15.054,13.995 18.217,17.65 19.611,16.206 17.025,13.151 	"/>
	<path fill="#FFFFFF" d="M5.924,22.456h2.157l2.472-2.41c1.541,1.064,3.453,1.703,5.531,1.703c2.079,0,3.991-0.639,5.531-1.703
		l2.468,2.41h2.155l-3.452-3.374c1.527-1.491,2.471-3.484,2.471-5.678c0-4.604-4.115-8.349-9.173-8.349s-9.173,3.745-9.173,8.349
		c0,2.193,0.942,4.187,2.471,5.678L5.924,22.456z M8.479,13.404c0-3.807,3.412-6.903,7.606-6.903s7.605,3.096,7.605,6.903
		c0,3.805-3.411,6.898-7.605,6.898S8.479,17.209,8.479,13.404z"/>
</g>
</svg>
