<?xml version="1.0" encoding="utf-8"?>
<!-- Generator: Adobe Illustrator 15.0.2, SVG Export Plug-In  -->
<!DOCTYPE svg PUBLIC "-//W3C//DTD SVG 1.1//EN" "http://www.w3.org/Graphics/SVG/1.1/DTD/svg11.dtd" [
	<!ENTITY ns_flows "http://ns.adobe.com/Flows/1.0/">
]>
<svg version="1.1"
	 xmlns="http://www.w3.org/2000/svg" xmlns:xlink="http://www.w3.org/1999/xlink" xmlns:a="http://ns.adobe.com/AdobeSVGViewerExtensions/3.0/"
	 x="0px" y="0px" width="16px" height="21px" viewBox="-0.05 -0.051 16 21"
	 overflow="visible" enable-background="new -0.05 -0.051 16 21" xml:space="preserve">
<defs>
</defs>
<path d="M3.325,20.949c-1.182,0-2.375-0.916-2.375-2.962V3.711c0-2.046,1.192-2.962,2.374-2.962c0.667,0,1.36,0.265,2.06,0.786
	l8.594,6.4c0.998,0.742,1.571,1.804,1.572,2.911c0,1.109-0.572,2.172-1.572,2.918l-8.594,6.399
	C4.686,20.686,3.993,20.949,3.325,20.949z M3.324,2.749c-0.363,0-0.374,0.863-0.374,0.962v14.276c0,0.099,0.011,0.962,0.375,0.962
	c0.103,0,0.393-0.037,0.862-0.389l8.595-6.399c0.495-0.369,0.768-0.836,0.768-1.312c-0.001-0.477-0.272-0.941-0.767-1.309
	L4.188,3.139C3.718,2.787,3.427,2.749,3.324,2.749z"/>
<path fill="#FFFFFF" d="M2.376,20.2C1.193,20.2,0,19.284,0,17.237V2.963C0,0.916,1.192,0,2.375,0c0.667,0,1.36,0.264,2.06,0.785
	l8.593,6.4C14.025,7.928,14.6,8.99,14.6,10.098c0.001,1.109-0.572,2.172-1.572,2.917l-8.593,6.4C3.736,19.937,3.044,20.2,2.376,20.2
	z M2.375,2C2.011,2,2,2.863,2,2.963v14.274c0,0.1,0.011,0.963,0.376,0.963c0.103,0,0.393-0.037,0.862-0.389l8.594-6.399
	c0.496-0.369,0.769-0.836,0.768-1.312c0-0.477-0.272-0.941-0.767-1.309L3.239,2.389C2.769,2.037,2.478,2,2.375,2z"/>
</svg>
