<?xml version="1.0" encoding="utf-8"?>
<!-- Generator: Adobe Illustrator 15.0.2, SVG Export Plug-In  -->
<!DOCTYPE svg PUBLIC "-//W3C//DTD SVG 1.1//EN" "http://www.w3.org/Graphics/SVG/1.1/DTD/svg11.dtd" [
	<!ENTITY ns_flows "http://ns.adobe.com/Flows/1.0/">
]>
<svg version="1.1"
	 xmlns="http://www.w3.org/2000/svg" xmlns:xlink="http://www.w3.org/1999/xlink" xmlns:a="http://ns.adobe.com/AdobeSVGViewerExtensions/3.0/"
	 x="0px" y="0px" width="19px" height="20px" viewBox="0 0 19 20" overflow="visible" enable-background="new 0 0 19 20"
	 xml:space="preserve">
<defs>
</defs>
<path fill="#FFFFFF" d="M16.062,12.004h-14l-1,0.105c0-0.09,0.184-8.97,8.5-8.97s7.5,8.88,7.5,8.97L16.062,12.004z M1.95,11.004
	h14.157c-0.181-2-1.205-7.021-7.079-7.021C3.139,3.982,2.124,9.004,1.95,11.004z"/>
<path fill="#FFFFFF" d="M8.38,19.707c-1.606,0-2.913-1.307-2.913-2.912c0-1.607,1.307-2.914,2.913-2.914
	c1.605,0,2.912,1.307,2.912,2.914C11.292,18.4,9.985,19.707,8.38,19.707z M8.38,14.529c-1.248,0-2.264,1.017-2.264,2.266
	c0,1.247,1.016,2.264,2.264,2.264s2.264-1.017,2.264-2.264C10.644,15.546,9.628,14.529,8.38,14.529z"/>
<rect x="8.963" y="-3.523" transform="matrix(-0.7071 -0.7071 0.7071 -0.7071 9.2877 22.4233)" fill="#FFFFFF" width="0.649" height="25.621"/>
</svg>
