<?xml version="1.0" encoding="utf-8"?>
<!-- Generator: Adobe Illustrator 15.0.2, SVG Export Plug-In . SVG Version: 6.00 Build 0)  -->
<!DOCTYPE svg PUBLIC "-//W3C//DTD SVG 1.1//EN" "http://www.w3.org/Graphics/SVG/1.1/DTD/svg11.dtd" [
	<!ENTITY ns_extend "http://ns.adobe.com/Extensibility/1.0/">
	<!ENTITY ns_ai "http://ns.adobe.com/AdobeIllustrator/10.0/">
	<!ENTITY ns_graphs "http://ns.adobe.com/Graphs/1.0/">
	<!ENTITY ns_vars "http://ns.adobe.com/Variables/1.0/">
	<!ENTITY ns_imrep "http://ns.adobe.com/ImageReplacement/1.0/">
	<!ENTITY ns_sfw "http://ns.adobe.com/SaveForWeb/1.0/">
	<!ENTITY ns_custom "http://ns.adobe.com/GenericCustomNamespace/1.0/">
	<!ENTITY ns_adobe_xpath "http://ns.adobe.com/XPath/1.0/">
]>
<svg version="1.1" id="Layer_1" xmlns:x="&ns_extend;" xmlns:i="&ns_ai;" xmlns:graph="&ns_graphs;"
	 xmlns="http://www.w3.org/2000/svg" xmlns:xlink="http://www.w3.org/1999/xlink" x="0px" y="0px" width="39px" height="28px"
	 viewBox="0 0 39 28" enable-background="new 0 0 39 28" xml:space="preserve">
<metadata>
	<sfw  xmlns="&ns_sfw;">
		<slices></slices>
		<sliceSourceBounds  width="38.917" height="28.053" y="286.447" x="492" bottomLeftOrigin="true"></sliceSourceBounds>
	</sfw>
</metadata>
<g>
	<path fill="#FFFFFF" d="M38.917,12.297c0-6.222-8.172-11.095-18.604-11.095c-10.432,0-18.604,4.873-18.604,11.095
		c0,5.048,3.772,10.566,14.324,11.055c2.553,2.336,8.369,4.701,11.688,4.701h0.006l3.43-0.003l-2.896-1.841
		c-1.113-0.708-1.926-2.04-2.484-3.303C33.575,21.505,38.917,17.247,38.917,12.297z M24.251,21.123l-1.218,0.166l0.41,1.158
		c0.434,1.226,0.939,2.279,1.514,3.154c-2.877-0.785-6.347-2.459-7.79-3.934l-0.28-0.286l-0.4-0.014
		C8.605,21.1,3.709,17.623,3.709,12.297c0-4.93,7.603-9.095,16.604-9.095c9.002,0,16.605,4.165,16.604,9.096
		C36.917,16.415,31.59,20.126,24.251,21.123z"/>
	<rect x="10" y="9.818" fill="#FFFFFF" width="20" height="1"/>
	<rect x="10" y="12.818" fill="#FFFFFF" width="16" height="1"/>
	<rect x="10" y="15.818" fill="#FFFFFF" width="19" height="1"/>
</g>
<g>
	<path d="M37.208,11.094C37.208,4.873,29.036,0,18.604,0S0,4.873,0,11.094c0,5.049,3.772,10.567,14.323,11.055
		c2.553,2.336,8.37,4.703,11.687,4.703h0.008l3.428-0.004l-2.895-1.841c-1.113-0.708-1.925-2.04-2.484-3.302
		C31.866,20.303,37.208,16.044,37.208,11.094z M22.541,19.922l-1.218,0.166l0.409,1.159c0.435,1.226,0.94,2.278,1.515,3.153
		c-2.877-0.785-6.347-2.459-7.79-3.936l-0.28-0.285l-0.4-0.015C6.896,19.896,2,16.421,2,11.094C2,6.164,9.604,2,18.604,2
		c9,0,16.604,4.164,16.603,9.095C35.207,15.212,29.88,18.924,22.541,19.922z"/>
	<rect x="9" y="8.818" width="20" height="1"/>
	<rect x="9" y="11.818" width="16" height="1"/>
	<rect x="9" y="14.818" width="19" height="1"/>
</g>
</svg>
