<?xml version="1.0" encoding="utf-8"?>
<!-- Generator: Adobe Illustrator 15.0.2, SVG Export Plug-In  -->
<!DOCTYPE svg PUBLIC "-//W3C//DTD SVG 1.1//EN" "http://www.w3.org/Graphics/SVG/1.1/DTD/svg11.dtd" [
	<!ENTITY ns_flows "http://ns.adobe.com/Flows/1.0/">
]>
<svg version="1.1"
	 xmlns="http://www.w3.org/2000/svg" xmlns:xlink="http://www.w3.org/1999/xlink" xmlns:a="http://ns.adobe.com/AdobeSVGViewerExtensions/3.0/"
	 x="0px" y="0px" width="11px" height="15px" viewBox="0 0 11 15" overflow="visible" enable-background="new 0 0 11 15"
	 xml:space="preserve">
<defs>
</defs>
<path fill="#5A5A5A" d="M1.549,14.867C1.548,14.867,1.548,14.867,1.549,14.867C0.834,14.867,0,14.344,0,12.872V1.996
	C0,0.523,0.834,0,1.548,0C1.992,0,2.48,0.189,2.96,0.546l6.548,4.877c0.704,0.524,1.093,1.238,1.093,2.01
	c0,0.772-0.388,1.486-1.093,2.012L2.96,14.321C2.481,14.677,1.993,14.867,1.549,14.867z M1.548,1C1.054,1,1,1.696,1,1.996v10.876
	c0,0.299,0.054,0.995,0.548,0.995c0.001,0,0.001,0,0.001,0c0.224,0,0.513-0.124,0.813-0.348L8.91,8.643
	c0.445-0.332,0.69-0.761,0.69-1.209S9.355,6.556,8.91,6.225L2.362,1.348C2.062,1.124,1.771,1,1.548,1z"/>
</svg>
