<?xml version="1.0" encoding="utf-8"?>
<!-- Generator: Adobe Illustrator 15.0.2, SVG Export Plug-In  -->
<!DOCTYPE svg PUBLIC "-//W3C//DTD SVG 1.1//EN" "http://www.w3.org/Graphics/SVG/1.1/DTD/svg11.dtd" [
	<!ENTITY ns_flows "http://ns.adobe.com/Flows/1.0/">
]>
<svg version="1.1"
	 xmlns="http://www.w3.org/2000/svg" xmlns:xlink="http://www.w3.org/1999/xlink" xmlns:a="http://ns.adobe.com/AdobeSVGViewerExtensions/3.0/"
	 x="0px" y="0px" width="79px" height="19px" viewBox="-0.407 -1.383 79 19"
	 overflow="visible" enable-background="new -0.407 -1.383 79 19" xml:space="preserve">
<defs>
</defs>
<path fill="#F26F21" d="M13.274,6.388c0-1.208-0.963-2.171-2.172-2.171L5.387,4.216v-3.96H0v15.989h11.126
	c1.208,0,2.157-0.873,2.157-2.082L13.274,6.388 M8.112,12.578h-2.61l0.017-5.104h2.594L8.112,12.578L8.112,12.578z"/>
<polyline points="22.887,3.889 28.202,3.889 28.202,16.037 22.887,16.037 22.887,3.889 "/>
<polyline points="43.573,3.889 48.891,3.889 48.891,16.037 43.573,16.037 43.573,3.889 "/>
<path d="M63.19,5.952c0-1.355-0.896-2.062-2.25-2.062H50.127v12.146h5.168V7.493h2.646v8.543l5.248-0.01V5.952"/>
<path d="M16.722,16.029c-1.208,0-2.187-0.965-2.187-2.174L14.539,0h5.154v3.889h2.254v3.604h-2.241v5.094h2.264v3.449L16.722,16.029
	"/>
<path d="M40.181,16.037l-8.899-0.008c-1.209,0-2.002-0.966-2.002-2.175L29.269,5.89c0.188-1.343,1.448-2.132,2.779-2.005h7.878
	c1.354,0,2.454,0.688,2.454,2.044v3.292h-5.188V7.468h-2.711v5.111h2.711v-1.799h5.188l-0.003,3.073
	C42.377,15.064,41.389,16.037,40.181,16.037"/>
<path d="M77.413,6.117c0-1.208-0.961-2.17-2.17-2.17h-8.853c-1.209,0-2.207,0.997-2.207,2.206l0.015,7.776
	c0,1.209,0.961,2.172,2.17,2.172h8.852c1.209,0,2.205-0.997,2.205-2.205L77.413,6.117z M72.149,12.525h-2.688v-5h2.688V12.525z"/>
</svg>
