<?xml version="1.0" encoding="utf-8"?>
<!-- Generator: Adobe Illustrator 15.0.0, SVG Export Plug-In . SVG Version: 6.00 Build 0)  -->
<!DOCTYPE svg PUBLIC "-//W3C//DTD SVG 1.1//EN" "http://www.w3.org/Graphics/SVG/1.1/DTD/svg11.dtd">
<svg version="1.1" id="Layer_1" xmlns="http://www.w3.org/2000/svg" xmlns:xlink="http://www.w3.org/1999/xlink" x="0px" y="0px"
	 width="79.164px" height="19.257px" viewBox="0 0 79.164 19.257" enable-background="new 0 0 79.164 19.257" xml:space="preserve">
<path fill="#F26F21" d="M13.681,7.771c0-1.208-0.963-2.171-2.172-2.171L5.794,5.599v-3.96H0.407v15.989h11.126
	c1.208,0,2.157-0.873,2.157-2.082L13.681,7.771 M8.519,13.96h-2.61l0.017-5.104H8.52L8.519,13.96L8.519,13.96z"/>
<polyline fill="#FFFFFF" points="23.294,5.272 28.609,5.272 28.609,17.419 23.294,17.419 23.294,5.272 "/>
<polyline fill="#FFFFFF" points="43.98,5.272 49.298,5.272 49.298,17.419 43.98,17.419 43.98,5.272 "/>
<path fill="#FFFFFF" d="M63.598,7.335c0-1.355-0.896-2.062-2.25-2.062H50.534v12.146h5.168V8.876h2.646v8.543l5.248-0.01V7.335"/>
<path fill="#FFFFFF" d="M17.129,17.412c-1.208,0-2.187-0.965-2.187-2.174l0.004-13.855H20.1v3.889h2.254v3.604h-2.241v5.094h2.264
	v3.449L17.129,17.412"/>
<path fill="#FFFFFF" d="M40.588,17.419l-8.899-0.008c-1.209,0-2.002-0.965-2.002-2.174l-0.011-7.964
	c0.188-1.343,1.448-2.132,2.779-2.005h7.878c1.354,0,2.454,0.688,2.454,2.044v3.292h-5.188V8.851h-2.711v5.111h2.711v-1.799h5.188
	l-0.003,3.074C42.784,16.447,41.796,17.419,40.588,17.419"/>
<path fill="#FFFFFF" d="M77.82,7.5c0-1.208-0.961-2.17-2.17-2.17h-8.852c-1.209,0-2.207,0.997-2.207,2.206l0.014,7.776
	c0,1.209,0.961,2.172,2.17,2.172h8.852c1.209,0,2.205-0.997,2.205-2.205L77.82,7.5z M72.557,13.907h-2.688V8.908h2.688V13.907z"/>
</svg>
