<?xml version="1.0" encoding="utf-8"?>
<!-- Generator: Adobe Illustrator 15.0.0, SVG Export Plug-In . SVG Version: 6.00 Build 0)  -->
<!DOCTYPE svg PUBLIC "-//W3C//DTD SVG 1.1//EN" "http://www.w3.org/Graphics/SVG/1.1/DTD/svg11.dtd">
<svg version="1.1" id="Layer_1" xmlns="http://www.w3.org/2000/svg" xmlns:xlink="http://www.w3.org/1999/xlink" x="0px" y="0px"
	 width="64px" height="64px" viewBox="0 0 64 64" enable-background="new 0 0 64 64" xml:space="preserve">
<path opacity="0.1" fill="#221F1F" d="M46.076,38.829l-2.577-3.133l1.296-3.845L41.3,29.794l-0.104-4.056l-3.988-0.742l-1.479-3.776
	l-4,0.664l-2.686-3.04l-3.533,1.998l-3.561-1.943l-2.637,3.081l-4.011-0.603l-1.42,3.8l-3.978,0.802l-0.04,4.056l-3.462,2.113
	l1.354,3.823l-2.529,3.174l2.578,3.134l-1.296,3.845l3.493,2.059l0.104,4.056l3.989,0.741l1.478,3.777l4.002-0.663l2.684,3.04
	l3.533-1.999l3.562,1.944l2.64-3.082l4.01,0.604l1.42-3.801l3.977-0.804l0.041-4.056l3.463-2.114l-1.355-3.823L46.076,38.829z
	 M25.709,46.125c-3.943,0.03-7.166-3.14-7.197-7.08c-0.029-3.941,3.145-7.165,7.088-7.195c3.939-0.03,7.16,3.144,7.19,7.085
	C32.82,42.875,29.65,46.095,25.709,46.125z"/>
<path opacity="0.1" fill="#221F1F" d="M60.18,14.548l-2.719-2.49l0.679-3.624l-3.665-0.415l-1.576-3.335l-3.208,1.82l-3.237-1.771
	l-1.525,3.357l-3.66,0.472l0.734,3.613l-2.68,2.532l2.719,2.492l-0.68,3.624l3.666,0.415l1.58,3.334l3.209-1.82l3.235,1.77
	l1.524-3.357l3.658-0.472L57.5,17.08L60.18,14.548z"/>
<linearGradient id="SVGID_1_" gradientUnits="userSpaceOnUse" x1="45.9092" y1="60.9072" x2="45.9092" y2="36.8301" gradientTransform="matrix(1 -0.0077 0.0077 1 -5.4424 -1.6968)">
	<stop  offset="0" style="stop-color:#000000"/>
	<stop  offset="1" style="stop-color:#4C4D4D"/>
</linearGradient>
<path fill="url(#SVGID_1_)" d="M40.874,50.719c-2.153,0.017-3.917-1.715-3.934-3.87c-0.017-2.152,1.72-3.915,3.873-3.932
	c2.155-0.017,3.917,1.719,3.933,3.872C44.764,48.943,43.029,50.702,40.874,50.719z M53.064,46.724l-1.54-1.875l0.776-2.302
	l-2.094-1.229l-0.062-2.429l-2.388-0.443l-0.883-2.259l-2.394,0.397l-1.608-1.82l-2.113,1.196l-2.13-1.164l-1.578,1.845l-2.4-0.361
	l-0.849,2.274l-2.382,0.48l-0.025,2.427l-2.071,1.265l0.81,2.287l-1.512,1.899l1.541,1.876l-0.773,2.301l2.09,1.231l0.061,2.427
	l2.391,0.444l0.882,2.26l2.395-0.397l1.606,1.819l2.115-1.196l2.131,1.164l1.578-1.845l2.4,0.362l0.848-2.274l2.383-0.481
	l0.024-2.428l2.073-1.263l-0.812-2.289L53.064,46.724z"/>
</svg>
