<?xml version="1.0" encoding="utf-8"?>
<!-- Generator: Adobe Illustrator 14.0.0, SVG Export Plug-In . SVG Version: 6.00 Build 43363)  -->
<!DOCTYPE svg PUBLIC "-//W3C//DTD SVG 1.1//EN" "http://www.w3.org/Graphics/SVG/1.1/DTD/svg11.dtd">
<svg version="1.1" id="Layer_1" xmlns="http://www.w3.org/2000/svg" xmlns:xlink="http://www.w3.org/1999/xlink" x="0px" y="0px"
	 width="100px" height="134px" viewBox="0 0 100 134" enable-background="new 0 0 100 134" xml:space="preserve">
<g id="opzioni_7_">
	<path opacity="0.1" fill="#FFFFFF" enable-background="new    " d="M64.363,71.544l-2.452-2.985l1.274-3.629l-3.348-1.974
		l-0.07-3.841l-3.824-0.731l-1.394-3.586l-3.853,0.598l-2.557-2.9l-3.41,1.868l-3.412-1.868l-2.558,2.9l-3.85-0.601l-1.394,3.588
		l-3.825,0.731l-0.072,3.839l-3.343,1.975l1.273,3.632l-2.453,2.983l2.453,2.985l-1.273,3.633l3.344,1.975l0.07,3.842l3.828,0.731
		l1.393,3.588l3.851-0.603l2.557,2.896l3.412-1.865l3.408,1.865l2.558-2.896l3.853,0.603l1.392-3.588l3.826-0.731l0.07-3.842
		l3.348-1.975l-1.273-3.633L64.363,71.544z M44.736,78.305c-3.792,0-6.868-3.023-6.868-6.757s3.074-6.764,6.868-6.764
		c3.786,0,6.856,3.028,6.856,6.764C51.593,75.279,48.522,78.305,44.736,78.305z"/>
	<path opacity="0.1" fill="#FFFFFF" enable-background="new    " d="M78.1,48.656l-2.593-2.377l0.679-3.427l-3.521-0.421
		l-1.489-3.169l-3.098,1.699l-3.1-1.699l-1.494,3.167l-3.518,0.419l0.678,3.429l-2.592,2.379l2.592,2.376l-0.678,3.427l3.518,0.418
		l1.494,3.172l3.1-1.702l3.098,1.702l1.49-3.172l3.52-0.418l-0.678-3.427L78.1,48.656z"/>
	<g>
		<g opacity="0.3">
			<path d="M65.068,84.938l-1.467-1.787l0.762-2.172l-2.002-1.18l-0.045-2.302l-2.289-0.438l-0.834-2.143l-2.303,0.359l-1.533-1.735
				l-2.037,1.116l-2.037-1.116l-1.532,1.735l-2.302-0.361l-0.834,2.145l-2.291,0.438l-0.043,2.302l-1.999,1.18l0.761,2.172
				l-1.47,1.787l1.47,1.789l-0.761,2.172l1.999,1.181l0.039,2.3l2.293,0.438l0.832,2.146l2.307-0.357l1.53,1.732l2.038-1.117
				l2.039,1.117l1.531-1.732l2.305,0.359l0.834-2.146l2.287-0.438l0.045-2.3l2.002-1.182l-0.76-2.172L65.068,84.938z M53.318,88.632
				c-2.07,0-3.749-1.651-3.749-3.692c0-2.039,1.678-3.695,3.749-3.695s3.752,1.656,3.752,3.695
				C57.07,86.98,55.389,88.632,53.318,88.632z"/>
		</g>
		<g>
			
				<linearGradient id="SVGID_1_" gradientUnits="userSpaceOnUse" x1="552.2744" y1="710.9688" x2="552.2744" y2="688.1699" gradientTransform="matrix(1 0 0 1 -493 -620.5)">
				<stop  offset="0" style="stop-color:#B1B3B6"/>
				<stop  offset="1" style="stop-color:#FFFFFF"/>
			</linearGradient>
			<path fill="url(#SVGID_1_)" d="M71.021,79.07l-1.467-1.785l0.764-2.172l-2.002-1.184l-0.043-2.298l-2.295-0.438l-0.828-2.146
				l-2.303,0.36l-1.533-1.738l-2.039,1.121l-2.041-1.121l-1.529,1.738L53.4,69.044l-0.832,2.149l-2.292,0.438l-0.042,2.297
				l-2.002,1.182l0.763,2.175l-1.468,1.786l1.468,1.785l-0.763,2.172l2.001,1.184l0.041,2.301l2.293,0.438l0.83,2.143l2.302-0.354
				l1.534,1.73l2.041-1.117l2.039,1.117l1.533-1.734l2.303,0.363l0.828-2.147l2.295-0.438l0.041-2.3l2.004-1.183l-0.764-2.174
				L71.021,79.07z M59.275,82.764c-2.069,0-3.752-1.652-3.752-3.689c0-2.041,1.683-3.694,3.752-3.694
				c2.07,0,3.748,1.653,3.748,3.694C63.023,81.109,61.348,82.764,59.275,82.764z"/>
		</g>
	</g>
</g>
</svg>
