<?xml version="1.0" encoding="utf-8"?>
<!-- Generator: Adobe Illustrator 14.0.0, SVG Export Plug-In . SVG Version: 6.00 Build 43363)  -->
<!DOCTYPE svg PUBLIC "-//W3C//DTD SVG 1.1//EN" "http://www.w3.org/Graphics/SVG/1.1/DTD/svg11.dtd">
<svg version="1.1" id="Layer_1" xmlns="http://www.w3.org/2000/svg" xmlns:xlink="http://www.w3.org/1999/xlink" x="0px" y="0px"
	 width="100px" height="134px" viewBox="0 0 100 134" enable-background="new 0 0 100 134" xml:space="preserve">
<g id="opzioni_7_">
	<path opacity="0.1" fill="#221F1F" enable-background="new    " d="M64.363,71.544l-2.452-2.986l1.274-3.629l-3.347-1.974
		l-0.071-3.841l-3.823-0.731l-1.394-3.586l-3.853,0.598l-2.557-2.9l-3.41,1.868l-3.412-1.868l-2.558,2.9l-3.85-0.601l-1.394,3.588
		l-3.825,0.731l-0.072,3.839l-3.343,1.975l1.273,3.631l-2.453,2.984l2.453,2.986l-1.273,3.632l3.344,1.975l0.07,3.841l3.828,0.732
		l1.393,3.588l3.851-0.602l2.557,2.896l3.412-1.866l3.408,1.866l2.558-2.896l3.853,0.602l1.391-3.588l3.827-0.732l0.07-3.841
		l3.347-1.975l-1.273-3.632L64.363,71.544z M44.736,78.305c-3.792,0-6.868-3.024-6.868-6.757s3.074-6.764,6.868-6.764
		c3.786,0,6.856,3.029,6.856,6.764C51.593,75.279,48.522,78.305,44.736,78.305z"/>
	<path opacity="0.1" fill="#221F1F" enable-background="new    " d="M78.1,48.656l-2.593-2.377l0.679-3.427l-3.521-0.421
		l-1.489-3.169l-3.098,1.699l-3.099-1.699l-1.494,3.167l-3.518,0.419l0.677,3.429l-2.591,2.379l2.591,2.376l-0.677,3.427
		l3.518,0.418l1.494,3.172l3.099-1.702l3.098,1.702l1.49-3.172l3.52-0.418l-0.678-3.427L78.1,48.656z"/>
	<g>
		<g opacity="0.3">
			<path d="M65.068,84.938l-1.466-1.787l0.761-2.172l-2.002-1.18l-0.045-2.302l-2.288-0.438l-0.834-2.143l-2.304,0.359l-1.532-1.735
				l-2.038,1.116l-2.037-1.116l-1.532,1.735l-2.302-0.361l-0.834,2.145l-2.291,0.438l-0.043,2.302l-1.999,1.18l0.761,2.172
				l-1.47,1.787l1.47,1.788l-0.761,2.172l1.999,1.181l0.039,2.3l2.293,0.438l0.832,2.146l2.307-0.358l1.53,1.733l2.039-1.117
				l2.038,1.117l1.532-1.733l2.304,0.36l0.834-2.147l2.288-0.438l0.045-2.3l2.002-1.181l-0.761-2.172L65.068,84.938z M53.318,88.632
				c-2.07,0-3.748-1.652-3.748-3.692s1.678-3.696,3.748-3.696s3.752,1.656,3.752,3.696S55.389,88.632,53.318,88.632z"/>
		</g>
		<g>
			
				<linearGradient id="SVGID_1_" gradientUnits="userSpaceOnUse" x1="279.7754" y1="-264.9683" x2="279.7754" y2="-242.1694" gradientTransform="matrix(1 0 0 -1 -220.5 -174.5)">
				<stop  offset="0" style="stop-color:#000000"/>
				<stop  offset="1" style="stop-color:#4C4D4D"/>
			</linearGradient>
			<path fill="url(#SVGID_1_)" d="M71.021,79.07l-1.466-1.785l0.764-2.172l-2.003-1.184l-0.042-2.297l-2.295-0.438l-0.829-2.146
				l-2.302,0.36l-1.534-1.738l-2.038,1.121l-2.042-1.121l-1.529,1.738L53.4,69.044l-0.832,2.149l-2.291,0.438l-0.042,2.297
				l-2.002,1.182l0.763,2.174l-1.468,1.786l1.468,1.785l-0.763,2.173l2.001,1.183l0.041,2.3l2.293,0.438l0.83,2.143l2.302-0.354
				l1.534,1.731l2.042-1.117l2.038,1.117l1.534-1.735l2.302,0.363l0.828-2.147l2.295-0.438l0.042-2.3l2.003-1.183l-0.764-2.173
				L71.021,79.07z M59.276,82.764c-2.07,0-3.752-1.653-3.752-3.69c0-2.041,1.682-3.694,3.752-3.694s3.747,1.653,3.747,3.694
				C63.023,81.11,61.347,82.764,59.276,82.764z"/>
		</g>
	</g>
</g>
</svg>
