<?xml version="1.0" encoding="utf-8"?>
<!-- Generator: Adobe Illustrator 15.0.2, SVG Export Plug-In . SVG Version: 6.00 Build 0)  -->
<!DOCTYPE svg PUBLIC "-//W3C//DTD SVG 1.1//EN" "http://www.w3.org/Graphics/SVG/1.1/DTD/svg11.dtd" [
	<!ENTITY ns_extend "http://ns.adobe.com/Extensibility/1.0/">
	<!ENTITY ns_ai "http://ns.adobe.com/AdobeIllustrator/10.0/">
	<!ENTITY ns_graphs "http://ns.adobe.com/Graphs/1.0/">
	<!ENTITY ns_vars "http://ns.adobe.com/Variables/1.0/">
	<!ENTITY ns_imrep "http://ns.adobe.com/ImageReplacement/1.0/">
	<!ENTITY ns_sfw "http://ns.adobe.com/SaveForWeb/1.0/">
	<!ENTITY ns_custom "http://ns.adobe.com/GenericCustomNamespace/1.0/">
	<!ENTITY ns_adobe_xpath "http://ns.adobe.com/XPath/1.0/">
]>
<svg version="1.1" id="Layer_1" xmlns:x="&ns_extend;" xmlns:i="&ns_ai;" xmlns:graph="&ns_graphs;"
	 xmlns="http://www.w3.org/2000/svg" xmlns:xlink="http://www.w3.org/1999/xlink" x="0px" y="0px" width="110px" height="137px"
	 viewBox="0 0 110 137" enable-background="new 0 0 110 137" xml:space="preserve">
<metadata>
	<sfw  xmlns="&ns_sfw;">
		<slices></slices>
		<sliceSourceBounds  height="132.595" width="100.271" y="-134.804" x="3.356" bottomLeftOrigin="true"></sliceSourceBounds>
	</sfw>
</metadata>
<g>
	<g id="multimedia_6_">
		
			<linearGradient id="SVGID_1_" gradientUnits="userSpaceOnUse" x1="1626.9541" y1="-467.8096" x2="1709.1836" y2="-325.3839" gradientTransform="matrix(-1 0.0077 -0.0077 -1 1720.7031 -341.9082)">
			<stop  offset="0" style="stop-color:#FFFFFF"/>
			<stop  offset="0.125" style="stop-color:#EFEFEF"/>
			<stop  offset="0.3572" style="stop-color:#D7D8D8"/>
			<stop  offset="0.5" style="stop-color:#CECFCF"/>
			<stop  offset="0.6407" style="stop-color:#D2D3D3"/>
			<stop  offset="0.7864" style="stop-color:#DFDFDF"/>
			<stop  offset="0.934" style="stop-color:#F3F3F3"/>
			<stop  offset="1" style="stop-color:#FFFFFF"/>
		</linearGradient>
		<polygon fill="url(#SVGID_1_)" points="103.628,134.804 4.3,125.103 3.356,2.975 102.604,2.209 		"/>
		<polygon fill="#FFFFFF" points="101.642,134.61 103.628,134.804 102.604,2.209 100.618,2.224 		"/>
		
			<rect x="3.358" y="2.592" transform="matrix(-1 0.0077 -0.0077 -1 105.9896 5.7718)" fill="#FFFFFF" width="99.251" height="0.997"/>
		<polygon fill="#FFFFFF" points="5.293,125.206 4.3,125.103 3.356,2.975 4.349,2.969 		"/>
	</g>
	<g id="multimedia_4_">
		
			<rect x="34.455" y="74.796" transform="matrix(-1 0.0077 -0.0077 -1 110.8703 173.7763)" opacity="0.1" width="41.287" height="24.613"/>
		
			<rect x="33.487" y="66.705" transform="matrix(-0.9778 0.2095 -0.2095 -0.9778 121.4502 124.5183)" opacity="0.1" width="41.288" height="3.971"/>
		<g>
			<g opacity="0.3">
				<path d="M39.425,62.447c-6.25,0.049-11.275,5.152-11.227,11.401c0.049,6.249,5.152,11.275,11.402,11.228
					c6.249-0.049,11.274-5.153,11.226-11.402S45.675,62.398,39.425,62.447z"/>
			</g>
			<g>
				
					<linearGradient id="SVGID_2_" gradientUnits="userSpaceOnUse" x1="41.5059" y1="84.2188" x2="41.5059" y2="61.5903" gradientTransform="matrix(1 -0.0077 0.0077 1 -5.7549 -1.9702)">
					<stop  offset="0" style="stop-color:#000000"/>
					<stop  offset="1" style="stop-color:#4C4D4D"/>
				</linearGradient>
				<path fill="url(#SVGID_2_)" d="M36.225,59.297c-6.25,0.048-11.274,5.152-11.226,11.4c0.047,6.249,5.151,11.275,11.401,11.228
					c6.25-0.049,11.275-5.153,11.226-11.402C47.578,64.273,42.474,59.248,36.225,59.297z M40.553,72.016l-5.797,4.483
					c-1.052,0.815-1.921,0.394-1.931-0.938l-0.077-9.903c-0.01-1.33,0.853-1.766,1.917-0.969l5.864,4.394
					C41.594,69.881,41.604,71.2,40.553,72.016z"/>
			</g>
		</g>
	</g>
</g>
</svg>
