<?xml version="1.0" encoding="utf-8"?>
<!-- Generator: Adobe Illustrator 15.0.2, SVG Export Plug-In . SVG Version: 6.00 Build 0)  -->
<!DOCTYPE svg PUBLIC "-//W3C//DTD SVG 1.1//EN" "http://www.w3.org/Graphics/SVG/1.1/DTD/svg11.dtd" [
	<!ENTITY ns_extend "http://ns.adobe.com/Extensibility/1.0/">
	<!ENTITY ns_ai "http://ns.adobe.com/AdobeIllustrator/10.0/">
	<!ENTITY ns_graphs "http://ns.adobe.com/Graphs/1.0/">
	<!ENTITY ns_vars "http://ns.adobe.com/Variables/1.0/">
	<!ENTITY ns_imrep "http://ns.adobe.com/ImageReplacement/1.0/">
	<!ENTITY ns_sfw "http://ns.adobe.com/SaveForWeb/1.0/">
	<!ENTITY ns_custom "http://ns.adobe.com/GenericCustomNamespace/1.0/">
	<!ENTITY ns_adobe_xpath "http://ns.adobe.com/XPath/1.0/">
]>
<svg version="1.1" id="Layer_1" xmlns:x="&ns_extend;" xmlns:i="&ns_ai;" xmlns:graph="&ns_graphs;"
	 xmlns="http://www.w3.org/2000/svg" xmlns:xlink="http://www.w3.org/1999/xlink" x="0px" y="0px" width="110px" height="137px"
	 viewBox="0 0 110 137" enable-background="new 0 0 110 137" xml:space="preserve">
<metadata>
	<sfw  xmlns="&ns_sfw;">
		<slices></slices>
		<sliceSourceBounds  height="133.361" width="100.193" y="0.541" x="7.313" bottomLeftOrigin="true"></sliceSourceBounds>
	</sfw>
</metadata>
<g id="opzioni_14_">
	
		<linearGradient id="SVGID_1_" gradientUnits="userSpaceOnUse" x1="268.2402" y1="935.125" x2="350.4671" y2="792.7037" gradientTransform="matrix(1 -0.0077 0.0077 1 -260.3332 -793.046)">
		<stop  offset="0.05" style="stop-color:#B4B4B4"/>
		<stop  offset="0.1125" style="stop-color:#A4A4A4"/>
		<stop  offset="0.282" style="stop-color:#7C7C7C"/>
		<stop  offset="0.4171" style="stop-color:#646464"/>
		<stop  offset="0.5" style="stop-color:#5B5B5B"/>
		<stop  offset="0.6035" style="stop-color:#5F5F5F"/>
		<stop  offset="0.7108" style="stop-color:#6C6C6C"/>
		<stop  offset="0.8197" style="stop-color:#808080"/>
		<stop  offset="0.9292" style="stop-color:#9D9D9D"/>
		<stop  offset="1" style="stop-color:#B4B4B4"/>
	</linearGradient>
	<polygon fill="url(#SVGID_1_)" points="8.838,136.459 108.006,125.225 107.061,3.098 7.813,3.863 	"/>
	<polygon fill="#5B5B5B" points="10.822,136.234 8.838,136.459 7.813,3.863 9.798,3.849 	"/>
	
		<rect x="7.816" y="3.481" transform="matrix(-1 0.0077 -0.0077 -1 114.9142 7.5181)" fill="#5B5B5B" width="99.253" height="0.998"/>
	<polygon fill="#5B5B5B" points="107.014,125.343 108.006,125.225 107.061,3.098 106.068,3.105 	"/>
</g>
<g id="opzioni_13_">
	<path opacity="0.5" fill="#FFFFFF" enable-background="new    " d="M71.68,83.895l-2.412-2.932l1.213-3.6l-3.271-1.926
		l-0.099-3.797l-3.731-0.693l-1.385-3.535l-3.744,0.622l-2.513-2.847l-3.308,1.871l-3.333-1.82l-2.468,2.885l-3.753-0.563
		l-1.33,3.556l-3.722,0.751l-0.038,3.796l-3.241,1.979l1.268,3.578l-2.367,2.971l2.413,2.935l-1.212,3.599l3.27,1.928l0.097,3.796
		l3.734,0.694l1.382,3.535l3.747-0.621l2.512,2.846l3.307-1.87l3.333,1.819l2.471-2.886l3.755,0.566l1.328-3.558l3.724-0.754
		l0.037-3.796l3.242-1.979l-1.27-3.577L71.68,83.895z M52.616,90.725c-3.691,0.028-6.708-2.938-6.737-6.627
		c-0.028-3.688,2.943-6.707,6.635-6.734c3.688-0.028,6.701,2.941,6.73,6.631C59.271,87.684,56.307,90.695,52.616,90.725z"/>
	<path opacity="0.5" fill="#FFFFFF" enable-background="new    " d="M84.882,61.167l-2.545-2.332l0.636-3.392l-3.431-0.388
		l-1.476-3.123l-3.004,1.704l-3.029-1.657l-1.428,3.143l-3.426,0.442l0.687,3.382l-2.507,2.37l2.545,2.333l-0.637,3.393l3.431,0.389
		l1.479,3.12l3.005-1.704l3.027,1.657l1.428-3.143l3.424-0.442l-0.688-3.382L84.882,61.167z"/>
	
		<linearGradient id="SVGID_2_" gradientUnits="userSpaceOnUse" x1="320.2783" y1="-297.5747" x2="320.2783" y2="-275.0366" gradientTransform="matrix(1 -0.0077 -0.0077 -1 -255.6995 -192.4659)">
		<stop  offset="0" style="stop-color:#000000"/>
		<stop  offset="1" style="stop-color:#4C4D4D"/>
	</linearGradient>
	<path fill="url(#SVGID_2_)" d="M66.811,95.023c-2.015,0.017-3.666-1.604-3.682-3.623c-0.016-2.015,1.609-3.664,3.625-3.68
		c2.018-0.016,3.666,1.609,3.682,3.625C70.451,93.363,68.828,95.009,66.811,95.023z M78.223,91.285l-1.443-1.756l0.728-2.154
		l-1.96-1.15l-0.059-2.272l-2.234-0.415l-0.827-2.114l-2.239,0.372l-1.506-1.704l-1.979,1.119l-1.994-1.089l-1.477,1.727
		l-2.246-0.339l-0.797,2.13l-2.229,0.449l-0.023,2.271L56,87.544l0.757,2.142l-1.415,1.777l1.443,1.756l-0.725,2.153l1.955,1.151
		l0.059,2.272l2.236,0.415l0.826,2.116l2.241-0.373l1.503,1.704l1.98-1.121l1.994,1.09l1.478-1.727l2.247,0.338l0.794-2.129
		l2.229-0.449l0.022-2.271l1.94-1.183l-0.762-2.144L78.223,91.285z"/>
</g>
<path opacity="0.4" enable-background="new    " d="M71.734,96.998l-1.264-1.538l0.637-1.888l-1.717-1.01l-0.053-1.992l-1.958-0.363
	l-0.726-1.854l-1.963,0.326l-1.319-1.492l-1.733,0.98l-1.746-0.955L58.6,88.729l-1.971-0.299l-0.695,1.866l-1.954,0.394
	l-0.021,1.992l-1.699,1.037l0.664,1.875l-1.24,1.559l1.264,1.539l-0.635,1.889l1.715,1.01l0.05,1.99l1.962,0.363l0.724,1.854
	l1.963,0.347l1.317,0.819l1.849-0.981l1.635,0.955l1.296-1.513l1.968,0.298l0.697-1.867l1.953-0.395l0.021-1.992l1.701-1.035
	l-0.667-1.877L71.734,96.998z M61.734,100.275c-1.767,0.014-3.213-1.406-3.228-3.176c-0.014-1.766,1.411-3.211,3.177-3.225
	c1.769-0.016,3.213,1.409,3.228,3.175C64.925,98.818,63.502,100.262,61.734,100.275z"/>
</svg>
