<?xml version="1.0" encoding="utf-8"?>
<!-- Generator: Adobe Illustrator 15.0.2, SVG Export Plug-In . SVG Version: 6.00 Build 0)  -->
<!DOCTYPE svg PUBLIC "-//W3C//DTD SVG 1.1//EN" "http://www.w3.org/Graphics/SVG/1.1/DTD/svg11.dtd" [
	<!ENTITY ns_extend "http://ns.adobe.com/Extensibility/1.0/">
	<!ENTITY ns_ai "http://ns.adobe.com/AdobeIllustrator/10.0/">
	<!ENTITY ns_graphs "http://ns.adobe.com/Graphs/1.0/">
	<!ENTITY ns_vars "http://ns.adobe.com/Variables/1.0/">
	<!ENTITY ns_imrep "http://ns.adobe.com/ImageReplacement/1.0/">
	<!ENTITY ns_sfw "http://ns.adobe.com/SaveForWeb/1.0/">
	<!ENTITY ns_custom "http://ns.adobe.com/GenericCustomNamespace/1.0/">
	<!ENTITY ns_adobe_xpath "http://ns.adobe.com/XPath/1.0/">
]>
<svg version="1.1" id="Layer_1" xmlns:x="&ns_extend;" xmlns:i="&ns_ai;" xmlns:graph="&ns_graphs;"
	 xmlns="http://www.w3.org/2000/svg" xmlns:xlink="http://www.w3.org/1999/xlink" x="0px" y="0px" width="110px" height="137px"
	 viewBox="0 0 110 137" enable-background="new 0 0 110 137" xml:space="preserve">
<metadata>
	<sfw  xmlns="&ns_sfw;">
		<slices></slices>
		<sliceSourceBounds  height="133.362" width="100.192" y="1.787" x="7.526" bottomLeftOrigin="true"></sliceSourceBounds>
	</sfw>
</metadata>
<g>
	<g id="sistemi_2_">
		
			<linearGradient id="SVGID_1_" gradientUnits="userSpaceOnUse" x1="1647.9629" y1="142.21" x2="1725.6597" y2="7.6352" gradientTransform="matrix(-1 0.0077 0.0077 1 1746.5602 -15.5125)">
			<stop  offset="0.05" style="stop-color:#FFFFFF"/>
			<stop  offset="0.1625" style="stop-color:#EFEFEF"/>
			<stop  offset="0.3715" style="stop-color:#D7D8D8"/>
			<stop  offset="0.5" style="stop-color:#CECFCF"/>
			<stop  offset="0.6407" style="stop-color:#D2D3D3"/>
			<stop  offset="0.7864" style="stop-color:#DFDFDF"/>
			<stop  offset="0.934" style="stop-color:#F3F3F3"/>
			<stop  offset="1" style="stop-color:#FFFFFF"/>
		</linearGradient>
		<polygon fill="url(#SVGID_1_)" points="107.193,1.851 8.026,13.085 8.971,135.213 108.219,134.445 		"/>
		<polygon fill="#FFFFFF" points="105.21,2.075 107.193,1.851 108.219,134.445 106.233,134.46 		"/>
		
			<rect x="8.966" y="133.832" transform="matrix(-1 0.0077 -0.0077 -1 118.2179 268.2036)" fill="#FFFFFF" width="99.25" height="0.997"/>
		<polygon fill="#FFFFFF" points="9.02,12.966 8.026,13.085 8.971,135.213 9.964,135.205 		"/>
	</g>
	
		<rect x="58.734" y="70.764" transform="matrix(-1 0.0077 -0.0077 -1 139.5352 162.4265)" fill="#5B5B5B" width="21.438" height="21.438"/>
	<rect x="34.013" y="41.345" transform="matrix(1 -0.0077 0.0077 1 -0.4018 0.3479)" opacity="0.1" width="21.44" height="21.438"/>
	
		<rect x="34.197" y="65.164" transform="matrix(1 -0.0077 0.0077 1 -0.5863 0.3501)" opacity="0.1" width="21.438" height="21.439"/>
	
		<rect x="57.832" y="41.162" transform="matrix(1 -0.0077 0.0077 1 -0.3985 0.5308)" opacity="0.1" width="21.438" height="21.438"/>
	
		<linearGradient id="SVGID_2_" gradientUnits="userSpaceOnUse" x1="78.3271" y1="91.9023" x2="78.3271" y2="70.4648" gradientTransform="matrix(1 -0.0077 0.0077 1 -5.7556 -1.9745)">
		<stop  offset="0" style="stop-color:#000000"/>
		<stop  offset="1" style="stop-color:#4C4D4D"/>
	</linearGradient>
	<polygon fill="url(#SVGID_2_)" points="62.396,67.966 83.833,67.801 83.999,89.238 62.562,89.403 	"/>
</g>
</svg>
