<?xml version="1.0" encoding="utf-8"?>
<!-- Generator: Adobe Illustrator 15.0.2, SVG Export Plug-In . SVG Version: 6.00 Build 0)  -->
<!DOCTYPE svg PUBLIC "-//W3C//DTD SVG 1.1//EN" "http://www.w3.org/Graphics/SVG/1.1/DTD/svg11.dtd" [
	<!ENTITY ns_extend "http://ns.adobe.com/Extensibility/1.0/">
	<!ENTITY ns_ai "http://ns.adobe.com/AdobeIllustrator/10.0/">
	<!ENTITY ns_graphs "http://ns.adobe.com/Graphs/1.0/">
	<!ENTITY ns_vars "http://ns.adobe.com/Variables/1.0/">
	<!ENTITY ns_imrep "http://ns.adobe.com/ImageReplacement/1.0/">
	<!ENTITY ns_sfw "http://ns.adobe.com/SaveForWeb/1.0/">
	<!ENTITY ns_custom "http://ns.adobe.com/GenericCustomNamespace/1.0/">
	<!ENTITY ns_adobe_xpath "http://ns.adobe.com/XPath/1.0/">
]>
<svg version="1.1" id="Layer_1" xmlns:x="&ns_extend;" xmlns:i="&ns_ai;" xmlns:graph="&ns_graphs;"
	 xmlns="http://www.w3.org/2000/svg" xmlns:xlink="http://www.w3.org/1999/xlink" x="0px" y="0px" width="110px" height="137px"
	 viewBox="0 0 110 137" enable-background="new 0 0 110 137" xml:space="preserve">
<metadata>
	<sfw  xmlns="&ns_sfw;">
		<slices></slices>
		<sliceSourceBounds  height="132.595" width="100.271" y="-136.101" x="2.729" bottomLeftOrigin="true"></sliceSourceBounds>
	</sfw>
</metadata>
<g id="stanze_12_">
	
		<linearGradient id="SVGID_1_" gradientUnits="userSpaceOnUse" x1="16.9517" y1="143.0547" x2="94.6489" y2="8.4791" gradientTransform="matrix(1 -0.0077 0.0077 1 -5.7549 -1.9702)">
		<stop  offset="0.05" style="stop-color:#FFFFFF"/>
		<stop  offset="0.1625" style="stop-color:#EFEFEF"/>
		<stop  offset="0.3715" style="stop-color:#D7D8D8"/>
		<stop  offset="0.5" style="stop-color:#CECFCF"/>
		<stop  offset="0.6407" style="stop-color:#D2D3D3"/>
		<stop  offset="0.7864" style="stop-color:#DFDFDF"/>
		<stop  offset="0.934" style="stop-color:#F3F3F3"/>
		<stop  offset="1" style="stop-color:#FFFFFF"/>
	</linearGradient>
	<polygon fill="url(#SVGID_1_)" points="2.729,3.506 102.057,13.207 103,135.334 3.753,136.102 	"/>
	<polygon fill="#FFFFFF" points="4.715,3.699 2.729,3.506 3.753,136.102 5.738,136.086 	"/>
	<rect x="3.748" y="134.72" transform="matrix(1 -0.0077 0.0077 1 -1.0428 0.4163)" fill="#FFFFFF" width="99.25" height="0.998"/>
	<polygon fill="#FFFFFF" points="101.063,13.103 102.057,13.207 103,135.334 102.008,135.341 	"/>
</g>
<g id="stanze_11_">
	<polygon opacity="0.1" fill="#5E5E5E" points="51.673,65.224 67.949,65.099 67.744,38.373 35.19,38.624 35.559,86.263 
		51.835,86.137 	"/>
	
		<rect x="51.483" y="65.124" transform="matrix(-1 0.0077 -0.0077 -1 118.6336 150.4342)" fill="#5B5B5B" width="15.085" height="20.644"/>
	
		<linearGradient id="SVGID_2_" gradientUnits="userSpaceOnUse" x1="67.626" y1="85.3389" x2="67.626" y2="64.6948" gradientTransform="matrix(1 -0.0077 0.0077 1 -5.7549 -1.9702)">
		<stop  offset="0" style="stop-color:#000000"/>
		<stop  offset="1" style="stop-color:#4C4D4D"/>
	</linearGradient>
	<polygon fill="url(#SVGID_2_)" points="54.827,62.258 69.911,62.142 70.071,82.785 54.986,82.901 	"/>
</g>
</svg>
