<?xml version="1.0" encoding="utf-8"?>
<!-- Generator: Adobe Illustrator 15.0.2, SVG Export Plug-In . SVG Version: 6.00 Build 0)  -->
<!DOCTYPE svg PUBLIC "-//W3C//DTD SVG 1.1//EN" "http://www.w3.org/Graphics/SVG/1.1/DTD/svg11.dtd" [
	<!ENTITY ns_extend "http://ns.adobe.com/Extensibility/1.0/">
	<!ENTITY ns_ai "http://ns.adobe.com/AdobeIllustrator/10.0/">
	<!ENTITY ns_graphs "http://ns.adobe.com/Graphs/1.0/">
	<!ENTITY ns_vars "http://ns.adobe.com/Variables/1.0/">
	<!ENTITY ns_imrep "http://ns.adobe.com/ImageReplacement/1.0/">
	<!ENTITY ns_sfw "http://ns.adobe.com/SaveForWeb/1.0/">
	<!ENTITY ns_custom "http://ns.adobe.com/GenericCustomNamespace/1.0/">
	<!ENTITY ns_adobe_xpath "http://ns.adobe.com/XPath/1.0/">
]>
<svg version="1.1" id="Layer_1" xmlns:x="&ns_extend;" xmlns:i="&ns_ai;" xmlns:graph="&ns_graphs;"
	 xmlns="http://www.w3.org/2000/svg" xmlns:xlink="http://www.w3.org/1999/xlink" x="0px" y="0px" width="28px" height="25px"
	 viewBox="0 0 28 25" enable-background="new 0 0 28 25" xml:space="preserve">
<metadata>
	<sfw  xmlns="&ns_sfw;">
		<slices></slices>
		<sliceSourceBounds  y="388.434" x="625.5" width="27.705" height="24.566" bottomLeftOrigin="true"></sliceSourceBounds>
	</sfw>
</metadata>
<path fill="#FFFFFF" d="M26.348,17.785c-0.113-0.561-0.33-1.078-0.627-1.545l1-0.999l-1.301-1.302l-0.975,0.976
	c-0.5-0.343-1.068-0.592-1.685-0.718v-0.578h0.111v0.002c0.466,0,0.847-0.381,0.847-0.847V10.71c0-0.466-0.381-0.847-0.847-0.847
	h-1.078c-0.466,0-0.959-0.364-1.096-0.81l-0.642-1.592c-0.216-0.413-0.121-1.021,0.207-1.35l0.846-0.844
	c0.328-0.33,0.328-0.869,0-1.198L19.648,2.61c-0.328-0.33-0.867-0.33-1.196,0l-0.794,0.793c-0.329,0.33-0.932,0.414-1.34,0.188
	l-1.889-0.799c-0.445-0.14-0.808-0.636-0.808-1.102V0.847C13.621,0.381,13.24,0,12.774,0H10.71c-0.466,0-0.847,0.381-0.847,0.847
	V1.69c0,0.466-0.364,0.96-0.809,1.098L7.311,3.507C6.9,3.727,6.295,3.638,5.965,3.308L5.267,2.61c-0.33-0.33-0.869-0.33-1.198,0
	L2.61,4.069c-0.33,0.33-0.33,0.869,0,1.198l0.698,0.698c0.33,0.33,0.419,0.935,0.199,1.346L2.788,9.054
	C2.65,9.499,2.156,9.863,1.69,9.863H0.847C0.381,9.863,0,10.245,0,10.71v2.063c0,0.466,0.381,0.847,0.847,0.847H1.69
	c0.466,0,0.96,0.364,1.099,0.81l0.764,1.826C3.776,16.665,3.689,17.27,3.36,17.6l-0.75,0.75c-0.33,0.328-0.33,0.867,0,1.196
	l1.459,1.46c0.33,0.329,0.869,0.329,1.198,0l0.781-0.781c0.33-0.328,0.936-0.42,1.348-0.203l1.658,0.676
	c0.445,0.138,0.81,0.631,0.81,1.097v1.078c0,0.466,0.381,0.847,0.847,0.847h2.063c0.466,0,0.847-0.381,0.847-0.847v-1.078
	c0-0.466,0.364-0.96,0.809-1.099l1.809-0.754c0.37-0.201,0.89-0.138,1.231,0.117c0.135,0.436,0.312,0.852,0.562,1.219L17.08,22.23
	l1.3,1.301l0.968-0.969c0.475,0.307,1.004,0.53,1.575,0.646v1.357h1.839v-1.357c0.6-0.121,1.156-0.359,1.646-0.689l1.012,1.013
	l1.301-1.302l-1.025-1.022c0.312-0.476,0.537-1.009,0.652-1.584h1.357v-0.001v-1.838H26.348z M20.922,14.056v0.142
	c-0.043,0.009-0.081,0.028-0.123,0.038C20.835,14.172,20.873,14.112,20.922,14.056z M11.742,17.379
	c-3.112,0-5.636-2.523-5.636-5.637c0-3.112,2.524-5.636,5.636-5.636c3.113,0,5.637,2.524,5.637,5.636
	C17.379,14.855,14.855,17.379,11.742,17.379z"/>
</svg>
