<?xml version="1.0" encoding="utf-8"?>
<!-- Generator: Adobe Illustrator 15.0.2, SVG Export Plug-In  -->
<!DOCTYPE svg PUBLIC "-//W3C//DTD SVG 1.1//EN" "http://www.w3.org/Graphics/SVG/1.1/DTD/svg11.dtd" [
	<!ENTITY ns_flows "http://ns.adobe.com/Flows/1.0/">
]>
<svg version="1.1"
	 xmlns="http://www.w3.org/2000/svg" xmlns:xlink="http://www.w3.org/1999/xlink" xmlns:a="http://ns.adobe.com/AdobeSVGViewerExtensions/3.0/"
	 x="0px" y="0px" width="28px" height="25px" viewBox="0 0 28 25" overflow="visible" enable-background="new 0 0 28 25"
	 xml:space="preserve">
<defs>
</defs>
<g>
	<path fill="#5A5A5A" d="M22.872,13.621c0.466,0,0.847-0.381,0.847-0.847V10.71c0-0.466-0.381-0.847-0.847-0.847h-1.078
		c-0.466,0-0.959-0.364-1.096-0.81l-0.641-1.592c-0.216-0.413-0.122-1.021,0.207-1.351l0.845-0.844c0.329-0.33,0.329-0.869,0-1.198
		L19.65,2.61c-0.33-0.329-0.869-0.329-1.199,0l-0.793,0.793c-0.329,0.329-0.932,0.414-1.34,0.188l-1.89-0.799
		c-0.444-0.141-0.808-0.636-0.808-1.102V0.847C13.621,0.381,13.24,0,12.774,0H10.71c-0.466,0-0.847,0.381-0.847,0.847V1.69
		c0,0.466-0.364,0.96-0.81,1.098L7.311,3.507C6.9,3.727,6.295,3.638,5.965,3.309L5.268,2.61c-0.33-0.329-0.869-0.329-1.199,0
		L2.609,4.069c-0.329,0.329-0.329,0.868,0,1.197l0.699,0.699C3.638,6.295,3.727,6.9,3.507,7.311L2.788,9.054
		C2.65,9.499,2.156,9.863,1.69,9.863H0.847C0.381,9.863,0,10.244,0,10.71v2.064c0,0.466,0.381,0.847,0.847,0.847H1.69
		c0.466,0,0.96,0.364,1.099,0.809l0.765,1.828c0.223,0.408,0.136,1.013-0.194,1.342l-0.75,0.75c-0.329,0.329-0.329,0.868,0,1.197
		l1.46,1.46c0.329,0.329,0.868,0.329,1.197,0l0.781-0.781c0.329-0.329,0.936-0.421,1.348-0.203l1.658,0.675
		c0.445,0.138,0.81,0.631,0.81,1.097v1.078c0,0.466,0.381,0.847,0.847,0.847h2.064c0.466,0,0.847-0.381,0.847-0.847v-1.078
		c0-0.466,0.364-0.96,0.809-1.099l1.81-0.753c0.409-0.223,1.014-0.135,1.343,0.194l0.87,0.87c0.329,0.329,0.868,0.329,1.197,0
		l1.46-1.46c0.329-0.329,0.329-0.868,0-1.197l-0.895-0.895c-0.33-0.329-0.421-0.936-0.202-1.347l0.685-1.678
		c0.138-0.445,0.631-0.81,1.097-0.81H22.872z M11.742,17.379c-3.112,0-5.637-2.523-5.637-5.637c0-3.112,2.524-5.637,5.637-5.637
		c3.113,0,5.637,2.524,5.637,5.637C17.379,14.855,14.855,17.379,11.742,17.379z"/>
</g>
<path fill="#5A5A5A" d="M27.705,19.623v-1.838h-1.357c-0.113-0.561-0.33-1.078-0.627-1.545l1-0.998l-1.301-1.301l-0.975,0.975
	c-0.5-0.344-1.068-0.593-1.684-0.719v-1.24h-1.839v1.24c-0.587,0.12-1.132,0.353-1.614,0.672l-0.929-0.928l-1.3,1.301l0.928,0.928
	c-0.319,0.481-0.552,1.027-0.671,1.615h-1.241v1.838h1.241c0.122,0.603,0.362,1.164,0.696,1.654L17.08,22.23l1.3,1.301l0.968-0.968
	c0.474,0.306,1.004,0.53,1.575,0.646v1.357h1.839v-1.357c0.6-0.121,1.156-0.359,1.646-0.689l1.012,1.012l1.301-1.301l-1.025-1.023
	c0.311-0.475,0.536-1.009,0.652-1.584H27.705z"/>
</svg>
