<?xml version="1.0" encoding="utf-8"?>
<!-- Generator: Adobe Illustrator 14.0.0, SVG Export Plug-In . SVG Version: 6.00 Build 43363)  -->
<!DOCTYPE svg PUBLIC "-//W3C//DTD SVG 1.1//EN" "http://www.w3.org/Graphics/SVG/1.1/DTD/svg11.dtd">
<svg version="1.1" id="Layer_1" xmlns="http://www.w3.org/2000/svg" xmlns:xlink="http://www.w3.org/1999/xlink" x="0px" y="0px"
	 width="60px" height="50px" viewBox="0 0 60 50" enable-background="new 0 0 60 50" xml:space="preserve">
<g>
	<g>
		<linearGradient id="SVGID_1_" gradientUnits="userSpaceOnUse" x1="23.2007" y1="26.4453" x2="23.2007" y2="11.5469">
			<stop  offset="0" style="stop-color:#000000"/>
			<stop  offset="1" style="stop-color:#4C4D4D"/>
		</linearGradient>
		<path fill="url(#SVGID_1_)" d="M12.646,17.597c0-3.342,4.727-6.051,10.555-6.051s10.553,2.709,10.553,6.051
			c0,2.859-3.461,5.255-8.111,5.887c0.379,1.069,1.011,2.33,2.002,2.961c-1.91,0.002-3.793-1.491-5.084-2.809
			C17.031,23.447,12.646,20.816,12.646,17.597z"/>
	</g>
	<path opacity="0.2" d="M47.354,38.453H28.68c0,0,0.381-3.182,1.312-5.395c0.894-2.123,2.763-2.977,4.481-2.977
		c2.619,0,2.354,0,3.544,0s0.925,0,3.544,0c1.719,0,3.588,0.854,4.482,2.977C46.973,35.271,47.354,38.453,47.354,38.453z
		 M38.017,29.055c2.354,0,4.263-1.91,4.263-4.264c0-2.354-1.908-4.262-4.263-4.262s-4.263,1.907-4.263,4.262
		C33.754,27.145,35.662,29.055,38.017,29.055z"/>
</g>
</svg>
