<?xml version="1.0" encoding="UTF-8" standalone="no"?>
<!-- Generator: Adobe Illustrator 15.1.0, SVG Export Plug-In . SVG Version: 6.00 Build 0)  -->

<svg
   xmlns:dc="http://purl.org/dc/elements/1.1/"
   xmlns:cc="http://creativecommons.org/ns#"
   xmlns:rdf="http://www.w3.org/1999/02/22-rdf-syntax-ns#"
   xmlns:svg="http://www.w3.org/2000/svg"
   xmlns="http://www.w3.org/2000/svg"
   xmlns:sodipodi="http://sodipodi.sourceforge.net/DTD/sodipodi-0.dtd"
   xmlns:inkscape="http://www.inkscape.org/namespaces/inkscape"
   version="1.1"
   id="Layer_1"
   x="0px"
   y="0px"
   width="100"
   height="38.549999"
   viewBox="0 0 100 38.549999"
   enable-background="new 0 0 38.549 100"
   xml:space="preserve"
   inkscape:version="0.48.3.1 r9886"
   sodipodi:docname="noun_project_126.svg"><metadata
   id="metadata13"><rdf:RDF><cc:Work
       rdf:about=""><dc:format>image/svg+xml</dc:format><dc:type
         rdf:resource="http://purl.org/dc/dcmitype/StillImage" /></cc:Work></rdf:RDF></metadata><defs
   id="defs11" /><sodipodi:namedview
   pagecolor="#ffffff"
   bordercolor="#666666"
   borderopacity="1"
   objecttolerance="10"
   gridtolerance="10"
   guidetolerance="10"
   inkscape:pageopacity="0"
   inkscape:pageshadow="2"
   inkscape:window-width="1920"
   inkscape:window-height="1024"
   id="namedview9"
   showgrid="false"
   inkscape:zoom="2.36"
   inkscape:cx="-51.911941"
   inkscape:cy="50"
   inkscape:window-x="0"
   inkscape:window-y="27"
   inkscape:window-maximized="1"
   inkscape:current-layer="Layer_1" />


<g
   id="g2990"
   transform="matrix(0,1,-1,0,100.2072,0.20720439)"><path
     id="path3"
     d="m 36.283,0.511 -4.38,-0.399 -2.801,27.125 4.784,0.002 c 1.562,0.078 2.357,-1.439 2.482,-2.53 L 38.549,3.6 C 38.541,2.406 37.62,1.037 36.283,0.511 z"
     inkscape:connector-curvature="0" /><path
     id="path5"
     d="m 17.023,49.994 h 0.018 c 0.091,-8.214 0.91,-15.045 1.227,-17.403 0.601,-3.599 1.326,-3.992 3.474,-4.603 1.479,-0.418 2.22,-0.562 3.33,-0.646 L 27.895,0 C 25.522,0.037 21.923,0.581 18.465,1.573 14.756,2.677 11.093,4.255 9.113,5.893 5.166,14.956 0,32.992 0,49.994 v 0.011 c 0,17.002 5.166,35.038 9.113,44.101 1.979,1.639 5.643,3.217 9.352,4.32 3.458,0.992 7.057,1.535 9.43,1.574 L 25.072,72.656 C 23.962,72.574 23.22,72.428 21.742,72.01 19.595,71.4 18.869,71.006 18.268,67.407 17.952,65.049 17.132,58.218 17.041,50.004 h -0.018 v -0.01 z"
     inkscape:connector-curvature="0" /><path
     id="path7"
     d="M 36.369,75.291 C 36.244,74.2 35.448,72.682 33.887,72.762 h -4.784 l 2.801,27.125 4.38,-0.398 C 37.621,98.963 38.542,97.593 38.55,96.4 L 36.369,75.291 z"
     inkscape:connector-curvature="0" /></g>
</svg>