<?xml version="1.0" encoding="UTF-8" standalone="no"?>
<svg
   xmlns:dc="http://purl.org/dc/elements/1.1/"
   xmlns:cc="http://creativecommons.org/ns#"
   xmlns:rdf="http://www.w3.org/1999/02/22-rdf-syntax-ns#"
   xmlns:svg="http://www.w3.org/2000/svg"
   xmlns="http://www.w3.org/2000/svg"
   xmlns:sodipodi="http://sodipodi.sourceforge.net/DTD/sodipodi-0.dtd"
   xmlns:inkscape="http://www.inkscape.org/namespaces/inkscape"
   height="18"
   id="Layer_1"
   inkscape:version="0.48.3.1 r9886"
   space="preserve"
   style="overflow:visible"
   version="1.1"
   viewBox="0 0 13.954813 18"
   width="13.954813"
   sodipodi:docname="ico_lock.svg">
  <metadata
     id="metadata22">
    <rdf:RDF>
      <cc:Work
         rdf:about="">
        <dc:format>image/svg+xml</dc:format>
        <dc:type
           rdf:resource="http://purl.org/dc/dcmitype/StillImage" />
      </cc:Work>
    </rdf:RDF>
  </metadata>
  <defs
     id="defs61" />
  <sodipodi:namedview
     bordercolor="#666666"
     borderopacity="1.0"
     id="base"
     inkscape:current-layer="g3"
     inkscape:cx="-0.13593398"
     inkscape:cy="7.6587859"
     inkscape:pageopacity="0.0"
     inkscape:pageshadow="2"
     inkscape:window-height="883"
     inkscape:window-width="1027"
     inkscape:window-x="22"
     inkscape:window-y="29"
     inkscape:zoom="20.794524"
     pagecolor="#ffffff"
     showgrid="false"
     inkscape:window-maximized="0"
     fit-margin-top="0"
     fit-margin-left="0"
     fit-margin-right="0"
     fit-margin-bottom="0" />
  <g
     id="g3"
     transform="matrix(0.10108755,0,0,0.10108755,1.5504061,1.9997838)">
    <path
       d="m 54.757,61.18 c 0,-1.062 -1.443,-1.016 -2.15,-0.79 -0.098,1.213 1.243,0.958 -0.016,2.763 1.101,-0.291 1.824,-0.95 2.166,-1.973"
       id="path5"
       style="fill:#ffe600"
       inkscape:connector-curvature="0" />
    <path
       d="m 33.463,37.514 c 0,-7.261 2.478444,-11.545779 9.840444,-14.940779 4.861,-2.24 11.115112,-1.587278 16.336112,-0.552278 C 73.044389,27.335554 73.063,38.809 73.063,50.163 c 0,5.101 -1.444,6.402 3.714,6.402 1.219,0 14.085,0.146 14.085,-0.139 0,-10.168 1.522,-21.672 -0.756,-31.662 -11.331777,-32.0665558 -63.257667,-31.1151115 -73.64,0 -2.277,9.99 -0.755,21.494 -0.755,31.662 0,0.287 11.615,0.139 12.679,0.139 6.193,0 5.073,-0.207 5.073,-6.402 0,-4.217 0,-8.434 0,-12.649"
       id="path7"
       style="fill:#bebebe;fill-opacity:1"
       inkscape:connector-curvature="0"
       sodipodi:nodetypes="cccsssccsssc" />
    <linearGradient
       gradientTransform="matrix(76.2002,76.2007,76.2007,-76.2002,-15540.281,54801.852)"
       gradientUnits="userSpaceOnUse"
       id="XMLID_4_"
       x1="-258.10641"
       x2="-256.1553"
       y1="461.6665"
       y2="461.6665">
      <stop
         id="stop12"
         offset="0"
         style="stop-color:#FFFFFF" />
      <stop
         id="stop14"
         offset="1"
         style="stop-color:#000000" />
    </linearGradient>
    <linearGradient
       gradientUnits="userSpaceOnUse"
       id="XMLID_5_"
       x1="7.3916001"
       x2="103.5597"
       y1="96.978996"
       y2="94.121902">
      <stop
         id="stop29"
         offset="0"
         style="stop-color:#FFD53D" />
      <stop
         id="stop31"
         offset="0.1047376"
         style="stop-color:#FDD33A" />
      <stop
         id="stop33"
         offset="0.39161682"
         style="stop-color:#F6CB30" />
      <stop
         id="stop35"
         offset="0.64125609"
         style="stop-color:#EABE20" />
      <stop
         id="stop37"
         offset="0.88632715"
         style="stop-color:#DAAC09" />
      <stop
         id="stop39"
         offset="1"
         style="stop-color:#D4A500" />
    </linearGradient>
    <path
       d="m 105.49056,125.72739 c 0,11.2815 -8.240006,10.79489 -20.264006,10.79489 -11.972,0 -53.931974,0.81477 -66.363216,0.47572 C 4.2236256,136.59872 0.30675892,130.81836 0.42927788,119.03994 0.53801436,108.58651 0.01651019,79.958561 0.52427788,69.508501 1.1795102,56.023561 1.7386124,54.44 21.005,54.44 c 22.164,0 44.33,0 66.495,0 16.627,0 18.46628,0.671669 18.46628,14.950669"
       id="path41"
       style="fill:#ffd53d;fill-opacity:1"
       inkscape:connector-curvature="0"
       sodipodi:nodetypes="cssssssc" />
    <linearGradient
       gradientTransform="matrix(0,126.6817,126.6817,0,-58425.73,32328.262)"
       gradientUnits="userSpaceOnUse"
       id="XMLID_6_"
       x1="-254.83591"
       x2="-252.8316"
       y1="461.6235"
       y2="461.6235">
      <stop
         id="stop54"
         offset="0"
         style="stop-color:#DF9000" />
      <stop
         id="stop56"
         offset="1"
         style="stop-color:#9F7800" />
    </linearGradient>
  </g>
</svg>
