<?xml version="1.0" encoding="utf-8"?>
<!-- Generator: Adobe Illustrator 14.0.0, SVG Export Plug-In . SVG Version: 6.00 Build 43363)  -->
<!DOCTYPE svg PUBLIC "-//W3C//DTD SVG 1.1//EN" "http://www.w3.org/Graphics/SVG/1.1/DTD/svg11.dtd">
<svg version="1.1" id="Layer_1" xmlns="http://www.w3.org/2000/svg" xmlns:xlink="http://www.w3.org/1999/xlink" x="0px" y="0px"
	 width="99px" height="45px" viewBox="0 0 99 45" enable-background="new 0 0 99 45" xml:space="preserve">
<g>
	<g opacity="0.5">
		<path d="M35.221,30.492l5.264-0.025c0.711-0.001,1.295-0.589,1.291-1.302l-0.004-0.869l-0.008-1.568
			c-0.006-0.843,0.682-1.535,1.525-1.539l8.92-0.033c0.842-0.001,1.537,0.685,1.543,1.528l0.012,2.228l-0.001,0.206
			c0.005,0.714,0.591,1.296,1.304,1.291l5.257-0.02c0.714-0.004,1.294-0.589,1.292-1.302v-0.214h0.002l-0.008-1.029
			c-0.016-4.146-3.844-6.913-8.361-7.495c0,0-1.518-0.439-5.011-0.424c-3.489,0.015-6.029,0.464-6.029,0.464
			c-4.644,0.517-8.314,3.425-8.295,7.57l0.003,0.37l-0.003,0.003L33.92,29.2C33.92,29.914,34.508,30.493,35.221,30.492"/>
	</g>
	
		<linearGradient id="SVGID_1_" gradientUnits="userSpaceOnUse" x1="618.3887" y1="4125.9521" x2="608.724" y2="4130.2271" gradientTransform="matrix(-0.4045 0.9145 -0.9145 -0.4045 4074.5559 1128.5052)">
		<stop  offset="0" style="stop-color:#E5E5E5"/>
		<stop  offset="1" style="stop-color:#FFFFFF"/>
	</linearGradient>
	<path fill="url(#SVGID_1_)" d="M38.69,25.075l5.264-0.025c0.712-0.001,1.295-0.588,1.291-1.303l-0.004-0.868l-0.008-1.568
		c-0.006-0.843,0.682-1.536,1.525-1.539l8.921-0.033c0.841-0.001,1.538,0.685,1.542,1.528l0.012,2.229V23.7
		c0.004,0.715,0.592,1.295,1.303,1.291l5.258-0.02c0.713-0.004,1.293-0.589,1.292-1.302l-0.001-0.214h0.002l-0.008-1.029
		c-0.016-4.146-3.844-6.914-8.36-7.494c0,0-1.519-0.441-5.011-0.425c-3.49,0.016-6.03,0.464-6.03,0.464
		c-4.643,0.517-8.314,3.425-8.295,7.57l0.002,0.371l-0.002,0.002l0.006,0.868C37.389,24.497,37.978,25.076,38.69,25.075"/>
</g>
</svg>
