<?xml version="1.0" encoding="utf-8"?>
<!-- Generator: Adobe Illustrator 14.0.0, SVG Export Plug-In . SVG Version: 6.00 Build 43363)  -->
<!DOCTYPE svg PUBLIC "-//W3C//DTD SVG 1.1//EN" "http://www.w3.org/Graphics/SVG/1.1/DTD/svg11.dtd">
<svg version="1.1" id="Layer_1" xmlns="http://www.w3.org/2000/svg" xmlns:xlink="http://www.w3.org/1999/xlink" x="0px" y="0px"
	 width="25px" height="25px" viewBox="0 0 25 25" enable-background="new 0 0 25 25" xml:space="preserve">
<path id="nota_18_" fill="#FFFFFF" d="M13.044,2.346c0.142,1.016,0.161,2.297,1.209,3.578c0.806,0.975,1.712,1.85,2.337,2.642
	C17.416,9.604,18,10.905,18,12.227c0,2.113-1.006,4.207-1.693,5.365h-0.322c0.484-1.098,1.451-2.908,1.37-4.837
	c-0.04-1.076-0.442-2.236-1.128-3.091c-0.766-0.995-2.055-1.788-3.183-1.869V19.32c0,0.914-0.544,1.748-1.33,2.357
	c-0.765,0.611-1.772,0.977-2.659,0.977c-0.564,0-1.088-0.184-1.45-0.488C7.223,21.861,7,21.414,7,20.887
	c0-0.834,0.563-1.666,1.33-2.277c0.766-0.631,1.731-1.037,2.538-1.037c0.704,0,1.31,0.102,1.671,0.447V2.346H13.044z"/>
</svg>
