<?xml version="1.0" encoding="utf-8"?>
<!-- Generator: Adobe Illustrator 14.0.0, SVG Export Plug-In . SVG Version: 6.00 Build 43363)  -->
<!DOCTYPE svg PUBLIC "-//W3C//DTD SVG 1.1//EN" "http://www.w3.org/Graphics/SVG/1.1/DTD/svg11.dtd">
<svg version="1.1" id="Layer_1" xmlns="http://www.w3.org/2000/svg" xmlns:xlink="http://www.w3.org/1999/xlink" x="0px" y="0px"
	 width="25px" height="25px" viewBox="0 0 25 25" enable-background="new 0 0 25 25" xml:space="preserve">
<path fill="#FFFFFF" d="M3,3v19h19V3H3z M14.566,10.38L18,10.94l1-1.037L17,9.45L21,5v15l-5.218-5.194l3.013-0.81l-0.9-1.023
	l-3.368,0.566l-0.529,3.436l1.053,1.027l0.461-2.177L19,21H6.031l4.45-5.175l0.453,2.419l1.037-1.148L11.411,13.6L7.98,13.002
	l-1.025,1.01l2.263,0.801L4,20V5l5.161,4.45L6.727,9.903l1.148,1.037l3.496-0.561l0.598-3.431L10.96,5.924l-0.802,3.263L6,4h13
	l-3,5.187L15,7l-1,1L14.566,10.38z"/>
</svg>
