<?xml version="1.0" encoding="utf-8"?>
<!-- Generator: Adobe Illustrator 14.0.0, SVG Export Plug-In . SVG Version: 6.00 Build 43363)  -->
<!DOCTYPE svg PUBLIC "-//W3C//DTD SVG 1.1//EN" "http://www.w3.org/Graphics/SVG/1.1/DTD/svg11.dtd">
<svg version="1.1" id="Layer_1" xmlns="http://www.w3.org/2000/svg" xmlns:xlink="http://www.w3.org/1999/xlink" x="0px" y="0px"
	 width="25px" height="25px" viewBox="0 0 25 25" enable-background="new 0 0 25 25" xml:space="preserve">
<path fill="#FFFFFF" d="M22.746,7.852l-2.488,2.144c-0.164,0.141-0.305,0.348-0.424,0.568h-1.119V9.347
	c0-0.581-0.475-1.054-1.055-1.054H5.253v-1.51h5.723c0.467,0,0.846-0.382,0.846-0.849c0-0.471-0.379-0.848-0.846-0.848h-6.57
	c-0.117,0-0.229,0.024-0.33,0.067C4.047,5.166,4.029,5.188,4.003,5.204c-0.262,0.143-0.447,0.41-0.447,0.731
	c0,0,0.001,0.004,0.001,0.007v2.352H2.58c-0.582,0-1.058,0.473-1.058,1.054v9.38c0,0.579,0.476,1.058,1.056,1.061l15.084,0.124
	c0.58,0.004,1.053-0.467,1.053-1.047v-2.278h1.096c0.125,0.237,0.275,0.454,0.447,0.604l2.475,2.113c0.4,0.344,0.73,0.19,0.73-0.338
	l0.016-10.781C23.479,7.656,23.148,7.504,22.746,7.852z M15.836,14.319c0,0.484-0.396,0.88-0.879,0.88h-4.429
	c-0.483,0-0.88-0.396-0.88-0.88v-2.236c0-0.483,0.396-0.88,0.88-0.88h4.429c0.482,0,0.879,0.396,0.879,0.88V14.319z"/>
</svg>
