<?xml version="1.0" encoding="utf-8"?>
<!-- Generator: Adobe Illustrator 14.0.0, SVG Export Plug-In . SVG Version: 6.00 Build 43363)  -->
<!DOCTYPE svg PUBLIC "-//W3C//DTD SVG 1.1//EN" "http://www.w3.org/Graphics/SVG/1.1/DTD/svg11.dtd">
<svg version="1.1" id="Layer_1" xmlns="http://www.w3.org/2000/svg" xmlns:xlink="http://www.w3.org/1999/xlink" x="0px" y="0px"
	 width="66px" height="35px" viewBox="0 0 66 35" enable-background="new 0 0 66 35" xml:space="preserve">
<g>
	<polygon fill="#FFFFFF" points="17,27 40,27 40,22 42,22 42,29 15,29 15,10 15,5 42,5 42,12 40,12 40,7 17,7 	"/>
	<polygon fill="#FFFFFF" points="52,16.875 44,10.249 44,14 34,14 34,20 44,20 44,24 	"/>
	<polygon fill="#FFFFFF" points="34,9 19,9 19,10 33,10 	"/>
	<rect x="19" y="15" fill="#FFFFFF" width="9" height="1"/>
	<rect x="19" y="18" fill="#FFFFFF" width="7" height="1"/>
	<rect x="19" y="21" fill="#FFFFFF" width="11" height="1"/>
	<polygon fill="#FFFFFF" points="19,12 19,13 30,13 31,12 	"/>
</g>
</svg>
