<?xml version="1.0" encoding="utf-8"?>
<!-- Generator: Adobe Illustrator 14.0.0, SVG Export Plug-In . SVG Version: 6.00 Build 43363)  -->
<!DOCTYPE svg PUBLIC "-//W3C//DTD SVG 1.1//EN" "http://www.w3.org/Graphics/SVG/1.1/DTD/svg11.dtd">
<svg version="1.1" id="Layer_1" xmlns="http://www.w3.org/2000/svg" xmlns:xlink="http://www.w3.org/1999/xlink" x="0px" y="0px"
	 width="99px" height="45px" viewBox="0 0 99 45" enable-background="new 0 0 99 45" xml:space="preserve">
<g>
	<g opacity="0.5">
		<path d="M54.91,34.316l-2.061-4.604c-0.277-0.623-1.02-0.903-1.644-0.625l-0.76,0.34l-1.372,0.613
			c-0.735,0.333-1.609,0-1.94-0.737l-3.488-7.805c-0.328-0.737,0.003-1.613,0.742-1.944l1.947-0.873l0.182-0.082
			c0.625-0.279,0.906-1.02,0.626-1.641l-2.055-4.601c-0.279-0.623-1.019-0.905-1.643-0.628l-0.187,0.084v-0.001l-0.898,0.403
			c-3.628,1.621-4.572,6.051-3.329,10.234c0,0,0.205,1.501,1.573,4.557c1.363,3.05,2.742,5.104,2.742,5.104
			c2.252,3.866,6.225,5.957,9.85,4.333l0.323-0.145h0.005l0.756-0.342C54.906,35.681,55.188,34.94,54.91,34.316"/>
	</g>
	<path fill="#00D100" d="M60.381,30.692L58.32,26.09c-0.277-0.623-1.019-0.904-1.643-0.626l-0.76,0.34l-1.371,0.614
		c-0.736,0.332-1.609,0-1.94-0.738l-3.489-7.805c-0.328-0.737,0.003-1.612,0.741-1.944l1.949-0.873l0.182-0.081
		c0.624-0.28,0.905-1.02,0.626-1.643l-2.055-4.6c-0.279-0.622-1.019-0.904-1.643-0.627L48.73,8.191V8.189l-0.898,0.404
		c-3.627,1.621-4.571,6.05-3.328,10.234c0,0,0.205,1.501,1.572,4.555c1.364,3.051,2.742,5.104,2.742,5.104
		c2.253,3.866,6.225,5.958,9.85,4.333l0.324-0.144h0.004l0.756-0.343C60.378,32.057,60.658,31.316,60.381,30.692"/>
</g>
</svg>
