<?xml version="1.0" encoding="utf-8"?>
<!-- Generator: Adobe Illustrator 14.0.0, SVG Export Plug-In . SVG Version: 6.00 Build 43363)  -->
<!DOCTYPE svg PUBLIC "-//W3C//DTD SVG 1.1//EN" "http://www.w3.org/Graphics/SVG/1.1/DTD/svg11.dtd">
<svg version="1.1" id="Layer_1" xmlns="http://www.w3.org/2000/svg" xmlns:xlink="http://www.w3.org/1999/xlink" x="0px" y="0px"
	 width="45px" height="35px" viewBox="0 0 45 35" enable-background="new 0 0 45 35" xml:space="preserve">
<g id="ricarica_4_">
	<path opacity="0.3" fill="#FFFFFF" d="M24.113,8.576c-3.703-1.209-7.688,0.812-8.898,4.518c-0.611,1.87-0.396,3.813,0.441,5.435
		l0.279-0.854c0.143-0.44,0.577-0.692,0.967-0.563c0.393,0.127,0.594,0.585,0.449,1.025l-0.987,3.024
		c-0.021,0.064-0.048,0.126-0.082,0.184c-0.143,0.398-0.601,0.608-1.032,0.467l-3.38-1.104c-0.439-0.144-0.685-0.593-0.552-1.005
		c0.136-0.412,0.6-0.63,1.039-0.486l0.727,0.237c-1.027-2.176-1.257-4.735-0.452-7.204c1.676-5.131,7.193-7.933,12.324-6.257
		L24.113,8.576z"/>
	<g>
		<g opacity="0.3">
			<path d="M16.045,29.007c5.129,1.676,10.647-1.126,12.323-6.257c0.805-2.468,0.576-5.028-0.451-7.204l0.727,0.237
				c0.439,0.144,0.902-0.074,1.037-0.486s-0.111-0.861-0.551-1.005l-3.379-1.104c-0.434-0.141-0.891,0.068-1.033,0.467
				c-0.033,0.058-0.061,0.119-0.082,0.184l-0.986,3.024c-0.145,0.44,0.057,0.898,0.447,1.025c0.391,0.129,0.826-0.123,0.969-0.563
				l0.279-0.854c0.836,1.622,1.053,3.565,0.441,5.436c-1.211,3.704-5.196,5.726-8.899,4.517L16.045,29.007z"/>
		</g>
		<g>
			<linearGradient id="SVGID_1_" gradientUnits="userSpaceOnUse" x1="26.8809" y1="25.4922" x2="26.8809" y2="9.145">
				<stop  offset="0" style="stop-color:#979797"/>
				<stop  offset="0.1561" style="stop-color:#B0B0B0"/>
				<stop  offset="0.3714" style="stop-color:#CECDCD"/>
				<stop  offset="0.5856" style="stop-color:#E1E1E1"/>
				<stop  offset="0.7965" style="stop-color:#EFEEEE"/>
				<stop  offset="1" style="stop-color:#F2F2F2"/>
			</linearGradient>
			<path fill="url(#SVGID_1_)" d="M20.045,25.007c5.129,1.676,10.647-1.126,12.323-6.257c0.805-2.468,0.576-5.028-0.451-7.204
				l0.727,0.237c0.439,0.144,0.902-0.074,1.037-0.486s-0.111-0.861-0.551-1.005l-3.379-1.104c-0.434-0.141-0.891,0.068-1.033,0.467
				c-0.033,0.058-0.061,0.119-0.082,0.184l-0.986,3.024c-0.145,0.44,0.057,0.898,0.447,1.025c0.391,0.129,0.826-0.123,0.969-0.563
				l0.279-0.854c0.836,1.622,1.053,3.565,0.441,5.436c-1.211,3.704-5.195,5.726-8.899,4.517L20.045,25.007z"/>
		</g>
	</g>
</g>
</svg>
