<?xml version="1.0" encoding="utf-8"?>
<!-- Generator: Adobe Illustrator 14.0.0, SVG Export Plug-In . SVG Version: 6.00 Build 43363)  -->
<!DOCTYPE svg PUBLIC "-//W3C//DTD SVG 1.1//EN" "http://www.w3.org/Graphics/SVG/1.1/DTD/svg11.dtd">
<svg version="1.1" id="Layer_1" xmlns="http://www.w3.org/2000/svg" xmlns:xlink="http://www.w3.org/1999/xlink" x="0px" y="0px"
	 width="25px" height="25px" viewBox="0 0 25 25" enable-background="new 0 0 25 25" xml:space="preserve">
<g>
	<circle fill="#5A5A5A" cx="12.5" cy="14.452" r="2.636"/>
	<path fill="#5A5A5A" d="M20.545,6.729h-3.773l-0.424-1.26c-0.275-0.813-1.162-1.45-2.023-1.45h-3.652
		c-0.859,0-1.746,0.637-2.02,1.45l-0.425,1.26H4.454c-1.436,0-2.604,1.169-2.604,2.605v9.039c0,1.438,1.169,2.606,2.604,2.606
		h16.091c1.436,0,2.605-1.168,2.605-2.606V9.335C23.15,7.898,21.98,6.729,20.545,6.729z M10.476,5.5h4.045
		c0.268,0,0.482,0.217,0.482,0.482s-0.215,0.482-0.482,0.482h-4.045c-0.266,0-0.481-0.217-0.481-0.482S10.21,5.5,10.476,5.5z
		 M12.5,18.564c-2.268,0-4.114-1.846-4.114-4.113s1.847-4.112,4.114-4.112c2.268,0,4.112,1.845,4.112,4.112
		S14.768,18.564,12.5,18.564z"/>
</g>
</svg>
