<?xml version="1.0" encoding="utf-8"?>
<!-- Generator: Adobe Illustrator 14.0.0, SVG Export Plug-In . SVG Version: 6.00 Build 43363)  -->
<!DOCTYPE svg PUBLIC "-//W3C//DTD SVG 1.1//EN" "http://www.w3.org/Graphics/SVG/1.1/DTD/svg11.dtd">
<svg version="1.1" id="Layer_1" xmlns="http://www.w3.org/2000/svg" xmlns:xlink="http://www.w3.org/1999/xlink" x="0px" y="0px"
	 width="25px" height="25px" viewBox="0 0 25 25" enable-background="new 0 0 25 25" xml:space="preserve">
<polygon fill="#5A5A5A" points="21.235,20.404 18.29,17.533 18.29,7.335 21.216,4.483 21.697,7.245 22.741,6.219 22.186,2.785 
	18.755,2.219 17.733,3.245 20.419,3.72 17.79,6.393 7.209,6.393 4.58,3.72 7.265,3.267 6.241,2.231 2.808,2.791 2.241,6.221 
	3.266,7.247 4.075,4.485 7.29,7.333 7.29,17.537 4.056,20.404 3.448,17.756 2.333,18.781 2.851,22.215 6.264,22.781 7.276,21.756 
	4.474,20.91 7.59,17.393 17.411,17.393 20.533,20.91 17.735,21.559 18.76,22.682 22.194,22.168 22.759,18.76 21.697,17.746 "/>
</svg>
