<?xml version="1.0" encoding="utf-8"?>
<!-- Generator: Adobe Illustrator 14.0.0, SVG Export Plug-In . SVG Version: 6.00 Build 43363)  -->
<!DOCTYPE svg PUBLIC "-//W3C//DTD SVG 1.1//EN" "http://www.w3.org/Graphics/SVG/1.1/DTD/svg11.dtd">
<svg version="1.1" id="Layer_1" xmlns="http://www.w3.org/2000/svg" xmlns:xlink="http://www.w3.org/1999/xlink" x="0px" y="0px"
	 width="99px" height="35px" viewBox="0 0 99 35" enable-background="new 0 0 99 35" xml:space="preserve">
<path fill="#5A5A5A" d="M63.438,28.166c5.557,0,10.062-4.615,10.062-10.172c0-5.559-4.506-9.817-10.062-9.817
	c-4.141,0-7.697,2.323-9.241,6.323H30.911l-2.41,3.959l2.848,3.041h3.182l1.185-2h1.709l1.709,2h2.659l1.519-1.52l3.608,1.52h2.848
	l2.279,1h2.237C55.869,26.5,59.37,28.166,63.438,28.166z M70.146,17.884c0,1.391-1.127,2.518-2.516,2.518
	c-1.391,0-2.517-1.127-2.517-2.518c0-1.389,1.126-2.516,2.517-2.516C69.02,15.368,70.146,16.495,70.146,17.884z"/>
</svg>
