<?xml version="1.0" encoding="utf-8"?>
<!-- Generator: Adobe Illustrator 14.0.0, SVG Export Plug-In . SVG Version: 6.00 Build 43363)  -->
<!DOCTYPE svg PUBLIC "-//W3C//DTD SVG 1.1//EN" "http://www.w3.org/Graphics/SVG/1.1/DTD/svg11.dtd">
<svg version="1.1" id="Layer_1" xmlns="http://www.w3.org/2000/svg" xmlns:xlink="http://www.w3.org/1999/xlink" x="0px" y="0px"
	 width="60px" height="50px" viewBox="0 0 60 50" enable-background="new 0 0 60 50" xml:space="preserve">
<g>
	<path opacity="0.2" fill-rule="evenodd" clip-rule="evenodd" fill="#231F20" d="M13.357,16.708c0-3.205,4.531-5.804,10.122-5.804
		s10.122,2.599,10.122,5.804c0,2.742-3.32,5.039-7.78,5.645c0.362,1.026,0.97,2.236,1.921,2.841
		c-1.832,0.002-3.639-1.429-4.875-2.694C17.562,22.318,13.357,19.794,13.357,16.708z"/>
	<g>
		<g opacity="0.3">
			<path d="M43.072,39.096H25.164c0,0,0.365-3.053,1.258-5.174c0.856-2.037,2.65-2.855,4.297-2.855c2.512,0,2.258,0,3.4,0
				c1.141,0,0.887,0,3.398,0c1.648,0,3.441,0.818,4.298,2.855C42.707,36.043,43.072,39.096,43.072,39.096z M34.119,30.08
				c2.256,0,4.088-1.83,4.088-4.088c0-2.258-1.832-4.088-4.088-4.088c-2.26,0-4.088,1.83-4.088,4.088
				C30.031,28.25,31.859,30.08,34.119,30.08z"/>
		</g>
		<g>
			<linearGradient id="SVGID_1_" gradientUnits="userSpaceOnUse" x1="37.6885" y1="36.7109" x2="37.6885" y2="19.5186">
				<stop  offset="0" style="stop-color:#000000"/>
				<stop  offset="1" style="stop-color:#4C4D4D"/>
			</linearGradient>
			<path fill="url(#SVGID_1_)" d="M46.643,36.711H28.734c0,0,0.366-3.053,1.258-5.176c0.857-2.035,2.65-2.855,4.298-2.855
				c2.512,0,2.257,0,3.399,0c1.142,0,0.887,0,3.398,0c1.648,0,3.441,0.82,4.299,2.855C46.278,33.658,46.643,36.711,46.643,36.711z
				 M37.689,27.695c2.258,0,4.088-1.832,4.088-4.089c0-2.258-1.83-4.088-4.088-4.088s-4.088,1.83-4.088,4.088
				C33.602,25.863,35.432,27.695,37.689,27.695z"/>
		</g>
	</g>
</g>
</svg>
