<?xml version="1.0" encoding="utf-8"?>
<!-- Generator: Adobe Illustrator 15.0.2, SVG Export Plug-In  -->
<!DOCTYPE svg PUBLIC "-//W3C//DTD SVG 1.1//EN" "http://www.w3.org/Graphics/SVG/1.1/DTD/svg11.dtd" [
	<!ENTITY ns_flows "http://ns.adobe.com/Flows/1.0/">
]>
<svg version="1.1"
	 xmlns="http://www.w3.org/2000/svg" xmlns:xlink="http://www.w3.org/1999/xlink" xmlns:a="http://ns.adobe.com/AdobeSVGViewerExtensions/3.0/"
	 x="0px" y="0px" width="56px" height="56px" viewBox="0 0 56 56" overflow="visible" enable-background="new 0 0 56 56"
	 xml:space="preserve">
<defs>
</defs>
<path opacity="0.05" fill="#FFFFFF" d="M42.181,3.763C38.041,1.368,33.244,0,28.123,0v8.979c3.483,0,6.752,0.932,9.569,2.561
	L42.181,3.763z"/>
<path opacity="0.1" fill="#FFFFFF" d="M52.476,14.052c-2.385-4.138-5.862-7.725-10.295-10.284l-4.488,7.776
	c3.019,1.738,5.382,4.183,7.005,7.004L52.476,14.052z"/>
<path fill="#FFFFFF" d="M14.064,3.763C18.198,1.368,23,0,28.123,0v8.979c-3.488,0-6.758,0.932-9.57,2.561L14.064,3.763z"/>
<path fill="#FFFFFF" d="M3.771,14.052C6.154,9.914,9.628,6.327,14.064,3.768l4.488,7.776c-3.02,1.738-5.387,4.183-7.006,7.004
	L3.771,14.052z"/>
<path opacity="0.2" fill="#FFFFFF" d="M56.243,28.116c0.007-4.778-1.21-9.623-3.769-14.057l-7.777,4.488
	c1.742,3.021,2.567,6.316,2.564,9.57L56.243,28.116z"/>
<path opacity="0.5" fill="#FFFFFF" d="M42.181,52.474c-4.14,2.391-8.937,3.762-14.058,3.762v-8.979c3.483,0,6.752-0.934,9.569-2.562
	L42.181,52.474z"/>
<path opacity="0.4" fill="#FFFFFF" d="M52.476,42.181c-2.385,4.141-5.862,7.727-10.295,10.289l-4.488-7.777
	c3.019-1.74,5.382-4.187,7.005-7.004L52.476,42.181z"/>
<path opacity="0.3" fill="#FFFFFF" d="M56.243,28.118c0.007,4.78-1.21,9.623-3.769,14.059l-7.777-4.49
	c1.742-3.019,2.567-6.318,2.564-9.568H56.243z"/>
<path opacity="0.9" fill="#FFFFFF" d="M0,28.116c-0.004-4.778,1.207-9.623,3.771-14.057l7.775,4.488
	c-1.746,3.021-2.566,6.316-2.566,9.57L0,28.116z"/>
<path opacity="0.6" fill="#FFFFFF" d="M14.064,52.474c4.134,2.391,8.936,3.762,14.059,3.762v-8.979c-3.488,0-6.758-0.934-9.57-2.562
	L14.064,52.474z"/>
<path opacity="0.7" fill="#FFFFFF" d="M3.771,42.181c2.383,4.141,5.856,7.727,10.293,10.289l4.488-7.777
	c-3.02-1.74-5.387-4.187-7.006-7.004L3.771,42.181z"/>
<path opacity="0.8" fill="#FFFFFF" d="M0,28.118c-0.004,4.78,1.207,9.623,3.771,14.059l7.775-4.49
	c-1.746-3.019-2.566-6.318-2.566-9.568H0z"/>
</svg>
