<?xml version="1.0" encoding="utf-8"?>
<!-- Generator: Adobe Illustrator 14.0.0, SVG Export Plug-In . SVG Version: 6.00 Build 43363)  -->
<!DOCTYPE svg PUBLIC "-//W3C//DTD SVG 1.1//EN" "http://www.w3.org/Graphics/SVG/1.1/DTD/svg11.dtd">
<svg version="1.1" id="Layer_1" xmlns="http://www.w3.org/2000/svg" xmlns:xlink="http://www.w3.org/1999/xlink" x="0px" y="0px"
	 width="45px" height="35px" viewBox="0 0 45 35" enable-background="new 0 0 45 35" xml:space="preserve">
<g>
	<path opacity="0.05" d="M29.321,5.683c-2.008-1.162-4.336-1.826-6.822-1.826v4.357c1.691,0,3.277,0.452,4.645,1.242L29.321,5.683z"
		/>
	<path opacity="0.1" d="M34.317,10.675c-1.158-2.008-2.846-3.748-4.996-4.99l-2.178,3.773c1.465,0.844,2.611,2.029,3.398,3.398
		L34.317,10.675z"/>
	<path d="M15.679,5.683c2.006-1.162,4.336-1.826,6.82-1.826v4.357c-1.691,0-3.277,0.452-4.643,1.242L15.679,5.683z"/>
	<path d="M10.685,10.675c1.156-2.008,2.842-3.748,4.994-4.99l2.178,3.773c-1.465,0.844-2.613,2.029-3.4,3.398L10.685,10.675z"/>
	<path opacity="0.2" d="M36.146,17.5c0.002-2.318-0.588-4.669-1.83-6.82l-3.773,2.178c0.846,1.466,1.246,3.064,1.244,4.644
		L36.146,17.5z"/>
	<path opacity="0.5" d="M29.321,29.318c-2.008,1.16-4.336,1.824-6.822,1.824v-4.355c1.691,0,3.277-0.453,4.645-1.244L29.321,29.318z
		"/>
	<path opacity="0.4" d="M34.317,24.324c-1.158,2.008-2.846,3.748-4.996,4.992l-2.178-3.773c1.465-0.846,2.611-2.031,3.398-3.398
		L34.317,24.324z"/>
	<path opacity="0.3" d="M36.146,17.5c0.002,2.32-0.588,4.669-1.83,6.822l-3.773-2.18c0.846-1.465,1.246-3.064,1.244-4.642H36.146z"
		/>
	<path opacity="0.9" d="M8.854,17.5c-0.002-2.318,0.586-4.669,1.83-6.82l3.771,2.178c-0.846,1.466-1.244,3.064-1.244,4.644
		L8.854,17.5z"/>
	<path opacity="0.6" d="M15.679,29.318c2.006,1.16,4.336,1.824,6.82,1.824v-4.355c-1.691,0-3.277-0.453-4.643-1.244L15.679,29.318z"
		/>
	<path opacity="0.7" d="M10.685,24.324c1.156,2.008,2.842,3.748,4.994,4.992l2.178-3.773c-1.465-0.846-2.613-2.031-3.4-3.398
		L10.685,24.324z"/>
	<path opacity="0.8" d="M8.854,17.5c-0.002,2.32,0.586,4.669,1.83,6.822l3.771-2.18c-0.846-1.465-1.244-3.064-1.244-4.642H8.854z"/>
</g>
</svg>
