<?xml version="1.0" encoding="utf-8"?>
<!-- Generator: Adobe Illustrator 14.0.0, SVG Export Plug-In . SVG Version: 6.00 Build 43363)  -->
<!DOCTYPE svg PUBLIC "-//W3C//DTD SVG 1.1//EN" "http://www.w3.org/Graphics/SVG/1.1/DTD/svg11.dtd">
<svg version="1.1" id="Layer_1" xmlns="http://www.w3.org/2000/svg" xmlns:xlink="http://www.w3.org/1999/xlink" x="0px" y="0px"
	 width="66px" height="35px" viewBox="0 0 66 35" enable-background="new 0 0 66 35" xml:space="preserve">
<path fill="#5A5A5A" d="M42.674,25.261c4.321,0,7.826-3.417,7.826-7.739s-3.505-7.782-7.826-7.782c-3.223,0-5.988,1.771-7.188,4.771
	h-18.11L15.5,17.367l2.215,2.143h2.476l0.921-1h1.329l1.329,1h2.068l1.182-1.182l2.806,1.182h2.215l1.772,1h1.74
	C36.787,23.51,39.51,25.261,42.674,25.261z M47.891,17.607c0,1.082-0.875,1.959-1.957,1.959c-1.08,0-1.956-0.877-1.956-1.959
	c0-1.079,0.876-1.956,1.956-1.956C47.016,15.651,47.891,16.528,47.891,17.607z"/>
</svg>
