<?xml version="1.0" encoding="utf-8"?>
<!-- Generator: Adobe Illustrator 15.0.2, SVG Export Plug-In  -->
<!DOCTYPE svg PUBLIC "-//W3C//DTD SVG 1.1//EN" "http://www.w3.org/Graphics/SVG/1.1/DTD/svg11.dtd" [
	<!ENTITY ns_flows "http://ns.adobe.com/Flows/1.0/">
]>
<svg version="1.1"
	 xmlns="http://www.w3.org/2000/svg" xmlns:xlink="http://www.w3.org/1999/xlink" xmlns:a="http://ns.adobe.com/AdobeSVGViewerExtensions/3.0/"
	 x="0px" y="0px" width="14px" height="18px" viewBox="0 0 14 18" overflow="visible" enable-background="new 0 0 14 18"
	 xml:space="preserve">
<defs>
</defs>
<rect y="3" fill="#231F20" width="14" height="2"/>
<path fill="#231F20" d="M1,15.139C1,16.713,2.354,18,4.009,18h5.982C11.646,18,13,16.713,13,15.139V6H1V15.139z M9.018,8.5
	c0-0.274,0.449-0.5,1-0.5s1,0.226,1,0.5v7c0,0.275-0.449,0.5-1,0.5s-1-0.225-1-0.5V8.5z M6.018,8.5c0-0.274,0.449-0.5,1-0.5
	s1,0.226,1,0.5v7c0,0.275-0.449,0.5-1,0.5s-1-0.225-1-0.5V8.5z M3.021,8.5c0-0.274,0.449-0.5,1-0.5s1,0.226,1,0.5v7
	c0,0.275-0.449,0.5-1,0.5s-1-0.225-1-0.5V8.5z"/>
<path fill="#231F20" d="M7,0C5.895,0,5,0.894,5,2h4C9,0.894,8.105,0,7,0z"/>
</svg>
