<?xml version="1.0" encoding="utf-8"?>
<!-- Generator: Adobe Illustrator 14.0.0, SVG Export Plug-In . SVG Version: 6.00 Build 43363)  -->
<!DOCTYPE svg PUBLIC "-//W3C//DTD SVG 1.1//EN" "http://www.w3.org/Graphics/SVG/1.1/DTD/svg11.dtd">
<svg version="1.1" id="Layer_1" xmlns="http://www.w3.org/2000/svg" xmlns:xlink="http://www.w3.org/1999/xlink" x="0px" y="0px"
	 width="45px" height="35px" viewBox="0 0 45 35" enable-background="new 0 0 45 35" xml:space="preserve">
<g>
	<path fill="#FFFFFF" d="M28.539,22.64c-1.896,1.873-4.57,2.479-6.97,1.824c-1.854-0.431-2.439,2.169-0.902,2.637
		c3.367,0.981,7.152,0.157,9.826-2.48c3.932-3.877,3.977-10.208,0.1-14.142c-3.879-3.932-10.21-3.977-14.14-0.1
		c-1.893,1.864-2.887,4.301-2.973,6.761l-0.551-0.556c-0.33-0.337-0.855-0.356-1.17-0.046c-0.316,0.312-0.303,0.837,0.027,1.173
		L14.34,20.3c0.326,0.332,0.84,0.355,1.156,0.062c0.057-0.036,0.111-0.08,0.162-0.129l2.316-2.285
		c0.336-0.333,0.369-0.845,0.074-1.146c-0.297-0.3-0.809-0.271-1.145,0.059l-0.654,0.646c0-1.869,0.717-3.734,2.15-5.147
		c2.84-2.8,7.41-2.769,10.207,0.071C31.41,15.27,31.379,19.84,28.539,22.64z"/>
</g>
</svg>
