<?xml version="1.0" encoding="utf-8"?>
<!-- Generator: Adobe Illustrator 16.0.4, SVG Export Plug-In . SVG Version: 6.00 Build 0)  -->
<!DOCTYPE svg PUBLIC "-//W3C//DTD SVG 1.1//EN" "http://www.w3.org/Graphics/SVG/1.1/DTD/svg11.dtd">
<svg version="1.1" id="Layer_1" xmlns="http://www.w3.org/2000/svg" xmlns:xlink="http://www.w3.org/1999/xlink" x="0px" y="0px"
	 width="45px" height="35px" viewBox="0 0 45 35" enable-background="new 0 0 45 35" xml:space="preserve">
<g id="ricarica_2_">
	<linearGradient id="SVGID_1_" gradientUnits="userSpaceOnUse" x1="11.2817" y1="15.6816" x2="24.9561" y2="15.6816">
		<stop  offset="0" style="stop-color:#000000"/>
		<stop  offset="1" style="stop-color:#4C4D4D"/>
	</linearGradient>
	<path fill="url(#SVGID_1_)" d="M24.113,10.576c-3.703-1.209-7.688,0.812-8.898,4.518c-0.611,1.87-0.396,3.813,0.441,5.436
		l0.279-0.854c0.143-0.44,0.577-0.692,0.968-0.563c0.392,0.128,0.593,0.586,0.448,1.025l-0.987,3.024
		c-0.021,0.063-0.048,0.126-0.082,0.184c-0.143,0.398-0.601,0.608-1.032,0.468l-3.38-1.104c-0.439-0.144-0.685-0.593-0.552-1.005
		c0.136-0.412,0.6-0.63,1.039-0.486l0.727,0.237c-1.027-2.177-1.257-4.735-0.452-7.204c1.676-5.131,7.193-7.934,12.324-6.257
		L24.113,10.576z"/>
	<g>
		<g>
			
				<linearGradient id="SVGID_2_" gradientUnits="userSpaceOnUse" x1="-192.1187" y1="111.0068" x2="-192.1187" y2="127.3564" gradientTransform="matrix(1 0 0 -1 219 138.5)">
				<stop  offset="0" style="stop-color:#000000"/>
				<stop  offset="1" style="stop-color:#4C4D4D"/>
			</linearGradient>
			<path fill="url(#SVGID_2_)" d="M20.045,27.007c5.129,1.677,10.646-1.126,12.323-6.257c0.805-2.468,0.575-5.027-0.451-7.204
				l0.728,0.237c0.438,0.144,0.901-0.074,1.037-0.486c0.135-0.412-0.111-0.861-0.552-1.005l-3.379-1.104
				c-0.435-0.141-0.892,0.068-1.033,0.468c-0.032,0.058-0.061,0.118-0.081,0.184l-0.986,3.024c-0.146,0.439,0.057,0.897,0.447,1.025
				c0.391,0.129,0.825-0.123,0.969-0.563l0.279-0.854c0.836,1.622,1.053,3.565,0.44,5.437c-1.211,3.704-5.195,5.726-8.899,4.517
				L20.045,27.007z"/>
		</g>
	</g>
</g>
</svg>
