<?xml version="1.0" encoding="utf-8"?>
<!-- Generator: Adobe Illustrator 14.0.0, SVG Export Plug-In . SVG Version: 6.00 Build 43363)  -->
<!DOCTYPE svg PUBLIC "-//W3C//DTD SVG 1.1//EN" "http://www.w3.org/Graphics/SVG/1.1/DTD/svg11.dtd">
<svg version="1.1" id="Layer_1" xmlns="http://www.w3.org/2000/svg" xmlns:xlink="http://www.w3.org/1999/xlink" x="0px" y="0px"
	 width="66px" height="35px" viewBox="0 0 66 35" enable-background="new 0 0 66 35" xml:space="preserve">
<g>
	<path fill="#5C5C5C" d="M38.902,18.669l8.713-8.716l-2.624-2.627L36.3,16.018C36.3,16.018,37.047,17.6,38.902,18.669z"/>
	<path fill="#5C5C5C" d="M48.332,10.668l-8.472,8.446c0,0,0.771,0.294,1.512,0.294l-1.761,1.762h-2.41l-3.314-3.314v-2.592
		l1.584-1.583c0,0-0.026,0.425,0.337,1.337l8.441-8.432L42.814,5.15l-9.779,9.783L33,22h7.554l9.554-9.557L48.332,10.668z"/>
</g>
<path fill="#5B5B5B" d="M19,28V10V8h16.893l2-2H17v6v13v5h27v-8l-2,2v4H19 M19,28"/>
<polygon fill="#5C5C5C" points="21,10 35,10 34,11 21,11 "/>
<rect x="21" y="16" fill="#5C5C5C" width="9" height="1"/>
<rect x="21" y="19" fill="#5C5C5C" width="7" height="1"/>
<rect x="21" y="22" fill="#5C5C5C" width="11" height="1"/>
<polygon fill="#5C5C5C" points="21,13 32,13 31,14 21,14 "/>
</svg>
