<?xml version="1.0" encoding="utf-8"?>
<!-- Generator: Adobe Illustrator 15.0.2, SVG Export Plug-In  -->
<!DOCTYPE svg PUBLIC "-//W3C//DTD SVG 1.1//EN" "http://www.w3.org/Graphics/SVG/1.1/DTD/svg11.dtd" [
	<!ENTITY ns_flows "http://ns.adobe.com/Flows/1.0/">
]>
<svg version="1.1"
	 xmlns="http://www.w3.org/2000/svg" xmlns:xlink="http://www.w3.org/1999/xlink" xmlns:a="http://ns.adobe.com/AdobeSVGViewerExtensions/3.0/"
	 x="0px" y="0px" width="26px" height="27px" viewBox="0 0 26 27" overflow="visible" enable-background="new 0 0 26 27"
	 xml:space="preserve">
<defs>
</defs>
<path fill="#5A5A5A" d="M14.746,1.732c-2.499-2.387-6.46-2.295-8.848,0.204c-2.385,2.5-2.294,6.458,0.208,8.847
	c2.5,2.386,6.459,2.291,8.845-0.207C17.335,8.078,17.246,4.117,14.746,1.732z M13.348,8.919c-1.496,1.564-3.976,1.624-5.54,0.127
	c-1.564-1.492-1.623-3.972-0.13-5.539c1.496-1.566,3.976-1.624,5.542-0.127C14.785,4.873,14.842,7.353,13.348,8.919z"/>
<polygon fill="#5A5A5A" points="15.574,9.789 14.299,11.121 20.12,16.845 21.392,15.512 "/>
<path fill="#5A5A5A" d="M0,21.002c0.404-0.156,0.797-0.357,1.18-0.602s0.732-0.551,1.051-0.918h0.701v7.358H1.945v-5.988
	c-0.086,0.077-0.191,0.159-0.314,0.243c-0.123,0.085-0.258,0.167-0.404,0.245c-0.145,0.077-0.297,0.151-0.455,0.223
	c-0.16,0.071-0.314,0.132-0.463,0.181L0,21.002z"/>
<path fill="#5A5A5A" d="M5.533,23.157c0-1.231,0.219-2.18,0.652-2.846c0.436-0.666,1.039-0.998,1.811-0.998s1.375,0.332,1.811,0.998
	s0.652,1.614,0.652,2.846s-0.217,2.18-0.652,2.846S8.768,27,7.996,27s-1.375-0.332-1.811-0.998
	C5.752,25.336,5.533,24.388,5.533,23.157z M9.42,23.157c0-0.404-0.023-0.785-0.07-1.146c-0.045-0.361-0.123-0.676-0.232-0.945
	s-0.258-0.483-0.441-0.643c-0.184-0.158-0.41-0.239-0.68-0.239S7.5,20.264,7.318,20.422c-0.186,0.159-0.332,0.373-0.441,0.643
	c-0.111,0.27-0.188,0.584-0.234,0.945c-0.045,0.361-0.068,0.742-0.068,1.146c0,0.403,0.023,0.785,0.068,1.146
	c0.047,0.361,0.123,0.677,0.234,0.945c0.109,0.27,0.256,0.483,0.441,0.643c0.182,0.16,0.408,0.239,0.678,0.239
	s0.496-0.079,0.68-0.239c0.184-0.159,0.332-0.373,0.441-0.643c0.109-0.269,0.188-0.584,0.232-0.945
	C9.396,23.942,9.42,23.56,9.42,23.157z"/>
<path fill="#5A5A5A" d="M11.523,23.157c0-1.231,0.217-2.18,0.652-2.846s1.037-0.998,1.811-0.998c0.771,0,1.375,0.332,1.811,0.998
	c0.434,0.666,0.652,1.614,0.652,2.846s-0.219,2.18-0.652,2.846C15.361,26.668,14.758,27,13.986,27c-0.773,0-1.375-0.332-1.811-0.998
	S11.523,24.388,11.523,23.157z M15.408,23.157c0-0.404-0.023-0.785-0.068-1.146c-0.047-0.361-0.123-0.676-0.234-0.945
	c-0.109-0.27-0.256-0.483-0.441-0.643c-0.182-0.158-0.408-0.239-0.678-0.239s-0.496,0.081-0.68,0.239
	c-0.186,0.159-0.332,0.373-0.441,0.643s-0.188,0.584-0.232,0.945c-0.047,0.361-0.07,0.742-0.07,1.146
	c0,0.403,0.023,0.785,0.07,1.146c0.045,0.361,0.123,0.677,0.232,0.945c0.109,0.27,0.256,0.483,0.441,0.643
	c0.184,0.16,0.41,0.239,0.68,0.239s0.496-0.079,0.678-0.239c0.186-0.159,0.332-0.373,0.441-0.643
	c0.111-0.269,0.188-0.584,0.234-0.945C15.385,23.942,15.408,23.56,15.408,23.157z"/>
<path fill="#5A5A5A" d="M17.512,21.278c0-0.318,0.041-0.599,0.127-0.84c0.086-0.24,0.203-0.444,0.355-0.609
	c0.152-0.168,0.332-0.293,0.537-0.377c0.205-0.086,0.428-0.129,0.668-0.129s0.463,0.043,0.67,0.129
	c0.205,0.084,0.383,0.209,0.535,0.377c0.152,0.165,0.271,0.369,0.355,0.609c0.086,0.241,0.129,0.521,0.129,0.84
	s-0.043,0.598-0.129,0.838c-0.084,0.24-0.203,0.445-0.355,0.61c-0.152,0.167-0.33,0.292-0.535,0.378
	c-0.207,0.084-0.43,0.127-0.67,0.127s-0.463-0.043-0.668-0.127c-0.205-0.086-0.385-0.211-0.537-0.378
	c-0.152-0.165-0.27-0.37-0.355-0.61S17.512,21.596,17.512,21.278z M20.061,21.278c0-0.383-0.076-0.682-0.225-0.897
	s-0.361-0.324-0.637-0.324s-0.488,0.108-0.637,0.324s-0.223,0.515-0.223,0.897c0,0.381,0.074,0.682,0.223,0.896
	c0.148,0.216,0.361,0.324,0.637,0.324s0.488-0.108,0.637-0.324C19.984,21.959,20.061,21.659,20.061,21.278z M24.094,19.483
	l-4.15,7.358h-0.967l4.152-7.358H24.094z M22.184,25.046c0-0.317,0.043-0.598,0.127-0.837c0.084-0.242,0.205-0.445,0.355-0.612
	c0.152-0.165,0.33-0.292,0.537-0.376c0.205-0.086,0.428-0.129,0.668-0.129c0.242,0,0.465,0.043,0.67,0.129
	c0.205,0.084,0.383,0.211,0.535,0.376c0.152,0.167,0.271,0.37,0.355,0.612c0.086,0.239,0.129,0.52,0.129,0.837
	c0,0.319-0.043,0.599-0.129,0.839c-0.084,0.242-0.203,0.444-0.355,0.611c-0.152,0.166-0.33,0.292-0.535,0.377
	C24.336,26.958,24.113,27,23.871,27c-0.24,0-0.463-0.043-0.668-0.127c-0.207-0.085-0.385-0.211-0.537-0.377
	c-0.15-0.167-0.271-0.369-0.355-0.611C22.227,25.645,22.184,25.366,22.184,25.046z M24.732,25.046c0-0.382-0.074-0.681-0.223-0.897
	c-0.148-0.215-0.361-0.323-0.639-0.323c-0.275,0-0.488,0.108-0.637,0.323c-0.148,0.217-0.223,0.516-0.223,0.897
	c0,0.383,0.074,0.683,0.223,0.897c0.148,0.217,0.361,0.324,0.637,0.324c0.277,0,0.49-0.107,0.639-0.324
	C24.658,25.729,24.732,25.429,24.732,25.046z"/>
</svg>
