<?xml version="1.0" encoding="utf-8"?>
<!-- Generator: Adobe Illustrator 15.0.2, SVG Export Plug-In  -->
<!DOCTYPE svg PUBLIC "-//W3C//DTD SVG 1.1//EN" "http://www.w3.org/Graphics/SVG/1.1/DTD/svg11.dtd" [
	<!ENTITY ns_flows "http://ns.adobe.com/Flows/1.0/">
]>
<svg version="1.1"
	 xmlns="http://www.w3.org/2000/svg" xmlns:xlink="http://www.w3.org/1999/xlink" xmlns:a="http://ns.adobe.com/AdobeSVGViewerExtensions/3.0/"
	 x="0px" y="0px" width="19px" height="19px" viewBox="0 0 19 19" overflow="visible" enable-background="new 0 0 19 19"
	 xml:space="preserve">
<defs>
</defs>
<path fill="#5A5A5A" d="M0,0v19h19V0H0z M11.566,8.439L15,9l1-1.037L14,7.51L18,2v15l-5.218-5.194l3.013-0.81l-0.9-1.023
	l-3.368,0.566l-0.529,3.436l1.053,1.027l0.461-2.177L16,18H3.031l4.45-5.175l0.453,2.419l1.037-1.148L8.411,10.6L4.98,10.002
	l-1.025,1.01l2.263,0.801L1,17V2l5.161,5.51L3.727,7.963L4.875,9l3.496-0.561l0.598-3.431L7.96,3.983L7.158,7.246L3,1h13l-3,6.246
	L12,5.06l-1,1L11.566,8.439z"/>
</svg>
