<?xml version="1.0" encoding="utf-8"?>
<!-- Generator: Adobe Illustrator 15.0.2, SVG Export Plug-In  -->
<!DOCTYPE svg PUBLIC "-//W3C//DTD SVG 1.1//EN" "http://www.w3.org/Graphics/SVG/1.1/DTD/svg11.dtd" [
	<!ENTITY ns_flows "http://ns.adobe.com/Flows/1.0/">
]>
<svg version="1.1"
	 xmlns="http://www.w3.org/2000/svg" xmlns:xlink="http://www.w3.org/1999/xlink" xmlns:a="http://ns.adobe.com/AdobeSVGViewerExtensions/3.0/"
	 x="0px" y="0px" width="11px" height="11px" viewBox="0 0 11 11" overflow="visible" enable-background="new 0 0 11 11"
	 xml:space="preserve">
<defs>
</defs>
<linearGradient id="SVGID_1_" gradientUnits="userSpaceOnUse" x1="6.3203" y1="10.1514" x2="4.6802" y2="0.8496">
	<stop  offset="0" style="stop-color:#979797"/>
	<stop  offset="0.1561" style="stop-color:#B0B0B0"/>
	<stop  offset="0.3714" style="stop-color:#CECDCD"/>
	<stop  offset="0.5856" style="stop-color:#E1E1E1"/>
	<stop  offset="0.7965" style="stop-color:#EFEEEE"/>
	<stop  offset="1" style="stop-color:#F2F2F2"/>
</linearGradient>
<path fill="url(#SVGID_1_)" d="M10,6.902C10,8.613,8.613,10,6.902,10H4.098C2.387,10,1,8.613,1,6.902V4.098C1,2.387,2.387,1,4.098,1
	h2.804C8.613,1,10,2.387,10,4.098V6.902z"/>
<path fill="#A0E200" d="M6.889,11H4.111C1.844,11,0,9.155,0,6.889V4.111C0,1.845,1.844,0,4.111,0h2.777C9.155,0,11,1.845,11,4.111
	v2.777C11,9.155,9.155,11,6.889,11z M4.111,1C2.396,1,1,2.396,1,4.111v2.777C1,8.604,2.396,10,4.111,10h2.777
	C8.604,10,10,8.604,10,6.889V4.111C10,2.396,8.604,1,6.889,1H4.111z"/>
</svg>
