<?xml version="1.0" encoding="utf-8"?>
<!-- Generator: Adobe Illustrator 15.0.0, SVG Export Plug-In . SVG Version: 6.00 Build 0)  -->
<!DOCTYPE svg PUBLIC "-//W3C//DTD SVG 1.1//EN" "http://www.w3.org/Graphics/SVG/1.1/DTD/svg11.dtd">
<svg version="1.1" id="Layer_1" xmlns="http://www.w3.org/2000/svg" xmlns:xlink="http://www.w3.org/1999/xlink" x="0px" y="0px"
	 width="11px" height="11px" viewBox="0 0 11 11" enable-background="new 0 0 11 11" xml:space="preserve">
<linearGradient id="SVGID_1_" gradientUnits="userSpaceOnUse" x1="5.4536" y1="0.8564" x2="5.4536" y2="10.2974">
	<stop  offset="0" style="stop-color:#C6D300"/>
	<stop  offset="0.3563" style="stop-color:#C3D200"/>
	<stop  offset="0.5992" style="stop-color:#BBCE00"/>
	<stop  offset="0.8078" style="stop-color:#ACC90F"/>
	<stop  offset="0.997" style="stop-color:#95C11E"/>
	<stop  offset="1" style="stop-color:#95C11F"/>
</linearGradient>
<polygon fill="url(#SVGID_1_)" points="9.518,1.53 9.518,0.856 1.39,0.856 1.39,1.53 0.712,1.53 0.712,9.621 1.39,9.621 
	1.39,10.297 9.518,10.297 9.518,9.621 10.195,9.621 10.195,1.53 "/>
<rect id="highlight" x="1.571" y="0.785" fill="#FFFFFF" width="7.857" height="0.785"/>
<path fill="#95C11F" d="M9.429,0.786v0.786h0.785v7.856H9.429v0.787H1.571V9.428H0.786V1.571h0.785V0.786H9.429 M10.214,0H0.786
	v0.786H0v9.429h0.786V11h9.428v-0.785H11V0.786h-0.786V0L10.214,0z"/>
<radialGradient id="led_1_" cx="-179.6084" cy="-2.5625" r="3.6195" gradientTransform="matrix(-1.2045 0 0 -1.1911 -211.3418 2.4428)" gradientUnits="userSpaceOnUse">
	<stop  offset="0" style="stop-color:#F3E600"/>
	<stop  offset="0.3925" style="stop-color:#CDD600;stop-opacity:0.6075"/>
	<stop  offset="0.7932" style="stop-color:#A6C719;stop-opacity:0.2068"/>
	<stop  offset="1" style="stop-color:#95C11F;stop-opacity:0"/>
</radialGradient>
<ellipse id="led_2_" fill="url(#led_1_)" cx="4.998" cy="5.496" rx="4.245" ry="4.4"/>
</svg>
