<?xml version="1.0" encoding="utf-8"?>
<!-- Generator: Adobe Illustrator 15.0.2, SVG Export Plug-In  -->
<!DOCTYPE svg PUBLIC "-//W3C//DTD SVG 1.1//EN" "http://www.w3.org/Graphics/SVG/1.1/DTD/svg11.dtd" [
	<!ENTITY ns_flows "http://ns.adobe.com/Flows/1.0/">
]>
<svg version="1.1"
	 xmlns="http://www.w3.org/2000/svg" xmlns:xlink="http://www.w3.org/1999/xlink" xmlns:a="http://ns.adobe.com/AdobeSVGViewerExtensions/3.0/"
	 x="0px" y="0px" width="15px" height="17px" viewBox="0 0 15 17" overflow="visible" enable-background="new 0 0 15 17"
	 xml:space="preserve">
<defs>
</defs>
<path id="sistema_attivo_2_" fill="#FFFFFF" d="M12.062,5.68V3.75C12.062,0.487,9.19,0,7.479,0S2.896,0.487,2.896,3.75v1.93H0v11h15
	v-11H12.062z M8.333,12.283v2.729H6.667v-2.729c-0.497-0.289-0.834-0.821-0.834-1.436c0-0.922,0.747-1.667,1.667-1.667
	s1.667,0.745,1.667,1.667C9.167,11.462,8.83,11.994,8.333,12.283z M11.229,5.68h-7.5V3.75c0-2.586,2.004-2.917,3.75-2.917
	s3.75,0.331,3.75,2.917V5.68z"/>
</svg>
