<?xml version="1.0" encoding="utf-8"?>
<!-- Generator: Adobe Illustrator 15.0.2, SVG Export Plug-In  -->
<!DOCTYPE svg PUBLIC "-//W3C//DTD SVG 1.1//EN" "http://www.w3.org/Graphics/SVG/1.1/DTD/svg11.dtd" [
	<!ENTITY ns_flows "http://ns.adobe.com/Flows/1.0/">
]>
<svg version="1.1"
	 xmlns="http://www.w3.org/2000/svg" xmlns:xlink="http://www.w3.org/1999/xlink" xmlns:a="http://ns.adobe.com/AdobeSVGViewerExtensions/3.0/"
	 x="0px" y="0px" width="22px" height="18px" viewBox="0 0 22 18" overflow="visible" enable-background="new 0 0 22 18"
	 xml:space="preserve">
<defs>
</defs>
<path fill="#FFFFFF" d="M16.793,0c-1.945,0-5.205,0.554-5.205,4.26L11.663,6H0v12h15V6H12.61l-0.076-1.74
	c0-2.937,2.275-3.313,4.26-3.313c1.982,0,4.26,0.377,4.26,3.313v2.381H22V4.26C22,0.554,18.739,0,16.793,0z M11,13H7.801
	c-0.23,0.562-0.835,0.786-1.535,0.786c-1.046,0-1.893-0.849-1.893-1.893C4.374,10.847,5.221,10,6.267,10
	c0.699,0,1.304,0.383,1.63,0.946H11V13z"/>
</svg>
